<svg width="16" height="16" viewBox="0 0 16 16" fill="none" xmlns="http://www.w3.org/2000/svg">
<path d="M8.00236 15.3248L7.18292 14.5853C5.77055 13.2929 4.60468 12.177 3.6853 11.2376C2.76593 10.2982 2.0331 9.45881 1.4868 8.71931C0.94051 7.97982 0.557438 7.31028 0.337588 6.71068C0.117738 6.11109 0.0078125 5.50484 0.0078125 4.89193C0.0078125 3.69274 0.410871 2.6901 1.21699 1.88398C2.0231 1.07786 3.01909 0.674805 4.20495 0.674805C4.96443 0.674805 5.66729 0.854682 6.31351 1.21444C6.95974 1.57419 7.52269 2.09384 8.00236 2.77337C8.56198 2.05386 9.15491 1.52422 9.78115 1.18446C10.4074 0.844689 11.0803 0.674805 11.7998 0.674805C12.9856 0.674805 13.9816 1.07786 14.7877 1.88398C15.5938 2.6901 15.9969 3.69274 15.9969 4.89193C15.9969 5.50484 15.887 6.11109 15.6671 6.71068C15.4473 7.31028 15.0642 7.97982 14.5179 8.71931C13.9716 9.45881 13.2388 10.2982 12.3194 11.2376C11.4 12.177 10.2342 13.2929 8.8218 14.5853L8.00236 15.3248Z" fill="white"/>
<path d="M11.6047 10.5381C10.7031 11.4594 9.55239 12.5612 8.14918 13.8453L8.00236 13.9778L7.8555 13.8453C6.45231 12.5612 5.30164 11.4594 4.39997 10.5381C3.50041 9.61901 2.80113 8.81549 2.29113 8.12513C1.77881 7.43162 1.45268 6.84701 1.27646 6.36643C1.09533 5.87243 1.00781 5.3825 1.00781 4.89193C1.00781 3.94265 1.31607 3.19911 1.92409 2.59109C2.53443 1.98075 3.27241 1.6748 4.20495 1.6748C4.79896 1.6748 5.33374 1.81351 5.8271 2.08817C6.32676 2.36632 6.78138 2.77771 7.18539 3.35006L7.96342 4.45226L8.79171 3.38731C9.28934 2.7475 9.78195 2.32172 10.258 2.06342C10.7364 1.8039 11.2451 1.6748 11.7998 1.6748C12.7323 1.6748 13.4703 1.98075 14.0806 2.59109C14.6887 3.19911 14.9969 3.94265 14.9969 4.89193C14.9969 5.3825 14.9094 5.87243 14.7283 6.36643C14.552 6.84701 14.2259 7.43162 13.7136 8.12513C13.2036 8.81549 12.5043 9.61901 11.6047 10.5381Z" stroke="black" stroke-opacity="0.3" stroke-width="2"/>
</svg>
