<svg width="16" height="16" viewBox="0 0 16 16" fill="none" xmlns="http://www.w3.org/2000/svg">
<path d="M8.00236 15.3248L7.18292 14.5853C5.77055 13.2929 4.60468 12.177 3.6853 11.2376C2.76593 10.2982 2.0331 9.45881 1.4868 8.71931C0.94051 7.97982 0.557438 7.31028 0.337588 6.71068C0.117738 6.11109 0.0078125 5.50484 0.0078125 4.89193C0.0078125 3.69274 0.410871 2.6901 1.21699 1.88398C2.0231 1.07786 3.01909 0.674805 4.20495 0.674805C4.96443 0.674805 5.66729 0.854682 6.31351 1.21444C6.95974 1.57419 7.52269 2.09384 8.00236 2.77337C8.56198 2.05386 9.15491 1.52422 9.78115 1.18446C10.4074 0.844689 11.0803 0.674805 11.7998 0.674805C12.9856 0.674805 13.9816 1.07786 14.7877 1.88398C15.5938 2.6901 15.9969 3.69274 15.9969 4.89193C15.9969 5.50484 15.887 6.11109 15.6671 6.71068C15.4473 7.31028 15.0642 7.97982 14.5179 8.71931C13.9716 9.45881 13.2388 10.2982 12.3194 11.2376C11.4 12.177 10.2342 13.2929 8.8218 14.5853L8.00236 15.3248Z" fill="#0084FF"/>
</svg>
