<svg width="17" height="15" viewBox="0 0 17 15" fill="none" xmlns="http://www.w3.org/2000/svg">
<path d="M8.49687 14.5L7.70762 13.7933C6.34729 12.5582 5.22437 11.4918 4.33887 10.5941C3.45337 9.69645 2.74754 8.89427 2.22137 8.18759C1.69521 7.4809 1.32625 6.84106 1.1145 6.26808C0.90275 5.69509 0.796875 5.11573 0.796875 4.53001C0.796875 3.38404 1.18508 2.42588 1.9615 1.65553C2.73792 0.885175 3.69721 0.5 4.83937 0.5C5.57087 0.5 6.24783 0.671896 6.87025 1.01569C7.49267 1.35948 8.03487 1.85607 8.49687 2.50546C9.03587 1.81787 9.60696 1.31173 10.2101 0.98704C10.8133 0.662347 11.4614 0.5 12.1544 0.5C13.2965 0.5 14.2558 0.885175 15.0322 1.65553C15.8087 2.42588 16.1969 3.38404 16.1969 4.53001C16.1969 5.11573 16.091 5.69509 15.8792 6.26808C15.6675 6.84106 15.2985 7.4809 14.7724 8.18759C14.2462 8.89427 13.5404 9.69645 12.6549 10.5941C11.7694 11.4918 10.6465 12.5582 9.28612 13.7933L8.49687 14.5Z" fill="#191918"/>
</svg>
