<svg width="600" height="600" viewBox="0 0 600 600" fill="none" xmlns="http://www.w3.org/2000/svg">
<g clip-path="url(#clip0_2434_562)">
<path d="M412.72 403.912H308.807V196.087H474.952C479.814 196.087 483.76 192.141 483.76 187.28C483.76 182.414 479.814 178.473 474.952 178.473H407.959L327.127 60.8962L554.933 178.473H516.636C511.77 178.473 507.829 182.414 507.829 187.28C507.829 192.141 511.77 196.087 516.636 196.087H591.192C595.257 196.087 598.791 193.309 599.752 189.358C600.709 185.408 598.841 181.315 595.23 179.452L308.807 31.6223V8.80736C308.807 3.94134 304.866 0 300 0C295.139 0 291.193 3.94134 291.193 8.80736V31.6223L4.7703 179.457C1.15855 181.32 -0.709123 185.412 0.247603 189.358C1.2089 193.309 4.74741 196.087 8.80777 196.087H291.193V403.912H187.28C182.414 403.912 178.473 407.858 178.473 412.719V440.899C178.473 445.761 182.414 449.706 187.28 449.706H206.653V591.192C206.653 596.053 210.594 599.999 215.46 599.999C220.326 599.999 224.268 596.053 224.268 591.192V449.706H291.193V522.559L244.753 585.992C241.882 589.915 242.734 595.426 246.657 598.296C248.227 599.445 250.049 599.999 251.853 599.999C254.567 599.999 257.24 598.75 258.966 596.392L291.193 552.374V591.192C291.193 596.053 295.139 599.999 300 599.999C304.866 599.999 308.807 596.053 308.807 591.192V551.691L342.682 596.502C345.616 600.384 351.137 601.148 355.019 598.219C358.9 595.284 359.665 589.764 356.731 585.882L308.807 522.486V449.706H375.737V591.192C375.737 596.053 379.678 599.999 384.54 599.999C389.406 599.999 393.347 596.053 393.347 591.192V449.706H412.724C417.586 449.706 421.527 445.761 421.527 440.899V412.719C421.527 407.858 417.586 403.912 412.72 403.912ZM213.414 178.473L300 52.5329L386.586 178.473H213.414ZM272.878 60.8962L192.041 178.473H45.0718L272.878 60.8962ZM403.912 432.092H196.088V421.527H403.912V432.092Z" fill="black"/>
<path d="M168.493 479.058H149.121V450.293C149.121 445.431 145.18 441.485 140.314 441.485H54.7164L45.7168 373.984C45.1309 369.607 41.4001 366.339 36.9873 366.339H8.80736C3.94134 366.339 0 370.285 0 375.146C0 380.008 3.94134 383.954 8.80736 383.954H29.2785L46.9665 516.632V591.192C46.9665 596.054 50.9078 599.999 55.7739 599.999C60.6399 599.999 64.5812 596.054 64.5812 591.192V524.853H159.686V591.192C159.686 596.054 163.627 599.999 168.493 599.999C173.359 599.999 177.301 596.054 177.301 591.192V487.866C177.301 483.004 173.359 479.058 168.493 479.058ZM159.686 496.673V507.238H149.121V496.673H159.686ZM131.506 459.1V479.058H59.7243L57.0647 459.1H131.506ZM64.5812 496.673H131.506V507.238H64.5812V496.673Z" fill="black"/>
<path d="M591.192 366.339H563.012C558.599 366.339 554.868 369.607 554.283 373.984L545.283 441.485H459.686C454.824 441.485 450.883 445.431 450.883 450.293V479.058H431.506C426.644 479.058 422.703 483.004 422.703 487.866V591.192C422.703 596.054 426.644 599.999 431.506 599.999C436.372 599.999 440.313 596.054 440.313 591.192V524.853H535.423V591.192C535.423 596.054 539.364 599.999 544.225 599.999C549.092 599.999 553.033 596.054 553.033 591.192V516.632L570.721 383.954H591.192C596.058 383.954 599.999 380.008 599.999 375.146C599.999 370.285 596.058 366.339 591.192 366.339ZM535.423 507.238H468.493V496.673H535.423V507.238ZM468.493 459.1H542.935L540.275 479.058H468.493V459.1ZM440.313 496.673H450.883V507.238H440.313V496.673Z" fill="black"/>
<circle cx="423" cy="300" r="100" fill="#8CBEE9" fill-opacity="0.5"/>
<circle cx="423" cy="300" r="100" stroke="#8CBEE9"/>
</g>
<defs>
<clipPath id="clip0_2434_562">
<rect width="600" height="599.999" fill="white"/>
</clipPath>
</defs>
</svg>
