<svg width="601" height="585" viewBox="0 0 601 585" fill="none" xmlns="http://www.w3.org/2000/svg">
<path d="M556.399 316.848L581.876 339.976C584.043 341.942 586.887 342.931 589.732 342.931C592.576 342.931 595.421 341.942 597.587 339.976C601.932 336.032 601.932 329.657 597.587 325.714L511.954 247.979V151.293C511.954 134.61 496.999 121.034 478.621 121.034H434.177C417.221 121.034 403.344 132.623 401.266 147.501L330.922 83.6448C326.577 79.7011 319.555 79.7011 315.211 83.6448L48.5454 325.714C44.201 329.657 44.201 336.032 48.5454 339.976C52.8899 343.919 59.912 343.919 64.2565 339.976L89.7341 316.848V554.741C89.7341 571.424 104.69 585 123.067 585H523.065C541.443 585 556.399 571.424 556.399 554.741V316.848ZM423.066 151.293C423.066 145.725 428.044 141.207 434.177 141.207H478.621C484.754 141.207 489.732 145.725 489.732 151.293V227.807L423.066 167.29V151.293ZM323.066 105.038L404.088 178.586C404.099 178.596 404.11 178.606 404.121 178.617L492.977 259.276C492.988 259.286 492.999 259.296 493.01 259.306L518.477 282.424H127.678L323.066 105.038ZM445.288 564.827H378.622V423.621H445.288V564.827ZM534.176 554.741C534.176 560.309 529.199 564.827 523.065 564.827H467.51V413.534C467.51 407.957 462.543 403.448 456.399 403.448H367.511C361.366 403.448 356.4 407.957 356.4 413.534V564.827H123.067C116.945 564.827 111.956 560.309 111.956 554.741V312.672C111.956 307.105 116.945 302.586 123.067 302.586H523.065C529.199 302.586 534.176 307.105 534.176 312.672V554.741Z" fill="black"/>
<path d="M323.067 363.104H145.29C139.156 363.104 134.179 367.612 134.179 373.19V494.224C134.179 499.802 139.156 504.31 145.29 504.31H323.067C329.2 504.31 334.178 499.802 334.178 494.224V373.19C334.178 367.612 329.2 363.104 323.067 363.104ZM311.956 484.138H156.401V383.276H311.956V484.138Z" fill="black"/>
<path d="M45.2891 171.465C45.2891 199.273 70.2112 221.896 100.844 221.896C131.478 221.896 156.4 199.273 156.4 171.465C156.4 143.658 131.478 121.034 100.844 121.034C70.2112 121.034 45.2891 143.658 45.2891 171.465ZM134.178 171.465C134.178 188.148 119.222 201.724 100.844 201.724C82.4667 201.724 67.5112 188.148 67.5112 171.465C67.5112 154.783 82.4667 141.207 100.844 141.207C119.222 141.207 134.178 154.783 134.178 171.465Z" fill="black"/>
<path d="M167.512 100.862C185.89 100.862 200.845 87.2859 200.845 70.6033C200.845 53.9208 185.89 40.3447 167.512 40.3447C149.134 40.3447 134.179 53.9208 134.179 70.6033C134.179 87.2859 149.134 100.862 167.512 100.862ZM167.512 60.5171C173.634 60.5171 178.623 65.0358 178.623 70.6033C178.623 76.1709 173.634 80.6896 167.512 80.6896C161.39 80.6896 156.401 76.1709 156.401 70.6033C156.401 65.0358 161.39 60.5171 167.512 60.5171Z" fill="black"/>
<path d="M34.1789 60.5172C52.5566 60.5172 67.5121 46.9412 67.5121 30.2586C67.5121 13.576 52.5566 0 34.1789 0C15.8012 0 0.845703 13.576 0.845703 30.2586C0.845703 46.9412 15.8012 60.5172 34.1789 60.5172ZM34.1789 20.1724C40.3011 20.1724 45.2899 24.691 45.2899 30.2586C45.2899 35.8262 40.3011 40.3448 34.1789 40.3448C28.0567 40.3448 23.0678 35.8262 23.0678 30.2586C23.0678 24.691 28.0567 20.1724 34.1789 20.1724Z" fill="black"/>
</svg>
