<svg width="18" height="19" viewBox="0 0 18 19" fill="none" xmlns="http://www.w3.org/2000/svg">
<path d="M14.916 16.5282L9.92114 11.544C9.55321 11.8472 9.12127 12.0843 8.62531 12.2552C8.12936 12.4261 7.59609 12.5116 7.0255 12.5116C5.62401 12.5116 4.43736 12.0252 3.46555 11.0524C2.49372 10.0795 2.00781 8.9059 2.00781 7.53144C2.00781 6.15698 2.49423 4.98333 3.46707 4.01051C4.43989 3.03768 5.61666 2.55127 6.99738 2.55127C8.37808 2.55127 9.55171 3.03768 10.5183 4.01051C11.4849 4.98333 11.9682 6.15791 11.9682 7.53425C11.9682 8.084 11.886 8.60358 11.7216 9.09299C11.5572 9.58239 11.3105 10.0423 10.9817 10.4728L15.9953 15.4488L14.916 16.5282ZM7.01048 11.0263C7.98122 11.0263 8.80262 10.6854 9.4747 10.0038C10.1468 9.32213 10.4828 8.49801 10.4828 7.53144C10.4828 6.56486 10.1463 5.74075 9.47314 5.0591C8.80003 4.37744 7.97914 4.03661 7.01048 4.03661C6.03141 4.03661 5.20042 4.37744 4.51752 5.0591C3.83462 5.74075 3.49317 6.56486 3.49317 7.53144C3.49317 8.49801 3.8341 9.32213 4.51596 10.0038C5.19782 10.6854 6.02933 11.0263 7.01048 11.0263Z" fill="#070C2C" fill-opacity="0.6"/>
</svg>
