<svg width="582" height="582" viewBox="0 0 582 582" fill="none" xmlns="http://www.w3.org/2000/svg">
<path d="M103.5 159.75C134.522 159.75 159.75 134.522 159.75 103.5C159.75 72.4781 134.522 47.25 103.5 47.25C72.4781 47.25 47.25 72.4781 47.25 103.5C47.25 134.522 72.4781 159.75 103.5 159.75ZM103.5 66C124.181 66 141 82.8187 141 103.5C141 124.181 124.181 141 103.5 141C82.8187 141 66 124.181 66 103.5C66 82.8187 82.8187 66 103.5 66Z" fill="black"/>
<path d="M112.875 0.375H94.125V28.5H112.875V0.375Z" fill="black"/>
<path d="M37.2034 23.9498L23.9434 37.2061L43.8277 57.0961L57.0877 43.8398L37.2034 23.9498Z" fill="black"/>
<path d="M28.5 94.125H0.375V112.875H28.5V94.125Z" fill="black"/>
<path d="M43.8354 149.908L23.9482 169.795L37.2064 183.053L57.0936 163.166L43.8354 149.908Z" fill="black"/>
<path d="M112.875 178.5H94.125V206.625H112.875V178.5Z" fill="black"/>
<path d="M163.169 149.912L149.909 163.168L169.794 183.058L183.054 169.802L163.169 149.912Z" fill="black"/>
<path d="M206.625 94.125H178.5V112.875H206.625V94.125Z" fill="black"/>
<path d="M169.796 23.9536L149.909 43.8408L163.167 57.0989L183.054 37.2118L169.796 23.9536Z" fill="black"/>
<path d="M536.4 231.178C515.494 205.031 495.909 177.422 478.2 149.081C464.025 126.412 439.612 112.875 412.875 112.875C388.678 112.875 366.459 124.05 351.938 142.959C337.416 124.05 315.197 112.875 291 112.875C264.263 112.875 239.85 126.412 225.675 149.081C207.966 177.412 188.381 205.031 167.475 231.169L127.116 281.625H0.375V291C0.375 311.85 15.2719 329.634 35.7844 333.3L254.25 372.309C259.247 373.2 262.875 377.531 262.875 382.612C262.875 386.353 260.85 389.841 257.606 391.697L210.937 418.359C202.5 423.188 197.25 432.225 197.25 441.947C197.25 456.938 209.438 469.125 224.419 469.125H341.016C344.447 469.125 347.25 471.919 347.25 475.359C347.25 478.303 345.244 480.806 342.366 481.444L128.916 528.881C108.431 533.428 94.125 551.269 94.125 572.25V581.625H581.625V287.709L536.4 231.178ZM363.45 159.019C374.175 141.863 392.653 131.625 412.875 131.625C433.097 131.625 451.575 141.863 462.3 159.019C480.384 187.959 500.381 216.178 521.747 242.887L552.741 281.625H273.009L304.003 242.887C325.359 216.178 345.366 187.959 363.45 159.019ZM182.128 242.887C203.484 216.178 223.491 187.969 241.575 159.028C252.3 141.863 270.778 131.625 291 131.625C311.222 131.625 329.7 141.863 340.425 159.019L340.772 159.572C324.862 184.219 307.659 208.275 289.341 231.169L249 281.625H151.134L182.128 242.887ZM562.875 562.875H114.619C117.637 555.075 124.369 549.094 132.994 547.172L346.444 499.734C357.956 497.184 366 487.153 366 475.359C366 461.578 354.797 450.375 341.016 450.375H224.419C219.778 450.375 216 446.597 216 441.956C216 438.947 217.631 436.144 220.238 434.644L266.906 407.981C275.991 402.788 281.625 393.075 281.625 382.612C281.625 368.438 271.5 356.344 257.55 353.85L39.0844 314.841C30.7688 313.359 24.1031 307.762 21 300.375H562.875V562.875Z" fill="black"/>
<path d="M47.25 356.625H28.5V375.375H47.25V356.625Z" fill="black"/>
<path d="M169.125 384.75H150.375V403.5H169.125V384.75Z" fill="black"/>
<path d="M112.875 441H94.125V459.75H112.875V441Z" fill="black"/>
<path d="M19.125 497.25H0.375V516H19.125V497.25Z" fill="black"/>
<path d="M75.375 544.125H56.625V562.875H75.375V544.125Z" fill="black"/>
<path d="M459.703 525.375C452.719 525.375 449.588 522.591 444.834 518.362C439.256 513.412 431.625 506.625 417.516 506.625C403.416 506.625 395.794 513.412 390.216 518.372C385.481 522.591 382.341 525.375 375.375 525.375V544.125C389.484 544.125 397.106 537.338 402.684 532.378C407.419 528.159 410.55 525.375 417.516 525.375C424.5 525.375 427.631 528.159 432.384 532.388C437.963 537.338 445.594 544.125 459.703 544.125C473.822 544.125 481.453 537.338 487.031 532.388C491.784 528.159 494.925 525.375 501.909 525.375C508.903 525.375 512.044 528.159 516.797 532.388C522.375 537.338 530.006 544.125 544.125 544.125V525.375C537.141 525.375 534 522.591 529.247 518.362C523.669 513.412 516.028 506.625 501.909 506.625C487.791 506.625 480.159 513.412 474.581 518.362C469.828 522.591 466.687 525.375 459.703 525.375Z" fill="black"/>
<path d="M351.891 347.25C358.875 347.25 362.006 350.034 366.759 354.263C372.338 359.213 379.969 366 394.078 366C408.197 366 415.828 359.213 421.406 354.263C426.159 350.034 429.3 347.25 436.284 347.25C443.278 347.25 446.419 350.034 451.172 354.263C456.75 359.213 464.381 366 478.5 366V347.25C471.516 347.25 468.375 344.466 463.622 340.237C458.044 335.287 450.403 328.5 436.284 328.5C422.166 328.5 414.534 335.287 408.956 340.237C404.203 344.466 401.062 347.25 394.078 347.25C387.094 347.25 383.963 344.466 379.209 340.237C373.631 335.287 366 328.5 351.891 328.5C337.791 328.5 330.169 335.287 324.591 340.247C319.856 344.466 316.716 347.25 309.75 347.25V366C323.859 366 331.481 359.213 337.059 354.253C341.794 350.034 344.925 347.25 351.891 347.25Z" fill="black"/>
</svg>
