<svg width="600" height="600" viewBox="0 0 600 600" fill="none" xmlns="http://www.w3.org/2000/svg">
<path d="M560.394 489.492L505.482 370.416C496.392 350.694 473.67 335.244 453.744 335.244H144.018C124.098 335.244 101.37 350.694 92.2744 370.41L37.3624 489.492C32.3824 500.298 32.3704 510.942 37.3324 518.694C41.8684 525.774 49.8784 529.68 59.8924 529.68H537.876C547.89 529.68 555.9 525.78 560.436 518.694C565.392 510.942 565.38 500.298 560.394 489.492ZM550.326 512.226C547.44 516.732 541.962 517.68 537.876 517.68H59.8864C55.8004 517.68 50.3224 516.732 47.4364 512.226C44.7244 507.99 45.0244 501.534 48.2584 494.52L103.17 375.438C110.214 360.156 128.922 347.244 144.018 347.244H453.744C468.84 347.244 487.542 360.156 494.586 375.438L549.498 494.52C552.738 501.534 553.038 507.99 550.326 512.226Z" fill="black"/>
<path d="M464.586 373.122C463.56 371.112 461.496 369.846 459.24 369.846H138.522C136.266 369.846 134.202 371.112 133.176 373.122L102.552 433.212C101.604 435.072 101.688 437.292 102.786 439.074C103.878 440.856 105.81 441.942 107.904 441.942H489.858C491.946 441.942 493.884 440.856 494.976 439.074C496.068 437.298 496.152 435.072 495.21 433.212L464.586 373.122ZM117.69 429.936L142.194 381.846H455.562L480.06 429.936H117.69Z" fill="black"/>
<path d="M327.852 457.668H269.916C260.784 457.668 253.356 465.096 253.356 474.228V489.42C253.356 498.552 260.784 505.986 269.916 505.986H327.852C336.984 505.986 344.412 498.558 344.412 489.42V474.228C344.406 465.096 336.984 457.668 327.852 457.668ZM332.406 489.42C332.406 491.934 330.36 493.986 327.846 493.986H269.91C267.396 493.986 265.35 491.94 265.35 489.42V474.228C265.35 471.714 267.396 469.668 269.91 469.668H327.846C330.36 469.668 332.406 471.714 332.406 474.228V489.42Z" fill="black"/>
<path d="M137.664 324H460.092C480.87 324 497.772 307.098 497.772 286.32V92.4901C497.772 71.7121 480.87 54.8101 460.092 54.8101H137.664C116.886 54.8101 99.9844 71.7121 99.9844 92.4901V286.32C99.9844 307.098 116.886 324 137.664 324ZM111.984 92.4901C111.984 78.3301 123.504 66.8101 137.664 66.8101H460.092C474.252 66.8101 485.772 78.3301 485.772 92.4901V286.32C485.772 300.48 474.252 312 460.092 312H137.664C123.504 312 111.984 300.48 111.984 286.32V92.4901Z" fill="black"/>
<path d="M469.878 90.522H127.878V288.288H469.878V90.522ZM457.878 276.288H139.878V102.522H457.878V276.288Z" fill="black"/>
<circle cx="244" cy="188" r="100" fill="#8CBEE9" fill-opacity="0.5"/>
<circle cx="244" cy="188" r="100" stroke="#8CBEE9"/>
</svg>
