<svg width="562" height="480" viewBox="0 0 562 480" fill="none" xmlns="http://www.w3.org/2000/svg">
<path d="M516.93 64L444.768 31.339L435.979 45.474L510.203 79.067C511.556 79.6796 513.064 79.9999 514.596 80H561.471V64H516.93Z" fill="black"/>
<path d="M513.75 144.033L457.383 148.405C444.321 149.392 431.169 147.781 418.961 143.696C406.753 139.612 395.822 133.167 387.027 124.867L357.864 97.214C353.445 93.0229 350.896 87.6381 350.664 82.0037C350.432 76.3694 352.532 70.8453 356.596 66.4L406.273 94.66C407.297 95.2551 408.449 95.6712 409.663 95.884C410.876 96.0969 412.127 96.1024 413.343 95.9002C414.559 95.698 415.716 95.2921 416.747 94.706C417.779 94.1199 418.663 93.3653 419.351 92.4856C420.038 91.6059 420.514 90.6188 420.751 89.5811C420.989 88.5435 420.983 87.476 420.734 86.4403C420.485 85.4047 419.998 84.4214 419.301 83.5473C418.604 82.6732 417.711 81.9257 416.673 81.348L360.423 49.348L360.406 49.337L360.394 49.331C358.848 48.4577 357.033 47.9945 355.179 48H252.104C241.369 47.9966 230.971 44.7992 222.7 38.9584C214.43 33.1175 208.804 24.9988 206.793 16H370.855L417.226 36.988L426.015 22.853L377.585 0.933001C376.232 0.320128 374.724 -0.000230029 373.192 1.23923e-07H196.63C194.166 -0.000202281 191.801 0.827399 190.047 2.30377C188.292 3.78013 187.289 5.78656 187.255 7.889C187.136 15.2207 188.725 22.4996 191.93 29.3028C195.136 36.1059 199.894 42.2977 205.927 47.5183C211.961 52.739 219.15 56.8845 227.078 59.7139C235.005 62.5433 243.512 64.0002 252.104 64H336.416C332.448 71.1359 331.045 79.1144 332.382 86.9299C333.719 94.7455 337.738 102.048 343.931 107.918L373.095 135.57C382.8 144.729 394.645 152.052 407.868 157.069C421.09 162.086 435.396 164.685 449.867 164.7C452.931 164.7 456.003 164.581 459.08 164.344L515.023 160H561.472V144H514.597C514.32 144 514.031 144.011 513.75 144.033Z" fill="black"/>
<path d="M309.895 416H271.625V432H309.895C320.63 432.003 331.028 435.201 339.299 441.042C347.57 446.882 353.195 455.001 355.206 464H191.144L51.7938 400.933C50.4406 400.32 48.9322 400 47.4004 400H0.525391V416H45.0684L184.414 479.067C185.767 479.68 187.275 480 188.807 480H365.375C367.839 480 370.204 479.173 371.958 477.696C373.713 476.22 374.715 474.213 374.75 472.111C374.869 464.779 373.28 457.5 370.074 450.696C366.868 443.893 362.11 437.701 356.076 432.48C350.041 427.259 342.851 423.114 334.923 420.285C326.995 417.456 318.488 415.999 309.895 416Z" fill="black"/>
<path d="M48.2488 335.967L104.616 331.595C117.678 330.607 130.83 332.219 143.038 336.303C155.246 340.387 166.177 346.833 174.972 355.133L204.135 382.786C208.556 386.977 211.106 392.362 211.339 397.998C211.571 403.633 209.471 409.158 205.407 413.604L155.726 385.344C154.702 384.749 153.55 384.333 152.337 384.12C151.123 383.907 149.872 383.902 148.656 384.104C147.44 384.306 146.283 384.712 145.252 385.298C144.22 385.884 143.336 386.639 142.648 387.518C141.961 388.398 141.485 389.385 141.248 390.423C141.01 391.461 141.016 392.528 141.265 393.564C141.514 394.599 142.001 395.583 142.698 396.457C143.395 397.331 144.288 398.078 145.326 398.656L201.576 430.656L201.593 430.667L201.606 430.674C203.139 431.539 204.936 432 206.773 432H252.875V416H225.582C229.55 408.864 230.955 400.886 229.618 393.07C228.28 385.254 224.262 377.951 218.068 372.082L188.904 344.43C178.155 334.286 164.795 326.409 149.874 321.417C134.954 316.425 118.88 314.454 102.916 315.66L46.9762 320H0.525391V336H47.4004C47.6793 336 47.9676 335.989 48.2488 335.967Z" fill="black"/>
<path d="M318.5 136H243.5C241.014 136 238.629 136.843 236.871 138.343C235.113 139.843 234.125 141.878 234.125 144V200H215.375V216H243.5C245.986 216 248.371 215.157 250.129 213.657C251.887 212.157 252.875 210.122 252.875 208V152H309.125V208C309.125 210.122 310.113 212.157 311.871 213.657C313.629 215.157 316.014 216 318.5 216H384.125V264H318.5C316.014 264 313.629 264.843 311.871 266.343C310.113 267.843 309.125 269.878 309.125 272V328H252.875V272C252.875 269.878 251.887 267.843 250.129 266.343C248.371 264.843 245.986 264 243.5 264H177.875V216H196.625V200H168.5C166.014 200 163.629 200.843 161.871 202.343C160.113 203.843 159.125 205.878 159.125 208V272C159.125 274.122 160.113 276.157 161.871 277.657C163.629 279.157 166.014 280 168.5 280H234.125V336C234.125 338.122 235.113 340.157 236.871 341.657C238.629 343.157 241.014 344 243.5 344H318.5C320.986 344 323.371 343.157 325.129 341.657C326.887 340.157 327.875 338.122 327.875 336V280H393.5C395.986 280 398.371 279.157 400.129 277.657C401.887 276.157 402.875 274.122 402.875 272V208C402.875 205.878 401.887 203.843 400.129 202.343C398.371 200.843 395.986 200 393.5 200H327.875V144C327.875 141.878 326.887 139.843 325.129 138.343C323.371 136.843 320.986 136 318.5 136Z" fill="black"/>
<path d="M102.875 240C102.854 257.023 106.201 273.927 112.774 290L130.475 284.725C124.597 270.348 121.605 255.227 121.625 240C121.625 165.009 193.12 104 281 104C286.919 104.001 292.833 104.279 298.717 104.834L300.784 88.934C294.214 88.3127 287.61 88.0009 281 88C182.782 88 102.875 156.187 102.875 240Z" fill="black"/>
<path d="M280.999 376C275.08 375.999 269.166 375.721 263.283 375.166L261.216 391.066C267.785 391.687 274.39 391.999 280.999 392C379.218 392 459.124 323.813 459.124 240C459.145 222.977 455.799 206.073 449.226 190L431.524 195.275C437.402 209.652 440.394 224.773 440.374 240C440.374 314.991 368.879 376 280.999 376Z" fill="black"/>
<path d="M483.635 185.57C482.121 186.527 480.98 187.85 480.36 189.369C479.741 190.887 479.671 192.53 480.162 194.082C492.2 232.285 488.831 272.832 470.598 309.203C452.364 345.574 420.325 375.655 379.634 394.609L388.615 408.655C429.597 389.567 462.62 360.088 483.119 324.292C503.618 288.496 510.581 248.15 503.045 208.831L529.149 222.78L539.1 209.22L494.189 185.22C492.593 184.367 490.732 183.944 488.849 184.006C486.966 184.068 485.15 184.613 483.635 185.57Z" fill="black"/>
<path d="M70.4826 288C71.8861 288 73.2717 287.731 74.5372 287.213C75.8026 286.695 76.9157 285.942 77.7943 285.008C78.6728 284.074 79.2944 282.983 79.6132 281.817C79.932 280.651 79.9398 279.438 79.6361 278.269C69.5378 239.523 75.0746 199.002 95.3486 163.277C115.623 127.553 149.445 98.721 191.33 81.457L183.169 67.057C140.556 84.6537 105.521 113.257 83.0364 148.806C60.5517 184.356 51.7597 225.045 57.9084 265.1L22.9607 248.964L14.0381 263.036L66.0225 287.036C67.392 287.669 68.925 288 70.4826 288Z" fill="black"/>
</svg>
