<svg width="20" height="21" viewBox="0 0 20 21" fill="none" xmlns="http://www.w3.org/2000/svg">
<g clip-path="url(#clip0_3942_1840)">
<path d="M9.16284 10.1434H10.8295V4.31006C10.8295 4.07395 10.7496 3.87603 10.5899 3.71631C10.4302 3.55659 10.2323 3.47673 9.99617 3.47673C9.76006 3.47673 9.56214 3.55659 9.40242 3.71631C9.2427 3.87603 9.16284 4.07395 9.16284 4.31006V10.1434ZM4.16284 13.4767H15.8295V11.8101H4.16284V13.4767ZM2.9545 18.4767H4.99617V16.8101C4.99617 16.5739 5.07603 16.376 5.23575 16.2163C5.39548 16.0566 5.59339 15.9767 5.8295 15.9767C6.06562 15.9767 6.26353 16.0566 6.42325 16.2163C6.58298 16.376 6.66284 16.5739 6.66284 16.8101V18.4767H9.16284V16.8101C9.16284 16.5739 9.2427 16.376 9.40242 16.2163C9.56214 16.0566 9.76006 15.9767 9.99617 15.9767C10.2323 15.9767 10.4302 16.0566 10.5899 16.2163C10.7496 16.376 10.8295 16.5739 10.8295 16.8101V18.4767H13.3295V16.8101C13.3295 16.5739 13.4094 16.376 13.5691 16.2163C13.7288 16.0566 13.9267 15.9767 14.1628 15.9767C14.3989 15.9767 14.5969 16.0566 14.7566 16.2163C14.9163 16.376 14.9962 16.5739 14.9962 16.8101V18.4767H17.0378L16.2045 15.1434H3.78784L2.9545 18.4767ZM17.0378 20.1434H2.9545C2.41284 20.1434 1.97534 19.9281 1.642 19.4976C1.30867 19.067 1.21145 18.5878 1.35034 18.0601L2.49617 13.4767V11.8101C2.49617 11.3517 2.65936 10.9594 2.98575 10.633C3.31214 10.3066 3.7045 10.1434 4.16284 10.1434H7.49617V4.31006C7.49617 3.61561 7.73923 3.02534 8.22534 2.53923C8.71145 2.05311 9.30173 1.81006 9.99617 1.81006C10.6906 1.81006 11.2809 2.05311 11.767 2.53923C12.2531 3.02534 12.4962 3.61561 12.4962 4.31006V10.1434H15.8295C16.2878 10.1434 16.6802 10.3066 17.0066 10.633C17.333 10.9594 17.4962 11.3517 17.4962 11.8101V13.4767L18.642 18.0601C18.8226 18.5878 18.7427 19.067 18.4024 19.4976C18.0621 19.9281 17.6073 20.1434 17.0378 20.1434Z" fill="black"/>
</g>
<defs>
<clipPath id="clip0_3942_1840">
<rect width="20" height="20" fill="white" transform="translate(0 0.976562)"/>
</clipPath>
</defs>
</svg>
