<svg width="32" height="33" viewBox="0 0 32 33" fill="none" xmlns="http://www.w3.org/2000/svg">
<path d="M17.8824 20.2647H19.7647V14.6176H25.4118V12.7353H19.7647V7.08824H17.8824V12.7353H12.2353V14.6176H17.8824V20.2647ZM8.68776 26.8529C7.82141 26.8529 7.09804 26.5627 6.51765 25.9824C5.93725 25.402 5.64706 24.6786 5.64706 23.8122V3.54071C5.64706 2.67435 5.93725 1.95098 6.51765 1.37059C7.09804 0.790196 7.82141 0.5 8.68776 0.5H28.9593C29.8256 0.5 30.549 0.790196 31.1294 1.37059C31.7098 1.95098 32 2.67435 32 3.54071V23.8122C32 24.6786 31.7098 25.402 31.1294 25.9824C30.549 26.5627 29.8256 26.8529 28.9593 26.8529H8.68776ZM8.68776 24.9706H28.9593C29.2489 24.9706 29.5144 24.8499 29.7557 24.6086C29.997 24.3673 30.1176 24.1018 30.1176 23.8122V3.54071C30.1176 3.25114 29.997 2.98568 29.7557 2.74433C29.5144 2.50301 29.2489 2.38235 28.9593 2.38235H8.68776C8.3982 2.38235 8.13274 2.50301 7.89139 2.74433C7.65007 2.98568 7.52941 3.25114 7.52941 3.54071V23.8122C7.52941 24.1018 7.65007 24.3673 7.89139 24.6086C8.13274 24.8499 8.3982 24.9706 8.68776 24.9706ZM3.04071 32.5C2.17435 32.5 1.45098 32.2098 0.870588 31.6294C0.290196 31.049 0 30.3256 0 29.4593V7.30541H1.88235V29.4593C1.88235 29.7489 2.00301 30.0144 2.24433 30.2557C2.48565 30.497 2.75111 30.6176 3.04071 30.6176H25.1946V32.5H3.04071Z" fill="#0084FF"/>
</svg>
