<svg width="550" height="489" viewBox="0 0 550 489" fill="none" xmlns="http://www.w3.org/2000/svg">
<path d="M61.1111 0C27.4045 0 0 27.4045 0 61.1111V336.111C0 369.818 27.4045 397.222 61.1111 397.222H229.167L218.95 427.778H152.778C135.877 427.778 122.222 441.432 122.222 458.333C122.222 475.234 135.877 488.889 152.778 488.889H397.222C414.123 488.889 427.778 475.234 427.778 458.333C427.778 441.432 414.123 427.778 397.222 427.778H331.05L320.833 397.222H488.889C522.595 397.222 550 369.818 550 336.111V61.1111C550 27.4045 522.595 0 488.889 0H61.1111ZM488.889 61.1111V275H61.1111V61.1111H488.889Z" fill="#0084FF"/>
</svg>
