<svg width="51" height="50" viewBox="0 0 51 50" fill="none" xmlns="http://www.w3.org/2000/svg">
<path d="M0.333984 20C0.333984 7 7.33398 0 20.334 0H30.334C43.334 0 50.334 7 50.334 20V30C50.334 43 43.334 50 30.334 50H20.334C7.33398 50 0.333984 43 0.333984 30V20Z" fill="#E0F4FF"/>
<path d="M15.8539 37.0416C15.1474 37.0416 14.5439 36.7914 14.0436 36.291C13.5432 35.7907 13.293 35.1872 13.293 34.4807V15.5193C13.293 14.8128 13.5432 14.2093 14.0436 13.7089C14.5439 13.2086 15.1474 12.9584 15.8539 12.9584H22.158C22.247 12.1719 22.5903 11.5031 23.1878 10.9519C23.7854 10.4007 24.501 10.125 25.3346 10.125C26.1773 10.125 26.8975 10.4007 27.495 10.9519C28.0925 11.5031 28.4313 12.1719 28.5112 12.9584H34.8153C35.5218 12.9584 36.1253 13.2086 36.6257 13.7089C37.126 14.2093 37.3762 14.8128 37.3762 15.5193V24.4796C37.0275 24.3307 36.6783 24.2045 36.3287 24.101C35.9791 23.9974 35.62 23.9148 35.2513 23.8531V15.5193C35.2513 15.4103 35.2059 15.3104 35.1151 15.2195C35.0242 15.1287 34.9243 15.0833 34.8153 15.0833H15.8539C15.7449 15.0833 15.645 15.1287 15.5541 15.2195C15.4633 15.3104 15.4179 15.4103 15.4179 15.5193V34.4807C15.4179 34.5897 15.4633 34.6896 15.5541 34.7804C15.645 34.8713 15.7449 34.9167 15.8539 34.9167H24.1523C24.2049 35.309 24.283 35.6799 24.3865 36.0295C24.49 36.3792 24.6163 36.7165 24.7652 37.0416H15.8539ZM15.4179 33.5V34.9167V15.0833V23.8531V23.7468V33.5ZM18.6055 31.5657H24.2966C24.3584 31.197 24.4501 30.8378 24.5718 30.4882C24.6935 30.1386 24.8261 29.7894 24.9696 29.4407H18.6055V31.5657ZM18.6055 26.0625H27.5877C28.198 25.5449 28.8491 25.1112 29.541 24.7616C30.233 24.412 30.974 24.1636 31.764 24.0165V23.9375H18.6055V26.0625ZM18.6055 20.5593H32.0637V18.4343H18.6055V20.5593ZM25.3346 14.157C25.6415 14.157 25.8954 14.0567 26.0961 13.856C26.2968 13.6553 26.3971 13.4015 26.3971 13.0945C26.3971 12.7876 26.2968 12.5338 26.0961 12.3331C25.8954 12.1324 25.6415 12.032 25.3346 12.032C25.0277 12.032 24.7738 12.1324 24.5731 12.3331C24.3724 12.5338 24.2721 12.7876 24.2721 13.0945C24.2721 13.4015 24.3724 13.6553 24.5731 13.856C24.7738 14.0567 25.0277 14.157 25.3346 14.157ZM33.8346 39.9567C32.0656 39.9567 30.5609 39.3364 29.3204 38.0959C28.0799 36.8555 27.4596 35.3507 27.4596 33.5817C27.4596 31.8127 28.0799 30.308 29.3204 29.0675C30.5609 27.827 32.0656 27.2068 33.8346 27.2068C35.6036 27.2068 37.1083 27.827 38.3488 29.0675C39.5893 30.308 40.2096 31.8127 40.2096 33.5817C40.2096 35.3507 39.5893 36.8555 38.3488 38.0959C37.1083 39.3364 35.6036 39.9567 33.8346 39.9567ZM33.208 37.75H34.4612V34.2083H38.0029V32.9551H34.4612V29.4135H33.208V32.9551H29.6663V34.2083H33.208V37.75Z" fill="#0295E8"/>
</svg>
