<svg width="16" height="14" viewBox="0 0 16 14" fill="none" xmlns="http://www.w3.org/2000/svg">
<path d="M7.98233 11.0509C8.93891 11.0509 9.73796 10.7411 10.3795 10.1215C11.021 9.50181 11.3418 8.73054 11.3418 7.80763C11.3418 6.88473 11.0219 6.11398 10.3821 5.49538C9.74224 4.8768 8.94587 4.5675 7.99293 4.5675C7.03998 4.5675 6.24415 4.87567 5.60542 5.49202C4.9667 6.10836 4.64734 6.87681 4.64734 7.79737C4.64734 8.7238 4.96554 9.49767 5.60194 10.119C6.23834 10.7403 7.0318 11.0509 7.98233 11.0509ZM7.98489 9.71781C7.41723 9.71781 6.94847 9.5356 6.57861 9.17116C6.20875 8.80673 6.02382 8.34963 6.02382 7.79986C6.02382 7.25009 6.20875 6.79434 6.57861 6.43263C6.94847 6.0709 7.41723 5.89003 7.98489 5.89003C8.55256 5.89003 9.02635 6.0709 9.40628 6.43263C9.78621 6.79434 9.97618 7.25009 9.97618 7.79986C9.97618 8.34963 9.78621 8.80673 9.40628 9.17116C9.02635 9.5356 8.55256 9.71781 7.98489 9.71781ZM1.52926 14C1.1109 14 0.751443 13.8544 0.450873 13.5633C0.150291 13.2722 0 12.9241 0 12.5189V3.11816C0 2.72255 0.150291 2.37505 0.450873 2.07564C0.751443 1.77624 1.1109 1.62654 1.52926 1.62654H4.12695L5.64528 0H10.3438L11.873 1.62654H14.4598C14.8683 1.62654 15.2271 1.77624 15.5363 2.07564C15.8454 2.37505 16 2.72255 16 3.11816V12.5189C16 12.9241 15.8454 13.2722 15.5363 13.5633C15.2271 13.8544 14.8683 14 14.4598 14H1.52926ZM1.52926 12.5189H14.4598V3.11816H11.2016L9.70509 1.49161H6.30584L4.76568 3.11816H1.52926V12.5189Z" fill="white"/>
</svg>
