<svg width="32" height="20" viewBox="0 0 32 20" fill="none" xmlns="http://www.w3.org/2000/svg">
<path d="M3.93048 19.2083C3.07867 19.2083 2.37078 18.9263 1.80683 18.3624C1.2429 17.7984 0.960938 17.0905 0.960938 16.2387V3.76129C0.960938 2.90947 1.2429 2.20158 1.80683 1.63763C2.37078 1.07368 3.07867 0.791702 3.93048 0.791702H16.4079C17.2598 0.791702 17.9676 1.07368 18.5316 1.63763C19.0955 2.20158 19.3775 2.90947 19.3775 3.76129V16.2387C19.3775 17.0905 19.0955 17.7984 18.5316 18.3624C17.9676 18.9263 17.2598 19.2083 16.4079 19.2083H3.93048ZM3.08587 14.8003C4.12476 14.1592 5.23448 13.662 6.41503 13.3087C7.59559 12.9555 8.84698 12.7788 10.1692 12.7788C11.4914 12.7788 12.7428 12.9555 13.9234 13.3087C15.1039 13.662 16.2136 14.1592 17.2525 14.8003V3.76129C17.2525 3.52515 17.1708 3.32535 17.0073 3.16189C16.8439 2.99841 16.6441 2.91667 16.4079 2.91667H3.93048C3.69435 2.91667 3.49455 2.99841 3.33109 3.16189C3.16761 3.32535 3.08587 3.52515 3.08587 3.76129V14.8003ZM10.1692 14.9038C9.13758 14.9038 8.11594 15.0468 7.10428 15.3329C6.09264 15.6189 5.1282 16.0526 4.21098 16.6338C4.23823 16.7791 4.32678 16.8903 4.47664 16.9676C4.6265 17.0447 4.77863 17.0833 4.93302 17.0833H15.4054C15.5689 17.0833 15.721 17.0447 15.8618 16.9676C16.0026 16.8903 16.1138 16.7791 16.1955 16.6338C15.2874 16.0798 14.3207 15.653 13.2954 15.3533C12.2702 15.0536 11.2281 14.9038 10.1692 14.9038ZM10.1692 11.5529C9.16119 11.5529 8.29621 11.1919 7.57426 10.4699C6.85232 9.74799 6.49136 8.88301 6.49136 7.875C6.49136 6.867 6.85232 6.00201 7.57426 5.28006C8.29621 4.5581 9.16119 4.19712 10.1692 4.19712C11.1772 4.19712 12.0422 4.5581 12.7641 5.28006C13.4861 6.00201 13.8471 6.867 13.8471 7.875C13.8471 8.88301 13.4861 9.74799 12.7641 10.4699C12.0422 11.1919 11.1772 11.5529 10.1692 11.5529ZM10.1692 9.55867C10.6324 9.55867 11.0288 9.39386 11.3584 9.06422C11.6881 8.73456 11.8529 8.33816 11.8529 7.875C11.8529 7.41185 11.6881 7.01544 11.3584 6.68578C11.0288 6.35615 10.6324 6.19133 10.1692 6.19133C9.70607 6.19133 9.30967 6.35615 8.98001 6.68578C8.65036 7.01544 8.48553 7.41185 8.48553 7.875C8.48553 8.33816 8.65036 8.73456 8.98001 9.06422C9.30967 9.39386 9.70607 9.55867 10.1692 9.55867ZM23.0827 19.2083V0.791702H25.2076V19.2083H23.0827ZM28.9128 19.2083V0.791702H31.0378V19.2083H28.9128Z" fill="#4A14EE"/>
</svg>
