<svg width="50" height="50" viewBox="0 0 50 50" fill="none" xmlns="http://www.w3.org/2000/svg">
<path d="M0 20C0 7 7 0 20 0H30C43 0 50 7 50 20V30C50 43 43 50 30 50H20C7 50 0 43 0 30V20Z" fill="#EAE3FF"/>
<path d="M12.9305 34.2083C12.0787 34.2083 11.3708 33.9263 10.8068 33.3624C10.2429 32.7984 9.96094 32.0905 9.96094 31.2387V18.7613C9.96094 17.9095 10.2429 17.2016 10.8068 16.6376C11.3708 16.0737 12.0787 15.7917 12.9305 15.7917H25.4079C26.2598 15.7917 26.9676 16.0737 27.5316 16.6376C28.0955 17.2016 28.3775 17.9095 28.3775 18.7613V31.2387C28.3775 32.0905 28.0955 32.7984 27.5316 33.3624C26.9676 33.9263 26.2598 34.2083 25.4079 34.2083H12.9305ZM12.0859 29.8003C13.1248 29.1592 14.2345 28.662 15.415 28.3087C16.5956 27.9554 17.847 27.7788 19.1692 27.7788C20.4914 27.7788 21.7428 27.9554 22.9234 28.3087C24.1039 28.662 25.2136 29.1592 26.2525 29.8003V18.7613C26.2525 18.5251 26.1708 18.3253 26.0073 18.1619C25.8439 17.9984 25.6441 17.9167 25.4079 17.9167H12.9305C12.6943 17.9167 12.4946 17.9984 12.3311 18.1619C12.1676 18.3253 12.0859 18.5251 12.0859 18.7613V29.8003ZM19.1692 29.9038C18.1376 29.9038 17.1159 30.0468 16.1043 30.3329C15.0926 30.6189 14.1282 31.0526 13.211 31.6338C13.2382 31.7791 13.3268 31.8903 13.4766 31.9675C13.6265 32.0447 13.7786 32.0833 13.933 32.0833H24.4054C24.5689 32.0833 24.721 32.0447 24.8618 31.9675C25.0026 31.8903 25.1138 31.7791 25.1955 31.6338C24.2874 31.0798 23.3207 30.653 22.2954 30.3533C21.2702 30.0536 20.2281 29.9038 19.1692 29.9038ZM19.1692 26.5529C18.1612 26.5529 17.2962 26.1919 16.5743 25.4699C15.8523 24.748 15.4914 23.883 15.4914 22.875C15.4914 21.867 15.8523 21.002 16.5743 20.28C17.2962 19.5581 18.1612 19.1971 19.1692 19.1971C20.1772 19.1971 21.0422 19.5581 21.7641 20.28C22.4861 21.002 22.8471 21.867 22.8471 22.875C22.8471 23.883 22.4861 24.748 21.7641 25.4699C21.0422 26.1919 20.1772 26.5529 19.1692 26.5529ZM19.1692 24.5587C19.6324 24.5587 20.0288 24.3938 20.3584 24.0642C20.6881 23.7345 20.8529 23.3381 20.8529 22.875C20.8529 22.4118 20.6881 22.0154 20.3584 21.6858C20.0288 21.3561 19.6324 21.1913 19.1692 21.1913C18.7061 21.1913 18.3097 21.3561 17.98 21.6858C17.6504 22.0154 17.4855 22.4118 17.4855 22.875C17.4855 23.3381 17.6504 23.7345 17.98 24.0642C18.3097 24.3938 18.7061 24.5587 19.1692 24.5587ZM32.0827 34.2083V15.7917H34.2076V34.2083H32.0827ZM37.9128 34.2083V15.7917H40.0378V34.2083H37.9128Z" fill="#4A14EE"/>
</svg>
