<svg width="17" height="17" viewBox="0 0 17 17" fill="none" xmlns="http://www.w3.org/2000/svg">
<path d="M0 17V14.4818H17V17H0ZM2.12502 12.3832V9.81655L9.71945 2.33278L12.3021 4.88328L4.72402 12.3832H2.12502ZM3.4 11.1241H4.165L10.5106 4.88328L9.71945 4.10197L3.4 10.3686V11.1241ZM13.1603 4.00835L10.5776 1.47399L11.8297 0.237473C11.9855 0.0749605 12.1811 -0.00414209 12.4165 0.000166954C12.6519 0.00447599 12.8475 0.0835786 13.0034 0.237473L14.396 1.61278C14.5518 1.76668 14.6325 1.9577 14.6379 2.18586C14.6434 2.41401 14.5682 2.60934 14.4124 2.77184L13.1603 4.00835Z" fill="#101437"/>
</svg>
