<svg width="60" height="60" viewBox="0 0 60 60" fill="none" xmlns="http://www.w3.org/2000/svg">
<path d="M0 30C0 5.295 5.295 0 30 0C54.705 0 60 5.295 60 30C60 54.705 54.705 60 30 60C5.295 60 0 54.705 0 30Z" fill="#FFEFC7"/>
<path d="M21.7594 45.7414C20.9945 45.7414 20.3515 45.4764 19.8304 44.9462C19.3094 44.4161 19.0489 43.7656 19.0489 42.9947C19.0489 42.2239 19.3117 41.5759 19.8375 41.0506C20.3633 40.5254 21.0085 40.2628 21.7732 40.2628C22.5379 40.2628 23.1846 40.5279 23.7132 41.058C24.2418 41.5882 24.5061 42.2387 24.5061 43.0095C24.5061 43.7803 24.241 44.4284 23.7109 44.9536C23.1807 45.4788 22.5302 45.7414 21.7594 45.7414ZM38.0671 45.7414C37.3022 45.7414 36.6592 45.4764 36.1381 44.9462C35.6171 44.4161 35.3565 43.7656 35.3565 42.9947C35.3565 42.2239 35.6194 41.5759 36.1452 41.0506C36.671 40.5254 37.3162 40.2628 38.0809 40.2628C38.8456 40.2628 39.4923 40.5279 40.0209 41.058C40.5495 41.5882 40.8138 42.2387 40.8138 43.0095C40.8138 43.7803 40.5487 44.4284 40.0186 44.9536C39.4884 45.4788 38.8379 45.7414 38.0671 45.7414ZM19.5552 18.8483L24.0681 28.2799H35.3864C35.5788 28.2799 35.7533 28.2318 35.9099 28.1357C36.0666 28.0395 36.1913 27.906 36.2839 27.735L40.6792 19.7457C40.8074 19.5107 40.8181 19.3023 40.7112 19.1207C40.6044 18.9391 40.4228 18.8483 40.1664 18.8483H19.5552ZM18.5018 16.7158H41.6946C42.4052 16.7158 42.9396 17.0123 43.2979 17.6052C43.6561 18.1982 43.6649 18.8077 43.3245 19.4337L38.1014 28.8947C37.8445 29.3406 37.4916 29.705 37.0426 29.9879C36.5937 30.2709 36.1108 30.4124 35.5939 30.4124H23.2775L21.4228 33.7671C21.2661 34.0235 21.2643 34.3013 21.4174 34.6004C21.5706 34.8996 21.8074 35.0491 22.1279 35.0491H40.8694V37.1816H21.6386C20.5453 37.1816 19.7588 36.7566 19.2791 35.9065C18.7994 35.0564 18.7988 34.1781 19.2775 33.2714L21.801 28.6581L15.5788 15.5214H12.4121V13.3889H16.9249L18.5018 16.7158Z" fill="#FF9900"/>
</svg>
