<svg width="32" height="33" viewBox="0 0 32 33" fill="none" xmlns="http://www.w3.org/2000/svg">
<path d="M9.7594 32.7414C8.99446 32.7414 8.35146 32.4764 7.8304 31.9462C7.30937 31.4161 7.04886 30.7656 7.04886 29.9947C7.04886 29.2239 7.31175 28.5759 7.83753 28.0506C8.36331 27.5254 9.00854 27.2628 9.77324 27.2628C10.5379 27.2628 11.1846 27.5279 11.7132 28.058C12.2418 28.5882 12.5061 29.2387 12.5061 30.0095C12.5061 30.7803 12.241 31.4284 11.7109 31.9536C11.1807 32.4788 10.5302 32.7414 9.7594 32.7414ZM26.0671 32.7414C25.3022 32.7414 24.6592 32.4764 24.1381 31.9462C23.6171 31.4161 23.3565 30.7656 23.3565 29.9947C23.3565 29.2239 23.6194 28.5759 24.1452 28.0506C24.671 27.5254 25.3162 27.2628 26.0809 27.2628C26.8456 27.2628 27.4923 27.5279 28.0209 28.058C28.5495 28.5882 28.8138 29.2387 28.8138 30.0095C28.8138 30.7803 28.5487 31.4284 28.0186 31.9536C27.4884 32.4788 26.8379 32.7414 26.0671 32.7414ZM7.55524 5.84827L12.0681 15.2799H23.3864C23.5788 15.2799 23.7533 15.2318 23.9099 15.1357C24.0666 15.0395 24.1913 14.906 24.2839 14.735L28.6792 6.74569C28.8074 6.51066 28.8181 6.30233 28.7112 6.12069C28.6044 5.93908 28.4228 5.84827 28.1664 5.84827H7.55524ZM6.50182 3.71581H29.6946C30.4052 3.71581 30.9396 4.01229 31.2979 4.60523C31.6561 5.19817 31.6649 5.80767 31.3245 6.43373L26.1014 15.8947C25.8445 16.3406 25.4916 16.705 25.0426 16.9879C24.5937 17.2709 24.1108 17.4124 23.5939 17.4124H11.2775L9.42278 20.7671C9.26608 21.0235 9.26431 21.3013 9.41744 21.6004C9.57056 21.8996 9.80737 22.0491 10.1279 22.0491H28.8694V24.1816H9.63857C8.54526 24.1816 7.75876 23.7566 7.27907 22.9065C6.79937 22.0564 6.79885 21.1781 7.27749 20.2714L9.80099 15.6581L3.57878 2.52135H0.412109V0.388855H4.9249L6.50182 3.71581Z" fill="#FF9900"/>
</svg>
