<svg width="18" height="19" viewBox="0 0 18 19" fill="none" xmlns="http://www.w3.org/2000/svg">
<path d="M2.16667 17C1.70833 17 1.31597 16.8368 0.989583 16.5105C0.663194 16.1841 0.5 15.7917 0.5 15.3334V3.66671C0.5 3.20837 0.663194 2.81601 0.989583 2.48962C1.31597 2.16324 1.70833 2.00004 2.16667 2.00004H5.66667C5.84722 1.50004 6.1493 1.09726 6.57292 0.791707C6.99653 0.486152 7.47222 0.333374 8 0.333374C8.52778 0.333374 9.00347 0.486152 9.42708 0.791707C9.85069 1.09726 10.1528 1.50004 10.3333 2.00004H13.8333C14.2917 2.00004 14.684 2.16324 15.0104 2.48962C15.3368 2.81601 15.5 3.20837 15.5 3.66671V9.25004C15.2361 9.12504 14.9653 9.0174 14.6875 8.92712C14.4097 8.83685 14.125 8.77087 13.8333 8.72921V3.66671H2.16667V15.3334H7.20833C7.25 15.6389 7.31597 15.9306 7.40625 16.2084C7.49653 16.4862 7.60417 16.75 7.72917 17H2.16667ZM2.16667 14.5V15.3334V3.66671V8.72921V8.66671V14.5ZM3.83333 13.6667H7.22917C7.27083 13.375 7.3368 13.0903 7.42708 12.8125C7.51736 12.5348 7.61805 12.2639 7.72917 12H3.83333V13.6667ZM3.83333 10.3334H8.91667C9.36111 9.91671 9.85764 9.56949 10.4062 9.29171C10.9549 9.01393 11.5417 8.82643 12.1667 8.72921V8.66671H3.83333V10.3334ZM3.83333 7.00004H12.1667V5.33337H3.83333V7.00004ZM8 3.04171C8.18055 3.04171 8.32986 2.98268 8.44792 2.86462C8.56597 2.74657 8.625 2.59726 8.625 2.41671C8.625 2.23615 8.56597 2.08685 8.44792 1.96879C8.32986 1.85074 8.18055 1.79171 8 1.79171C7.81944 1.79171 7.67014 1.85074 7.55208 1.96879C7.43403 2.08685 7.375 2.23615 7.375 2.41671C7.375 2.59726 7.43403 2.74657 7.55208 2.86462C7.67014 2.98268 7.81944 3.04171 8 3.04171ZM13 18.6667C11.8472 18.6667 10.8646 18.2605 10.0521 17.448C9.23958 16.6355 8.83333 15.6528 8.83333 14.5C8.83333 13.3473 9.23958 12.3646 10.0521 11.5521C10.8646 10.7396 11.8472 10.3334 13 10.3334C14.1528 10.3334 15.1354 10.7396 15.9479 11.5521C16.7604 12.3646 17.1667 13.3473 17.1667 14.5C17.1667 15.6528 16.7604 16.6355 15.9479 17.448C15.1354 18.2605 14.1528 18.6667 13 18.6667ZM12.5833 17H13.4167V14.9167H15.5V14.0834H13.4167V12H12.5833V14.0834H10.5V14.9167H12.5833V17Z" fill="#070C2C" fill-opacity="0.6"/>
</svg>
