<svg width="60" height="60" viewBox="0 0 60 60" fill="none" xmlns="http://www.w3.org/2000/svg">
<path d="M0 30C0 5.295 5.295 0 30 0C54.705 0 60 5.295 60 30C60 54.705 54.705 60 30 60C5.295 60 0 54.705 0 30Z" fill="#F1F1F1"/>
<path d="M12.1528 44.5139V25.5865H14.2853V28.9199H18.9477V15.4583H21.0802V18.7916H25.6144V15.4583H27.7468V18.7916H32.281V15.4583H34.4135V18.7916H38.9477V15.4583H41.0802V28.9199H45.7426V25.5865H47.875V44.5139H33.9477V40C33.9477 38.9032 33.564 37.9711 32.7965 37.2036C32.029 36.4361 31.0968 36.0523 30 36.0523C28.9033 36.0523 27.9758 36.4361 27.2175 37.2036C26.4593 37.9711 26.0802 38.9032 26.0802 40V44.5139H12.1528ZM14.2853 42.3814H23.9477V40C23.9477 38.2963 24.5298 36.857 25.6939 35.6821C26.858 34.5073 28.2927 33.9199 29.9978 33.9199C31.703 33.9199 33.143 34.5073 34.3179 35.6821C35.4927 36.857 36.0802 38.2963 36.0802 40V42.3814H45.7426V31.0523H38.9477V20.9241H21.0802V31.0523H14.2853V42.3814ZM25.6144 29.3856H27.7468V25.1378H25.6144V29.3856ZM32.281 29.3856H34.4135V25.1378H32.281V29.3856Z" fill="black"/>
</svg>
