<svg width="600" height="600" viewBox="0 0 600 600" fill="none" xmlns="http://www.w3.org/2000/svg">
<path d="M466.462 478.353C464.389 475.931 461.368 474.545 458.182 474.545H141.819C138.633 474.545 135.611 475.931 133.539 478.353L68.0841 554.716C65.3131 557.945 64.6695 562.505 66.4586 566.378C68.2368 570.251 72.0986 572.727 76.3641 572.727H523.637C527.902 572.727 531.764 570.24 533.553 566.378C535.331 562.505 534.688 557.956 531.928 554.716L466.462 478.353ZM100.08 550.909L146.837 496.364H453.164L499.92 550.909H100.08Z" fill="black"/>
<path d="M600 540H545.454V561.818H600V540Z" fill="black"/>
<path d="M54.5455 540H0V561.818H54.5455V540Z" fill="black"/>
<path d="M76.3638 485.455H21.8184V507.273H76.3638V485.455Z" fill="black"/>
<path d="M578.182 485.455H523.637V507.273H578.182V485.455Z" fill="black"/>
<path d="M196.364 190.909H130.909C125.454 190.909 120.84 194.945 120.098 200.345C119.651 203.64 109.091 281.542 109.091 321.818C109.091 362.095 119.651 439.996 120.098 443.291C120.84 448.691 125.454 452.727 130.909 452.727H196.364C201.818 452.727 206.433 448.691 207.174 443.291C207.622 439.996 218.182 362.095 218.182 321.818C218.182 281.542 207.622 203.64 207.174 200.345C206.433 194.945 201.818 190.909 196.364 190.909ZM186.785 430.909H140.487C137.651 408.676 130.909 352.615 130.909 321.818C130.909 291.033 137.651 234.96 140.487 212.727H186.785C189.622 234.949 196.364 291.022 196.364 321.818C196.364 352.615 189.622 408.676 186.785 430.909Z" fill="black"/>
<path d="M338.182 190.909H272.727C267.273 190.909 262.658 194.945 261.916 200.345C261.469 203.64 250.909 281.542 250.909 321.818C250.909 362.095 261.469 439.996 261.916 443.291C262.658 448.691 267.273 452.727 272.727 452.727H338.182C343.636 452.727 348.251 448.691 348.993 443.291C349.44 439.996 360 362.095 360 321.818C360 281.542 349.44 203.64 348.993 200.345C348.251 194.945 343.636 190.909 338.182 190.909ZM328.604 430.909H282.306C279.469 408.676 272.727 352.615 272.727 321.818C272.727 291.033 279.469 234.96 282.306 212.727H328.604C331.44 234.949 338.182 291.022 338.182 321.818C338.182 352.615 331.44 408.676 328.604 430.909Z" fill="black"/>
<path d="M480 190.909H414.546C409.091 190.909 404.477 194.945 403.735 200.345C403.288 203.64 392.728 281.542 392.728 321.818C392.728 362.095 403.288 439.996 403.735 443.291C404.477 448.691 409.091 452.727 414.546 452.727H480C485.455 452.727 490.069 448.691 490.811 443.291C491.258 439.996 501.818 362.095 501.818 321.818C501.818 281.542 491.258 203.64 490.811 200.345C490.069 194.945 485.455 190.909 480 190.909ZM470.422 430.909H424.124C421.288 408.676 414.546 352.615 414.546 321.818C414.546 291.033 421.288 234.96 424.124 212.727H470.422C473.258 234.949 480 291.022 480 321.818C480 352.615 473.258 408.676 470.422 430.909Z" fill="black"/>
<path d="M76.3639 180H534.546C539.498 180 543.818 176.673 545.084 171.895C546.36 167.105 544.244 162.076 539.957 159.622L310.866 28.7127C307.506 26.7927 303.393 26.7927 300.044 28.7127L70.953 159.622C66.6549 162.076 64.5494 167.105 65.8258 171.895C67.0912 176.673 71.4112 180 76.3639 180ZM305.455 50.7491L493.462 158.182H117.448L305.455 50.7491Z" fill="black"/>
<circle cx="473" cy="104" r="100" fill="#8CBEE9" fill-opacity="0.5"/>
<circle cx="473" cy="104" r="100" stroke="#8CBEE9"/>
</svg>
