<svg width="24.000000" height="24.000000" viewBox="0 0 24 24" fill="none" xmlns="http://www.w3.org/2000/svg" xmlns:xlink="http://www.w3.org/1999/xlink">
	<desc>
			Created with Pixso.
	</desc>
	<defs>
		<clipPath id="clip311_804">
			<rect id="download_FILL0_wght300_GRAD0_opsz24 1" width="24.000000" height="24.000000" transform="translate(-0.750000 0.000000)" fill="white" fill-opacity="0"/>
		</clipPath>
	</defs>
	<rect id="download_FILL0_wght300_GRAD0_opsz24 1" width="24.000000" height="24.000000" transform="translate(-0.750000 0.000000)" fill="#FFFFFF" fill-opacity="0"/>
	<g clip-path="url(#clip311_804)">
		<path id="Vector" d="M11.25 15.78L6.98 11.51L8.03 10.43L10.5 12.9L10.5 4.5L12 4.5L12 12.9L14.46 10.43L15.51 11.51L11.25 15.78ZM5.55 19.49C5.05 19.49 4.62 19.32 4.27 18.97C3.92 18.62 3.75 18.19 3.75 17.69L3.75 14.98L5.25 14.98L5.25 17.69C5.25 17.76 5.28 17.83 5.34 17.9C5.41 17.96 5.48 18 5.55 18L16.94 18C17.01 18 17.08 17.96 17.15 17.9C17.21 17.83 17.25 17.76 17.25 17.69L17.25 14.98L18.75 14.98L18.75 17.69C18.75 18.19 18.57 18.62 18.22 18.97C17.87 19.32 17.44 19.49 16.94 19.49L5.55 19.49Z" fill="#000000" fill-opacity="0.500000" fill-rule="nonzero"/>
	</g>
</svg>
