<svg width="513" height="512" viewBox="0 0 513 512" fill="none" xmlns="http://www.w3.org/2000/svg">
<g clip-path="url(#clip0_2439_925)">
<path fill-rule="evenodd" clip-rule="evenodd" d="M512 351.9L511 393.5C511 395.4 509.4 397 507.5 397L485.9 396.9L485.8 466.5C485.8 467.4 485.4 468.3 484.7 469C484.1 469.7 483.2 470 482.3 470H482.2L439.7 469.3C438.8 469.3 437.8 468.9 437.2 468.2C436.5 467.5 436.2 466.5 436.2 465.6L440 396.6L273.9 395.6C266.4 395.6 258.9 395.4 251.6 395.3C244.6 395.2 237.4 395.1 230.3 395.1L234 467.6C234.1 469.4 232.9 471 231.1 471.3C224.7 472.433 218.233 473.167 211.7 473.5C211.5 473.567 211.3 473.6 211.1 473.6C210.966 473.6 210.833 473.567 210.7 473.5C208.166 473.633 205.633 473.7 203.1 473.7C197.7 473.7 192.266 473.433 186.8 472.9C185 472.7 183.7 471.2 183.6 469.4L183.4 455.4L86.4996 457.6C86.033 457.667 85.5663 457.7 85.0996 457.7C84.6329 457.9 84.0996 458.033 83.4996 458.1C79.3996 458.1 75.1996 458.3 71.1996 458.4C67.1996 458.6 62.8996 458.8 58.6996 458.8C58.433 458.8 58.1663 458.8 57.8996 458.8C54.7996 458.8 50.6996 458.6 47.4996 455.8C43.7996 452.5 43.4996 447.4 43.2996 444.3L40.0996 392.8C35.0996 392.7 30.1996 391.6 26.0996 388.3C19.4996 383.1 17.6996 374.7 16.3996 366.5C14.3996 354 12.4996 341.3 10.6996 328.8C7.59962 306.5 4.79962 283.8 2.39962 261.4C2.19962 259.7 1.89962 257.6 1.49962 255.5C0.199621 247.9 -1.30038 239.3 2.09962 233C6.39962 224.9 16.1996 219 25.9996 218.6C36.0996 218.3 45.9996 223.8 51.1996 232.5C54.5996 238.3 55.6996 244.8 56.6996 250.6C59.4996 267.7 62.2996 284.8 64.8996 302C80.2996 258.2 112.5 220.1 153.5 198.3C156.9 196.5 160.7 194.7 164.9 194.3C165.1 193.6 165.4 192.9 166 192.4C171.6 187.5 176.3 181.4 179.7 174.8C176.5 174.5 173.5 173.7 170.6 172.3C161 167.4 158.7 157.6 156.7 148.9C156.433 147.5 156.133 146.133 155.8 144.8C152.2 130.9 151.6 118.7 153.9 107.5C157.1 91.6 167.1 78.2 179.9 71.9C179.433 71.5 179 71.0667 178.6 70.6C175.7 67.1 175.1 61.3 178.9 58C180.9 56.3 184.6 54.8 190.9 57.7H191C190.866 57.3667 190.766 57.0333 190.7 56.7C189.5 52.8 190.1 48.9 192.2 46.1C195 42.4 200.4 41.3 203.9 43.8C205.4 44.9 206.3 46.3 207 47.3L207.1 47.5C207.3 46.9667 207.533 46.4 207.8 45.8C209.6 41.7 213.9 37.7 219.3 38C223.5 38.2 227.5 41.2 229.5 45.7C230.3 47.5 230.8 49.5 231.1 51.3C233 50.8 235.3 50.3 238.1 49.7C242.5 48.8 247 48.4 251.4 48.4C257.4 48.5 261.6 50.1 266.1 51.9C267.1 52.3 268.166 52.7 269.3 53.1C272.4 54.2 275.5 54.9 278.8 55.7C282.8 56.6 286.9 57.5 290.9 59.1C298.9 62.4 305.7 66.7 311.3 71.9C321.2 81.1 326.7 93.8 326 105.8C325.5 116.2 320.2 125.6 312.4 131.3C315.7 145.8 314.1 161.5 307.7 175C307.366 175.667 307.033 176.367 306.7 177.1C305.1 180.4 303.6 183.4 303.5 186.5C303.3 189.9 305 193.4 306.7 197.1C307.5 198.8 308.3 200.5 308.9 202.3C309.5 203.7 311.1 207.9 309.1 211.6C306.9 216 301.5 217.1 297.1 216.2C295.8 216 294.6 215.6 293.5 215.3C291.8 214.8 290.2 214.3 288.8 214.3C285.2 214.3 282 217.3 280 219.8C279.1 220.9 278.2 222.1 277.3 223.4C275.4 225.9 273.4 228.6 270.8 230.9C266.6 234.6 260.9 236.6 255.3 236.6C254.3 236.6 253.333 236.567 252.4 236.5C245 235.5 238.7 231.1 233.6 227.6C231.533 226.2 229.5 224.767 227.5 223.3C227.366 223.367 227.266 223.433 227.2 223.5C218.1 228.1 210.1 235.4 204.7 244.1C209.7 255.1 214 266.5 217.6 278C217.666 278.267 217.733 278.567 217.8 278.9C244.1 290.3 273.8 294.3 302 289.2L303.6 289C310.1 287.8 317.5 286.4 324.3 289.2C326.4 290.1 328.5 291.4 330.3 293.1C330.9 293 331.5 293.1 332 293.4C335.1 294.9 339.6 294.2 344.1 291.5C346 290.4 347.8 289 349.6 287.6C349.733 287.533 349.866 287.433 350 287.3C341.5 280.7 333.9 272.8 327.6 264C325.5 260.9 323.4 257.6 322.7 253.7C321.9 248.6 324 243.7 327.9 241.4C331.3 239.4 335.9 239.6 339.8 241.8C343 243.6 345.2 246.3 347.2 248.6L372.7 278.8C378.3 279 383.9 280.6 388.7 283.7C397.8 289.7 403.3 300.5 402.6 311.4C402.3 315.5 400.5 319.7 398 323.6L419.7 320C420.2 319.9 420.8 320.1 421.2 320.4C421.7 320.8 422 321.3 422 321.8L422.9 332.8H431L428 217.6C428 216.7 428.4 215.8 429 215.1C429.7 214.4 430.6 214 431.6 214H472.4C473.4 214 474.3 214.4 475 215.1C475.6 215.7 476 216.7 476 217.6L475.6 232.7L503.1 233C504 233.1 504.9 233.5 505.6 234.2C506.3 234.9 506.6 235.8 506.5 236.7L501.8 333.5C504.5 334.4 507.1 335.8 509 338.3C512.2 342.6 512.1 348.2 512 351.9ZM475 257.4L498.5 256.5L499.3 240.1L475.4 239.8L475 257.4ZM473.8 310.4L495.9 309.4L498.3 260.6L474.9 261.4L473.8 310.4ZM473.3 332.5L491.2 332.3C492.2 332.3 493.5 332.3 494.9 332.4L495.8 313.5L473.7 314.5L473.3 332.5ZM435.3 221.1L435.8 238.5L468.5 237L468.9 221.1H435.3ZM466.6 319.3L468.2 253.4L436.2 255.5L437.8 320L466.3 319.3C466.366 319.3 466.4 319.3 466.4 319.3C466.466 319.3 466.533 319.3 466.6 319.3ZM466.4 323.3L437.9 324L438.2 332.7L466.3 332.5L466.5 323.3C466.5 323.3 466.466 323.3 466.4 323.3ZM468.3 249.3L468.5 241L435.9 242.5L436.1 251.4L468.3 249.3ZM394.5 328.4C393 330.1 391.4 331.7 389.7 333.1L419 332.9L418.3 324.4L394.5 328.4ZM334.3 260.9L342.5 253.8L342 253.3C340.3 251.3 338.6 249.2 336.5 248C334.8 247.1 332.8 246.9 331.7 247.6C330.3 248.3 329.6 250.5 329.9 252.6C330.3 255.2 332 257.8 333.6 259.9C333.8 260.3 334.033 260.633 334.3 260.9ZM346.9 259.1L345.1 256.9L336.8 264.2C337.4 265 338.033 265.8 338.7 266.6L346.9 259.1ZM344.2 272.6L352.3 265.5L349.5 262.2L341.4 269.6C342.333 270.6 343.266 271.6 344.2 272.6ZM356.3 283.2C356.833 282.867 357.366 282.567 357.9 282.3C360 281.2 362.2 280.4 364.4 279.8L354.9 268.6L347.1 275.4C350.033 278.133 353.1 280.733 356.3 283.2ZM336.5 301.3C337.1 302.5 337.6 303.767 338 305.1C340.1 311.4 340.4 317.9 340.6 324.2C340.7 326.7 340.8 330.1 340.1 333.5L377.2 333.2C377.266 333.133 377.366 333.1 377.5 333.1C387.4 328.2 395.3 317.4 395.7 311C396.2 302.8 391.9 294.2 385 289.7C378.1 285.2 368.5 284.7 361.2 288.6C358.7 289.8 356.5 291.5 354.1 293.3C352.2 294.8 350.1 296.3 347.9 297.6C344.1 300 340.2 301.2 336.5 301.3ZM306 295.8C311.3 309.8 313.1 325.3 311.2 340.2C314.866 339.867 318.433 339.5 321.9 339.1C325.7 338.6 329.2 338.1 331.3 336C333.7 333.4 333.7 328.9 333.6 324.5C333.3 318.7 333.1 312.7 331.3 307.3C329.5 301.7 326 297.6 321.8 295.8C317.2 293.9 311.5 294.8 306 295.8ZM293.2 297.7C297.6 311.7 298.6 326.9 296.2 341.4C299.933 341.2 303.566 340.933 307.1 340.6C309.1 325.8 307.3 310.4 302 296.5C299.066 296.967 296.133 297.367 293.2 297.7ZM306.1 134.9C305.5 135.1 304.866 135.3 304.2 135.5C297.7 137.5 291 137 284.6 136.5C283 136.433 281.433 136.333 279.9 136.2C270.8 135.8 264.6 137.4 260.7 141.1C256.8 145 255.6 151.3 254.7 156.8L254.5 158C253.5 164.4 252.4 171 248.5 176.6C245.2 181.1 239.6 184.3 234.1 184.3C231.5 184.3 229 183.6 226.8 182.1C220.7 177.9 219.9 169.9 221.1 164.4C221.8 160.8 223.3 157.5 224.6 154.4C225.4 152.6 226.1 151 226.7 149.3C227.8 146.4 229.2 141.1 226.8 137.3C225 134.4 220.9 132.7 217 133.4C213.2 134 209.4 136.4 206.4 140.2C202.9 144.7 200.5 151.8 203.1 157.5C204.6 160.7 206.7 162.9 208.8 163.3C210.1 163.7 211.5 163.3 212.9 162.1C214.4 160.9 216.6 161.2 217.8 162.7C219 164.3 218.8 166.5 217.3 167.7C213.3 170.8 209.6 170.8 207.2 170.2C205.1 169.7 203.1 168.6 201.3 167C198.5 169.6 195.2 171.6 191.8 173C194.9 182.2 200.9 191.2 209.6 199.8C218.1 208.1 228.1 215.1 237.8 221.8C242.5 225.1 247.8 228.8 253.5 229.5C258.1 230.1 262.9 228.6 266.4 225.6C268.4 223.9 270 221.6 271.7 219.3C272.7 218 273.7 216.6 274.7 215.3C279.1 210.1 284 207.3 289 207.3C291.5 207.3 293.7 208 295.7 208.6C296.8 208.9 297.7 209.2 298.7 209.4C300.6 209.7 302.6 209.3 303 208.5C303.3 208 303.4 207 302.5 204.9C302 203.3 301.2 201.8 300.5 200.2C298.5 195.9 296.4 191.5 296.6 186.3C296.8 181.7 298.8 177.7 300.5 174.1C300.9 173.367 301.233 172.667 301.5 172C306.9 160.6 308.5 147.3 306.1 134.9ZM197.1 161.2C196.966 161 196.833 160.767 196.7 160.5C193.3 153.1 194.9 143.4 200.9 135.8C205 130.6 210.3 127.3 215.8 126.4C216.8 126.2 217.766 126.1 218.7 126.1C224.6 126.1 230 128.9 232.8 133.6C236.5 139.6 235.2 146.7 233.4 151.7C232.7 153.6 231.9 155.4 231.1 157.2C229.8 160.2 228.6 162.9 228 165.8C227.2 169.5 227.8 174.2 230.8 176.2C234.3 178.7 240 176.2 242.7 172.4C245.7 168.2 246.6 162.7 247.5 156.9L247.7 155.7C248.8 148.5 250.6 141.2 255.8 136.1C261.1 130.9 269.1 128.6 280.2 129.2C281.866 129.267 283.5 129.367 285.1 129.5C291.2 129.9 296.9 130.4 302.2 128.8C303.333 128.4 304.466 127.933 305.6 127.4C306.1 126.7 306.7 126.2 307.5 126C307.633 125.933 307.8 125.9 308 125.9C314.3 121.6 318.7 113.8 319.2 105.5C319.7 95.6 315 85 306.7 77.1C301.7 72.5 295.6 68.7 288.4 65.8C284.9 64.3 281.3 63.5 277.5 62.6C274.1 61.9 270.6 61.1 267.1 59.8C265.966 59.4 264.866 58.9667 263.8 58.5C259.5 56.9 256.2 55.6 251.5 55.6C247.6 55.5 243.6 55.9 239.8 56.7C236.9 57.3 232.2 58.5 230.7 59.1C230.1 59.7 229.3 60.1 228.4 60.1C226.4 60.2 224.7 58.7 224.6 56.8C224.5 54 224.3 51 223.2 48.7C222.4 46.7 220.7 45.2 219.1 45.1C217.2 45.1 215.3 46.9 214.5 48.8C213.3 51.4 213.2 54.6 213.2 57.7C213.1 59.3 212.1 60.6 210.6 61C209.1 61.4 207.5 60.9 206.7 59.6L201.2 51.2C200.9 50.6 200.4 49.9 200.1 49.7C199.7 49.4 198.6 49.7 198 50.4C197.3 51.4 197.2 53.1 197.7 54.8C198.2 56.8 199.6 58.8 200.8 60.7C201.4 61.6 201.6 62.7 201.3 63.7C201 64.7 200.2 65.6 199.2 65.9C195.2 67.5 191.3 65.7 188.5 64.3L188.1 64.2C185.8 63.1 184.2 63 183.7 63.4C183.3 63.8 183.4 65.2 184.2 66.1C185.5 67.6 187.8 68.5 189.9 69.3C191.4 69.8 192.3 71.2 192.2 72.8C192.1 74.3 191 75.6 189.5 76C173.7 79.8 163.8 95.3 161 109C158.9 119.1 159.5 130.3 162.8 143.1C163.133 144.5 163.466 145.933 163.8 147.4C165.6 155.2 167.3 162.6 174 166C181.3 169.7 190.6 167.7 197.1 161.2ZM173.3 195.5C179.1 198 183.2 203.6 186.5 209C191.966 217.933 196.966 227.133 201.5 236.6C206.7 229.4 213.6 223.2 221.3 218.8C215.5 214.5 209.8 209.9 204.6 204.8C196 196.3 189.8 187.4 186.1 178.1C182.8 184.5 178.5 190.5 173.3 195.5ZM53.0996 384.1C58.4996 382.9 63.9996 381.4 66.1996 377.4C67.8996 374.5 67.4996 370.6 66.9996 366.1C64.9996 350.7 62.7996 335.2 60.5996 319.7C60.3996 319.167 60.2996 318.633 60.2996 318.1C57.0996 296 53.5996 273.8 49.8996 251.9C48.9996 246.7 47.9996 240.8 45.2996 236.2C41.5996 229.9 34.2996 225.8 26.9996 225.8C26.7996 225.8 26.5996 225.8 26.3996 225.8C21.9996 225.9 19.5996 227.7 16.0996 229.8C13.0996 231.6 10.1996 233.1 8.49962 236.4C6.29962 240.6 7.59962 248.2 8.69962 254.3C9.09962 256.6 9.39962 258.8 9.69962 260.7C11.9996 283 14.7996 305.7 17.8996 327.9C19.6996 340.4 21.5996 353 23.4996 365.5C24.5996 372.2 26.0996 379.2 30.6996 382.8C33.7996 385.4 37.5996 386.1 41.4996 386C45.3996 385.8 49.4996 384.9 53.0996 384.1ZM64.3996 451.7C64.0663 451.433 63.7663 451.133 63.4996 450.8C59.5996 446.2 58.8996 440.2 58.3996 434.9C57.2996 420.1 56.3996 405 57.6996 390.2C56.633 390.533 55.5996 390.8 54.5996 391C52.1996 391.5 49.7996 392 47.3996 392.4C47.6996 398.6 48.3996 404.7 48.9996 410.9C49.3996 415.5 49.0996 420 49.3996 424.7C49.7996 431.1 50.1996 437.5 50.5996 443.9C50.6996 446.6 50.9996 449.4 52.3996 450.6C53.6996 451.8 56.1996 451.9 58.7996 451.8C60.6663 451.8 62.533 451.767 64.3996 451.7ZM125.6 404.5C124.6 398.5 123.6 392.3 123 386.2C120.5 358.7 128.3 330.2 144.3 307.8C141.4 304.6 138.8 301.1 136.7 297.3C135.7 295.6 136.3 293.5 138 292.5C139.7 291.6 141.9 292.1 142.8 293.9C156.9 318.7 191.1 327.3 221.3 334.9C223.366 335.367 225.366 335.867 227.3 336.4C228.233 336.6 229.166 336.833 230.1 337.1C230.233 337.1 230.366 337.1 230.5 337.1C231.2 337.1 231.7 337.2 232.2 337.5C252.4 342 273.1 342.6 292.1 341.6C294.6 327.2 293.6 312 289.1 298.1C243 301.7 195.1 283.3 163.8 249.3C162.5 247.8 162.6 245.6 164 244.3C165.5 243 167.7 243 169 244.5C180.5 256.9 194.2 267.2 209.3 274.9C202.1 253.1 192.4 232.2 180.4 212.7C177.3 207.5 173.4 202.1 168.2 201.4C164.5 200.9 160.5 202.8 157 204.7C113.3 227.9 79.8996 270.4 67.4996 318.4C69.7996 334 71.9996 349.6 73.9996 365.2C74.4996 369.6 75.2996 375.7 72.3996 380.9C70.6996 384 68.0996 386.1 65.0996 387.6C63.2996 403.4 64.1996 418.1 65.4996 434.3C65.7996 438.7 66.3996 443.3 68.8996 446.2C72.5996 450.6 79.9996 450.8 86.4996 450.6L125.6 449.7C125.6 449.5 125.633 449.3 125.7 449.1C130.7 435.1 128.2 420.2 125.6 404.5ZM183.5 448.4L182.6 395.7C170.9 395.4 159.3 394.5 147.8 392.8C146 392.6 144.7 391 144.8 389.1L147.2 340.3C147.3 338.4 148.8 336.9 150.7 336.9H150.8C164.8 337.1 177.9 337 190.6 337C194.133 337 197.7 336.967 201.3 336.9C181.5 331.4 161.2 324 147.2 310.7C132 332.3 124.6 359.5 127 385.8C127.6 391.8 128.6 397.9 129.6 403.9C132.2 419.1 134.8 434.8 129.7 449.6L183.5 448.4ZM224.8 422.9C224.3 417 224.5 411.3 224.4 405.5C224.4 403 225.6 396.7 222.7 395.3C221.8 394.8 220.7 395.2 219.8 395.4C209.8 398.5 199.8 395.7 189.7 395.8C190.1 419.5 190.4 443.2 190.2 467C200.733 466.933 211.3 466.9 221.9 466.9C223.3 466.833 224.7 466.8 226.1 466.8C226.5 451.9 225.9 437.7 224.8 422.9ZM479.1 396.9C474.7 396.8 470.7 398.2 466.2 397.9C459.9 397.5 453.6 396.8 447.3 396.7C447.4 396.7 443.3 457.2 443.9 462.5C443.8 462 475.3 463 479 463C479 454.533 479 446.067 479 437.6C479.066 430.867 479.1 424.1 479.1 417.3C479.1 410.5 479.1 403.7 479.1 396.9ZM506.9 351.8C506.8 348.6 506.2 345.5 504 343.3C500.4 339.4 495 340.1 490.2 339.9C484.6 339.633 478.933 339.533 473.2 339.6C460.533 339.667 447.833 339.733 435.1 339.8C410 339.9 384.8 340 359.7 340.1C353.1 340.2 346.6 340.2 340.1 341.1C326 342.9 312.5 348.7 298.2 349C283.9 349.4 269.1 349.3 254.8 347.7C244.2 346.5 233.6 344.4 222.9 343.5C212.9 342.7 203.3 344.8 193.4 344.5C180.4 344.1 167.2 344.2 154.1 344.1C153.433 358.167 152.733 372.233 152 386.3C170.7 388.8 189.1 388.4 207.8 388.6C226.7 388.9 245.7 388.2 264.7 387.9C307.3 387.2 349.8 389.5 392.3 389.5C426.5 389.5 460.8 389.8 495 390C498.1 390 501.2 390 504.3 390C504.6 379 505.6 368 506.6 356.9C506.8 355.3 506.9 353.5 506.9 351.8Z" fill="black" stroke="black" stroke-width="6" stroke-miterlimit="100"/>
<circle cx="413" cy="311" r="100" fill="#8CBEE9" fill-opacity="0.5"/>
<circle cx="413" cy="311" r="100" stroke="#8CBEE9"/>
</g>
<defs>
<clipPath id="clip0_2439_925">
<rect width="513" height="512" fill="white"/>
</clipPath>
</defs>
</svg>
