<svg width="600" height="600" viewBox="0 0 600 600" fill="none" xmlns="http://www.w3.org/2000/svg">
<g clip-path="url(#clip0_2247_1999)">
<path d="M596.439 396.483C594.205 393.535 591.202 391.818 588.062 390.807L593.61 277.437C593.665 276.315 593.262 275.217 592.489 274.397C591.719 273.578 590.648 273.106 589.527 273.093L557.341 272.69L557.763 255.006C557.79 253.889 557.364 252.809 556.586 252.013C555.808 251.216 554.737 250.763 553.624 250.763H553.62L505.738 250.804C504.621 250.809 503.554 251.257 502.776 252.058C501.998 252.86 501.572 253.94 501.604 255.052L505.033 389.941L495.571 390.015L494.545 377.152C494.49 376.488 494.165 375.879 493.644 375.472C493.122 375.064 492.449 374.89 491.799 375.005L466.352 379.239C469.387 374.689 471.479 369.772 471.781 364.938C472.582 352.185 466.178 339.441 455.471 332.478C449.895 328.848 443.363 326.939 436.785 326.756L406.865 291.348C404.54 288.597 401.908 285.48 398.241 283.383C393.59 280.728 388.221 280.531 384.224 282.88C379.674 285.548 377.257 291.325 378.209 297.249C378.946 301.854 381.395 305.782 383.931 309.343C391.324 319.711 400.145 328.894 410.161 336.713C410.024 336.813 409.882 336.919 409.745 337.024C407.529 338.695 405.437 340.274 403.231 341.611C397.966 344.792 392.684 345.63 389.104 343.854C388.445 343.524 387.74 343.41 387.053 343.446C384.925 341.515 382.554 339.972 380.008 338.924C372.03 335.628 363.392 337.216 355.774 338.617L353.925 338.956C320.888 344.893 286.098 340.196 255.176 326.788C255.158 326.463 255.108 326.138 255.007 325.818C250.763 312.268 245.719 298.975 239.933 286.02C246.254 275.826 255.542 267.279 266.236 261.873C266.346 261.813 266.442 261.736 266.547 261.671C268.941 263.365 271.335 265.036 273.716 266.693C279.694 270.85 287.137 276.027 295.826 277.116C296.929 277.254 298.032 277.322 299.14 277.322C305.764 277.322 312.397 274.896 317.4 270.557C320.444 267.911 322.719 264.78 324.921 261.754C326.001 260.266 327.022 258.865 328.116 257.538C330.524 254.613 334.273 251.129 338.453 251.12H338.466C340.128 251.12 341.964 251.674 343.914 252.26C345.273 252.672 346.679 253.098 348.189 253.395C353.28 254.393 359.601 253.12 362.229 248.021C364.518 243.585 362.65 238.66 362.037 237.039C361.254 234.966 360.315 232.961 359.404 231.024C357.381 226.689 355.463 222.597 355.623 218.536C355.761 214.948 357.523 211.368 359.391 207.587C359.812 206.731 360.233 205.879 360.636 205.023C368.065 189.281 370.006 170.819 366.106 153.836C375.243 147.24 381.418 136.13 382.064 123.967C382.81 109.918 376.355 95.073 364.797 84.256C358.278 78.154 350.231 73.1278 340.87 69.31C336.182 67.3966 331.394 66.3071 326.77 65.2497C322.866 64.357 319.176 63.5148 315.624 62.2284C314.301 61.7478 313.051 61.2626 311.843 60.7956C306.583 58.7632 301.616 56.8451 294.617 56.7627C289.421 56.6895 284.171 57.2022 279.058 58.2459C275.762 58.9234 273.011 59.5276 270.768 60.1502C270.447 57.9575 269.912 55.719 268.937 53.5538C266.593 48.3353 261.887 44.8014 256.952 44.5496C250.672 44.2063 245.668 48.9029 243.522 53.6866C243.224 54.3503 242.968 55.0232 242.743 55.6961L242.551 55.3986C241.777 54.2084 240.72 52.5742 239.003 51.3703C234.801 48.4223 228.484 49.6445 225.211 54.0299C222.785 57.2754 222.116 61.9126 223.43 66.4307C223.554 66.8518 223.687 67.2638 223.833 67.6667L223.728 67.6163C216.362 64.1785 211.991 65.9226 209.62 67.9917C205.243 71.814 205.916 78.6805 209.285 82.6996C209.761 83.2627 210.27 83.7799 210.801 84.2469C195.859 91.594 184.108 107.304 180.314 125.972C177.64 139.096 178.368 153.397 182.534 169.679C182.941 171.272 183.312 172.907 183.687 174.541C186.008 184.657 188.636 196.124 199.956 201.869C203.28 203.554 206.868 204.501 210.53 204.785C206.557 212.59 201.091 219.681 194.527 225.467C193.859 226.057 193.424 226.827 193.236 227.65C188.361 228.168 183.866 230.328 179.906 232.434C131.85 257.973 94.0571 302.531 76.0441 353.888C72.9954 333.756 69.7773 313.655 66.3899 293.706C65.2409 286.917 63.9317 279.222 59.9446 272.452C53.9112 262.207 42.3115 255.826 30.4463 256.229C19.0342 256.599 7.5123 263.507 2.42197 273.019C-1.556 280.454 0.210973 290.501 1.76737 299.368C2.21598 301.9 2.63254 304.294 2.84769 306.294C5.62632 332.565 8.89933 359.171 12.566 385.364C14.6168 399.994 16.8369 414.839 19.1715 429.488C20.6959 439.055 22.8291 448.911 30.5607 455.04C35.4222 458.894 41.1167 460.236 47.0036 460.309L50.7755 520.674C50.9999 524.286 51.3798 530.328 55.7102 534.178C59.4044 537.46 64.2658 537.708 67.8181 537.708C68.1477 537.708 68.4681 537.708 68.7748 537.703C73.7599 537.671 78.6946 537.451 83.4644 537.241C88.1703 537.03 93.0317 536.815 97.8703 536.783C98.534 536.778 99.1474 536.604 99.7013 536.325C100.287 536.316 100.841 536.302 101.363 536.293L214.925 533.665L215.209 550.113C215.245 552.21 216.843 553.949 218.93 554.164C225.293 554.814 231.675 555.139 238.056 555.139C240.999 555.139 243.947 555.061 246.886 554.924C247.046 554.961 247.211 554.979 247.376 554.979C247.614 554.979 247.852 554.929 248.085 554.86C255.703 554.453 263.297 553.592 270.827 552.26C272.887 551.898 274.352 550.058 274.242 547.971L269.848 462.955C278.238 463.01 286.597 463.138 294.841 463.271C303.402 463.408 312.246 463.55 320.948 463.6L515.607 464.749L511.217 545.613C511.153 546.735 511.556 547.833 512.32 548.662C513.089 549.486 514.161 549.957 515.282 549.98L565.068 550.804H565.137C566.217 550.804 567.261 550.378 568.035 549.619C568.827 548.845 569.275 547.783 569.28 546.671L569.449 465.065L594.718 465.216H594.741C596.993 465.216 598.833 463.417 598.883 461.165L599.968 412.335C600.065 408.005 600.206 401.468 596.439 396.483ZM557.145 280.975L585.128 281.323L584.18 300.641L556.65 301.611L557.145 280.975ZM556.54 306.354L583.951 305.388L581.15 362.622L555.167 363.721L556.54 306.354ZM555.053 368.463L580.916 367.369L579.836 389.447C578.215 389.369 576.723 389.378 575.483 389.388L554.549 389.552L555.053 368.463ZM549.381 259.053L548.937 277.657L510.508 279.387L509.995 259.085L549.381 259.053ZM546.387 374.144C546.364 374.144 546.346 374.144 546.328 374.149L512.938 374.973L511.016 299.382L548.479 296.896L546.634 374.171C546.552 374.162 546.47 374.144 546.387 374.144ZM546.52 378.868L546.264 389.616L513.318 389.873L513.062 379.701L546.442 378.877C546.47 378.877 546.492 378.873 546.52 378.868ZM510.897 294.644L510.627 284.12L548.822 282.399L548.589 292.145L510.897 294.644ZM490.032 380.095L490.828 390.051L456.492 390.317C458.437 388.618 460.337 386.746 462.104 384.741L490.032 380.095ZM390.679 304.532C388.862 301.982 386.879 299.002 386.39 295.935C385.996 293.472 386.866 290.932 388.417 290.021C389.818 289.197 392.112 289.421 394.135 290.575C396.529 291.943 398.566 294.356 400.539 296.69L401.12 297.377L391.553 305.704C391.265 305.31 390.963 304.93 390.679 304.532ZM396.717 312.323C395.934 311.394 395.179 310.437 394.423 309.48L404.174 300.993L406.33 303.543L396.717 312.323ZM399.834 315.884L409.383 307.159L412.642 311.018L403.089 319.331C401.986 318.201 400.896 317.056 399.834 315.884ZM406.485 322.655L415.7 314.635L426.851 327.832C424.205 328.496 421.624 329.439 419.184 330.711C418.547 331.041 417.943 331.403 417.334 331.76C413.54 328.926 409.914 325.891 406.485 322.655ZM407.52 348.702C410.093 347.141 412.459 345.36 414.743 343.629C417.527 341.528 420.159 339.542 423.006 338.059C431.603 333.591 442.832 334.131 450.953 339.418C459.073 344.701 464.122 354.749 463.518 364.417C463.047 371.924 453.8 384.549 442.127 390.212C441.999 390.276 441.889 390.358 441.765 390.431L398.305 390.77C399.189 386.801 399.042 382.787 398.937 379.875C398.658 372.487 398.374 364.847 395.884 357.404C395.375 355.884 394.78 354.428 394.107 353.041C398.392 352.895 402.993 351.434 407.52 348.702ZM376.85 346.577C381.775 348.61 385.849 353.513 388.028 360.031C390.139 366.344 390.4 373.38 390.656 380.186C390.848 385.368 390.798 390.674 387.969 393.608C385.598 396.071 381.418 396.735 376.987 397.252C372.954 397.723 368.766 398.181 364.449 398.607C366.683 381.171 364.573 362.988 358.374 346.559C364.838 345.383 371.434 344.344 376.85 346.577ZM353.623 347.392C359.926 363.652 362.023 381.766 359.62 399.056C355.486 399.422 351.247 399.742 346.917 400.008C349.723 383.048 348.51 365.204 343.406 348.802C346.825 348.436 350.231 347.965 353.623 347.392ZM353.147 201.489C352.762 202.3 352.364 203.11 351.966 203.92C349.897 208.113 347.557 212.86 347.347 218.211C347.113 224.286 349.549 229.495 351.906 234.531C352.785 236.412 353.618 238.188 354.296 239.973C355.262 242.528 355.143 243.695 354.868 244.226C354.342 245.242 352.057 245.709 349.782 245.261C348.679 245.046 347.53 244.698 346.312 244.331C343.987 243.626 341.355 242.835 338.471 242.835H338.434C332.579 242.848 326.802 246.108 321.726 252.269C320.472 253.789 319.332 255.359 318.224 256.879C316.205 259.653 314.301 262.276 311.971 264.299C307.883 267.851 302.239 269.563 296.86 268.895C290.195 268.057 283.956 263.718 278.449 259.891C267.069 251.976 255.304 243.791 245.371 234.018C235.199 224.011 228.191 213.464 224.497 202.634C228.516 201.064 232.334 198.702 235.662 195.566C237.745 197.498 240.093 198.816 242.556 199.397C245.385 200.066 249.733 200.093 254.366 196.422C256.16 195.003 256.458 192.398 255.039 190.604C253.615 188.814 251.011 188.512 249.221 189.931C247.568 191.245 246.007 191.707 244.46 191.336C242.025 190.764 239.544 188.21 237.813 184.515C234.682 177.805 237.502 169.469 241.69 164.182C245.202 159.75 249.578 156.917 254.009 156.198C258.619 155.457 263.485 157.384 265.581 160.794C268.309 165.234 266.684 171.529 265.476 174.884C264.766 176.848 263.919 178.775 263.022 180.808C261.397 184.493 259.722 188.306 258.843 192.513C257.474 199.045 258.417 208.397 265.554 213.281C268.177 215.076 271.116 215.863 274.082 215.863C280.545 215.863 287.142 212.109 290.923 206.809C295.578 200.267 296.801 192.54 297.977 185.069L298.206 183.641C299.245 177.164 300.737 169.867 305.333 165.312C309.792 160.899 317.125 159.018 327.736 159.544C329.567 159.641 331.412 159.778 333.252 159.915C340.796 160.478 348.587 161.06 356.237 158.757C357.006 158.524 357.761 158.249 358.507 157.961C361.332 172.517 359.464 188.104 353.147 201.489ZM203.705 194.476C195.845 190.494 193.863 181.847 191.767 172.691C191.378 170.984 190.984 169.286 190.558 167.624C186.713 152.582 186.017 139.494 188.43 127.625C191.694 111.607 203.298 93.4479 221.878 88.9847C223.65 88.5544 224.932 87.0209 225.042 85.2036C225.151 83.3863 224.057 81.7063 222.35 81.0746C219.892 80.159 217.104 79.1245 215.635 77.3713C214.728 76.2909 214.623 74.6247 215.072 74.231C215.616 73.7549 217.461 73.8282 220.226 75.1191L220.638 75.3159C223.957 76.8723 228.502 79.0009 233.185 77.1973C234.357 76.7441 235.263 75.7782 235.643 74.5789C236.023 73.3796 235.836 72.0704 235.135 71.0267C233.629 68.7836 232.073 66.4627 231.391 64.119C230.809 62.114 230.983 60.1456 231.853 58.9829C232.489 58.1315 233.817 57.8476 234.256 58.1498C234.65 58.429 235.181 59.2484 235.607 59.903L241.947 69.6991C242.936 71.2235 244.803 71.9239 246.556 71.4295C248.305 70.9351 249.527 69.3558 249.564 67.5339C249.646 63.8855 249.729 60.109 251.088 57.074C252.077 54.8722 254.274 52.739 256.531 52.8214C258.344 52.9129 260.34 54.6112 261.388 56.9458C262.629 59.7062 262.825 63.1485 263.013 66.4719V66.4765V66.4811C263.146 68.7607 265.068 70.5048 267.385 70.3812C268.447 70.3217 269.394 69.8639 270.09 69.1636C271.921 68.422 277.433 67.035 280.729 66.3575C285.26 65.4282 289.907 64.9659 294.53 65.0437C300.032 65.1078 303.928 66.6138 308.858 68.5181C310.122 69.0079 311.426 69.5115 312.809 70.0104C316.842 71.4753 320.952 72.4137 324.93 73.32C329.435 74.3454 333.683 75.3205 337.748 76.9776C346.17 80.4108 353.367 84.8923 359.143 90.2985C368.94 99.4675 374.419 111.887 373.801 123.523C373.284 133.273 368.084 142.365 360.677 147.478C360.498 147.501 360.325 147.519 360.151 147.569C359.198 147.83 358.439 148.416 357.908 149.162C356.603 149.835 355.248 150.398 353.852 150.819C347.672 152.678 340.966 152.179 333.87 151.648C331.961 151.506 330.053 151.364 328.157 151.268C315.07 150.604 305.709 153.278 299.501 159.421C293.436 165.436 291.362 173.982 290.026 182.327L289.797 183.774C288.721 190.599 287.705 197.044 284.176 201.993C281.017 206.433 274.379 209.276 270.227 206.438C266.703 204.025 266.043 198.555 266.95 194.206C267.655 190.846 269.088 187.592 270.603 184.145C271.518 182.071 272.466 179.919 273.267 177.69C275.364 171.881 276.957 163.477 272.635 156.455C269.289 151.007 262.922 147.743 256.105 147.743C254.975 147.743 253.83 147.83 252.686 148.018C246.209 149.066 239.997 152.98 235.199 159.032C228.159 167.921 226.241 179.297 230.315 188.017C230.439 188.292 230.571 188.562 230.709 188.828C223.178 196.454 212.197 198.779 203.705 194.476ZM217.878 208.598C222.208 219.489 229.473 229.999 239.562 239.923C245.659 245.924 252.32 251.276 259.127 256.311C250.058 261.53 242.034 268.753 235.868 277.231C230.562 266.144 224.703 255.318 218.303 244.817C214.444 238.49 209.656 231.935 202.831 229.047C208.91 223.123 214.019 216.161 217.878 208.598ZM48.4089 452.206C43.8587 452.335 39.423 451.497 35.706 448.549C30.3089 444.269 28.6198 436.144 27.3518 428.183C25.0263 413.585 22.8108 398.79 20.7691 384.215C17.1162 358.113 13.8569 331.604 11.0829 305.425C10.8402 303.14 10.4008 300.613 9.92929 297.936C8.66587 290.762 7.10032 281.836 9.72788 276.924C11.7695 273.102 15.0791 271.298 18.6451 269.156C22.7284 266.698 25.5802 264.674 30.7209 264.505C30.9635 264.496 31.2062 264.491 31.4533 264.491C39.9723 264.491 48.4867 269.312 52.808 276.654C56.0215 282.106 57.1934 289.005 58.2279 295.088C62.5904 320.792 66.6783 346.742 70.4777 372.697C70.4228 373.343 70.5235 373.975 70.7478 374.551C73.3982 392.715 75.9068 410.88 78.2459 428.961C78.9189 434.166 79.3171 438.757 77.4037 442.177C74.8036 446.828 68.3491 448.599 61.9587 450.014C57.7473 450.948 53.0186 452.074 48.4089 452.206ZM68.7153 529.422C65.6391 529.44 62.7461 529.344 61.2126 527.989C59.5692 526.524 59.2396 523.32 59.0428 520.157C58.5667 512.627 58.0998 505.096 57.6283 497.566C57.2895 492.11 57.7107 486.882 57.1888 481.439C56.4884 474.202 55.7194 466.965 55.2616 459.705C58.1364 459.293 60.9928 458.716 63.7486 458.102C64.9433 457.837 66.1564 457.553 67.3741 457.237C65.8268 474.564 66.8888 492.224 68.2484 509.528C68.7382 515.758 69.6446 522.853 74.2268 528.214C74.5426 528.589 74.8814 528.937 75.2247 529.276C73.0595 529.353 70.8897 529.404 68.7153 529.422ZM147.034 526.227C146.947 526.465 146.915 526.712 146.906 526.95L101.171 528.008C93.4849 528.195 84.8927 527.948 80.5256 522.835C77.5593 519.365 76.9138 514.037 76.511 508.878C75.0187 489.876 73.9613 472.591 76.0121 454.129C79.5185 452.348 82.5901 449.881 84.6317 446.223C88.0421 440.135 87.1266 433.063 86.4582 427.899C84.1007 409.653 81.5647 391.319 78.8914 372.99C93.375 316.754 132.518 267 183.797 239.745C187.876 237.579 192.591 235.313 196.889 235.918C202.945 236.76 207.537 243.073 211.231 249.129C225.206 272.058 236.573 296.553 245.073 322.028C227.376 312.991 211.24 300.998 197.837 286.418C196.285 284.734 193.666 284.628 191.982 286.176C190.302 287.723 190.192 290.341 191.739 292.026C228.424 331.915 284.565 353.412 338.581 349.251C343.831 365.552 345.044 383.4 342.073 400.278C319.822 401.363 295.523 400.658 271.898 395.448C271.312 395.123 270.653 394.913 269.934 394.904C269.774 394.904 269.619 394.904 269.458 394.899C268.364 394.643 267.266 394.377 266.172 394.103C263.86 393.517 261.507 392.926 259.122 392.331C223.737 383.478 183.628 373.448 167.157 344.27C166.031 342.275 163.504 341.579 161.513 342.7C159.522 343.822 158.817 346.349 159.943 348.34C162.47 352.821 165.505 356.873 168.924 360.58C150.083 386.902 140.978 420.264 143.921 452.504C144.576 459.645 145.794 466.924 146.975 473.969C150.06 492.375 152.976 509.766 147.034 526.227ZM151.809 526.84C157.705 509.496 154.638 491.043 151.644 473.186C150.476 466.228 149.273 459.036 148.636 452.069C145.821 421.225 154.422 389.31 172.289 364.009C188.686 379.601 212.513 388.33 235.625 394.775C231.418 394.785 227.257 394.798 223.142 394.817C208.251 394.872 192.852 394.931 176.432 394.725H176.381C174.175 394.725 172.353 396.46 172.243 398.666L169.419 455.933C169.318 458.07 170.852 459.934 172.971 460.236C186.434 462.172 200.071 463.275 213.721 463.568L214.783 525.38L151.809 526.84ZM264.689 546.936C263.036 546.941 261.383 546.945 259.731 546.95C247.348 546.996 234.97 547.037 222.588 547.083C222.803 519.255 222.478 491.487 222.002 463.651C233.858 463.618 245.604 466.892 257.25 463.275C258.358 462.932 259.589 462.543 260.637 463.046C264.057 464.685 262.688 472.174 262.711 475.012C262.766 481.847 262.574 488.571 263.082 495.41C264.377 512.833 265.16 529.486 264.689 546.936ZM561.118 488.873C561.104 496.834 561.086 504.781 561.068 512.727C561.045 522.633 561.022 532.535 561.004 542.45C556.664 542.381 519.814 541.246 519.887 541.837C519.141 535.588 523.984 464.795 523.906 464.795C531.308 464.841 538.656 465.646 546.035 466.109C551.276 466.443 555.941 464.891 561.168 465.019C561.145 472.952 561.136 480.927 561.118 488.873ZM593.399 418.135C592.209 431.094 590.973 443.944 590.69 456.908C587.055 456.908 583.411 456.862 579.772 456.844C539.653 456.606 499.544 456.262 459.462 456.262C409.589 456.262 359.775 453.593 309.852 454.431C287.632 454.802 265.412 455.576 243.187 455.264C221.315 454.962 199.7 455.429 177.878 452.554C178.693 436.052 179.508 419.554 180.323 403.056C195.662 403.207 211.048 403.079 226.383 403.56C237.96 403.922 249.221 401.491 260.958 402.443C273.496 403.464 285.855 405.922 298.343 407.332C315.02 409.218 332.433 409.268 349.105 408.865C365.896 408.463 381.693 401.729 398.223 399.541C405.826 398.534 413.526 398.492 421.198 398.451C450.664 398.3 480.135 398.199 509.606 398.062C524.497 397.993 539.388 397.92 554.279 397.824C560.953 397.778 567.604 397.879 574.201 398.186C579.822 398.447 586.094 397.559 590.365 402.141C592.846 404.796 593.601 408.385 593.683 412.102C593.734 414.121 593.583 416.171 593.399 418.135Z" fill="black"/>
<path d="M256.155 165.01C253.665 162.465 249.857 161.655 246.899 163.051C245.718 163.609 245.21 165.019 245.769 166.2C246.327 167.386 247.737 167.889 248.918 167.336C250.044 166.805 251.701 167.226 252.768 168.315C253.862 169.437 254.503 171.204 254.567 173.287C254.594 174.12 254.535 174.976 254.42 175.841C253.175 175.246 251.784 174.948 250.383 175.031C247.325 175.191 244.519 177.091 243.228 179.865C242.679 181.05 243.192 182.456 244.377 183.005C244.702 183.156 245.041 183.229 245.375 183.229C246.268 183.229 247.119 182.721 247.522 181.856C248.067 180.689 249.344 179.823 250.635 179.755C251.953 179.668 253.29 180.409 253.954 181.513C254.453 182.341 255.4 182.781 256.366 182.629C257.323 182.469 258.083 181.746 258.293 180.798C258.829 178.354 259.383 175.827 259.3 173.135C259.195 169.867 258.078 166.979 256.155 165.01Z" fill="black"/>
<path d="M432.779 344.192C434.17 343.771 435.8 344.009 437.022 344.797C438.245 345.589 439.123 346.98 439.32 348.422C439.476 349.612 440.492 350.478 441.659 350.478C441.765 350.478 441.87 350.468 441.975 350.455C443.271 350.281 444.186 349.091 444.012 347.795C443.632 344.98 441.984 342.371 439.595 340.823C437.205 339.276 434.152 338.841 431.424 339.656C430.174 340.027 429.46 341.345 429.835 342.599C430.206 343.854 431.525 344.559 432.779 344.192Z" fill="black"/>
<path d="M446.786 358.282C449.066 358.768 450.837 361.308 450.499 363.615C450.311 364.906 451.208 366.11 452.499 366.298C452.618 366.316 452.732 366.321 452.847 366.321C454 366.321 455.012 365.474 455.186 364.297C455.877 359.528 452.485 354.652 447.775 353.65C446.493 353.38 445.239 354.195 444.964 355.472C444.69 356.753 445.509 358.008 446.786 358.282Z" fill="black"/>
<circle cx="490" cy="350" r="100" fill="#8CBEE9" fill-opacity="0.5"/>
<circle cx="490" cy="350" r="100" stroke="#8CBEE9"/>
</g>
<defs>
<clipPath id="clip0_2247_1999">
<rect width="600" height="600" fill="white"/>
</clipPath>
</defs>
</svg>
