<svg width="60" height="60" viewBox="0 0 60 60" fill="none" xmlns="http://www.w3.org/2000/svg">
<path d="M0 30C0 5.295 5.295 0 30 0C54.705 0 60 5.295 60 30C60 54.705 54.705 60 30 60C5.295 60 0 54.705 0 30Z" fill="#F1F1F1"/>
<path d="M29.9938 42.4872L19.0323 36.5193V27.5118L13.5034 24.5L29.9938 15.4926L46.5387 24.5V36.3782H44.4062V25.703L40.9553 27.5118V36.5193L29.9938 42.4872ZM29.9938 31.0812L42.0643 24.5L29.9938 17.9733L17.9778 24.5L29.9938 31.0812ZM29.9938 40.0503L38.8229 35.2516V28.7222L29.9938 33.4702L21.1647 28.6881V35.2516L29.9938 40.0503Z" fill="#171616"/>
</svg>
