<svg width="51" height="50" viewBox="0 0 51 50" fill="none" xmlns="http://www.w3.org/2000/svg">
<path d="M0.666016 20C0.666016 7 7.66602 0 20.666 0H30.666C43.666 0 50.666 7 50.666 20V30C50.666 43 43.666 50 30.666 50H20.666C7.66602 50 0.666016 43 0.666016 30V20Z" fill="#FFF2CF"/>
<path d="M13.166 35.3525V32.2032C13.166 31.4513 13.3554 30.7942 13.7341 30.2321C14.1127 29.67 14.6154 29.23 15.242 28.9122C16.4462 28.2983 17.7175 27.8016 19.0561 27.422C20.3946 27.0424 21.9729 26.8526 23.791 26.8526C24.4993 26.8526 25.1582 26.8812 25.7675 26.9384C26.3768 26.9956 26.9458 27.0814 27.4743 27.1959L25.5945 29.0756C25.3348 29.0284 25.0537 29.0002 24.7513 28.9912C24.4489 28.9821 24.1288 28.9775 23.791 28.9775C22.1146 28.9775 20.6457 29.1646 19.3843 29.5387C18.123 29.9129 17.0673 30.3361 16.2173 30.8083C15.8958 30.9808 15.661 31.1824 15.513 31.4131C15.365 31.6438 15.291 31.9071 15.291 32.2032V33.2275H23.8727L25.9977 35.3525H13.166ZM31.5173 36.4096L27.1202 32.0125L28.6131 30.5196L31.5173 33.4237L38.6714 26.2696L40.1643 27.7625L31.5173 36.4096ZM23.791 24.5641C22.4275 24.5641 21.2602 24.0786 20.2892 23.1076C19.3182 22.1366 18.8327 20.9693 18.8327 19.6058C18.8327 18.2422 19.3182 17.075 20.2892 16.104C21.2602 15.133 22.4275 14.6475 23.791 14.6475C25.1545 14.6475 26.3218 15.133 27.2928 16.104C28.2638 17.075 28.7493 18.2422 28.7493 19.6058C28.7493 20.9693 28.2638 22.1366 27.2928 23.1076C26.3218 24.0786 25.1545 24.5641 23.791 24.5641ZM23.791 22.4391C24.5701 22.4391 25.2372 22.1617 25.792 21.6068C26.3469 21.052 26.6243 20.385 26.6243 19.6058C26.6243 18.8266 26.3469 18.1596 25.792 17.6047C25.2372 17.0499 24.5701 16.7725 23.791 16.7725C23.0118 16.7725 22.3448 17.0499 21.7899 17.6047C21.2351 18.1596 20.9576 18.8266 20.9576 19.6058C20.9576 20.385 21.2351 21.052 21.7899 21.6068C22.3448 22.1617 23.0118 22.4391 23.791 22.4391Z" fill="#FF7A00"/>
</svg>
