<svg width="60" height="60" viewBox="0 0 60 60" fill="none" xmlns="http://www.w3.org/2000/svg">
<path d="M0 30C0 5.295 5.295 0 30 0C54.705 0 60 5.295 60 30C60 54.705 54.705 60 30 60C5.295 60 0 54.705 0 30Z" fill="#FFE0E5"/>
<path d="M14.6523 45.3472V27.5246L23.7079 23.6432V26.9263L32.0412 23.5726V27.9417H45.3746V45.3472H14.6523ZM16.7848 43.2148H43.2421V30.1007H29.9088V26.7126L21.5754 30.0459V26.8312L16.7848 28.9284V43.2148ZM28.4985 39.578H31.5284V33.7276H28.4985V39.578ZM21.8318 39.578H24.8617V33.7276H21.8318V39.578ZM35.1652 39.578H38.1951V33.7276H35.1652V39.578ZM45.3746 27.9583H39.772L41.4387 15.907H43.8446L45.3746 27.9583Z" fill="#FF002E"/>
</svg>
