<svg width="600" height="600" viewBox="0 0 600 600" fill="none" xmlns="http://www.w3.org/2000/svg">
<g clip-path="url(#clip0_2439_1006)">
<path d="M553.398 581.359H512.621V325.048C512.621 320.388 509.126 315.728 503.301 315.728H486.99L461.359 156.116C460.194 151.456 456.699 149.126 453.204 149.126H400.776C396.116 149.126 392.621 152.621 392.621 156.116L366.99 315.728H334.369V246.99C334.369 243.495 332.039 241.165 329.708 238.835C326.213 237.67 322.718 237.67 320.388 240L219.029 315.728V246.99C219.029 243.495 216.699 241.165 214.369 238.835C210.873 237.67 207.378 237.67 205.048 240L103.689 315.728H89.7084C85.0482 315.728 80.3881 319.223 80.3881 325.048V581.359H45.4366C40.7764 581.359 36.1162 584.854 36.1162 590.679C36.1162 595.34 39.6114 600 45.4366 600H89.7084H147.961H299.417H504.466H554.563C559.223 600 563.883 596.505 563.883 590.679C562.718 586.019 558.058 581.359 553.398 581.359ZM407.767 166.602H445.048L469.514 315.728H384.466L407.767 166.602ZM316.893 264.466V315.728H248.155L316.893 264.466ZM201.553 264.466V315.728H132.815L201.553 264.466ZM214.369 581.359H156.116V469.514H214.369V581.359ZM290.097 581.359H231.844V469.514H290.097V581.359ZM493.98 581.359H308.738V461.359C308.738 456.699 305.242 452.039 299.417 452.039H146.796C142.136 452.039 137.475 455.534 137.475 461.359V582.524H96.6987V333.204H104.854H208.543H220.194H323.883H372.815H478.835H493.98V581.359Z" fill="black"/>
<path d="M461.359 41.9417C461.359 40.7767 461.359 39.6117 461.359 38.4466C461.359 17.4757 443.883 0 422.913 0C401.942 0 384.466 17.4757 384.466 38.4466C384.466 39.6117 384.466 40.7767 384.466 41.9417C377.476 48.932 370.485 59.4175 370.485 69.9029C370.485 81.5534 377.476 90.8738 387.961 97.8641C387.961 107.184 391.456 115.34 397.281 122.33C400.777 125.825 405.437 125.825 410.097 123.495C413.592 120 413.592 115.34 411.262 110.68C407.767 107.184 406.602 102.524 406.602 96.699C406.602 95.534 406.602 95.534 406.602 94.3689C406.602 90.8738 405.437 87.3786 401.942 85.0486C393.786 80.3884 387.961 74.5631 387.961 69.9029C387.961 64.0777 393.786 58.2524 401.942 53.5922C405.437 51.2621 407.767 47.767 406.602 43.1068C405.437 40.7767 405.437 38.4466 405.437 37.2816C405.437 25.6311 414.757 16.3107 426.408 16.3107C438.058 16.3107 447.379 25.6311 447.379 37.2816C447.379 38.4466 447.379 40.7767 446.214 43.1068C445.048 47.767 447.379 51.2621 450.874 53.5922C460.194 58.2524 464.854 64.0777 464.854 69.9029C464.854 75.7282 460.194 81.5534 450.874 85.0486C447.379 86.2136 445.048 90.8738 446.214 94.3689C446.214 95.534 446.214 95.534 446.214 96.699C446.214 102.524 443.883 108.35 439.223 111.845C435.728 115.34 435.728 121.165 439.223 124.66C440.388 126.99 442.718 126.99 445.048 126.99C447.379 126.99 449.709 125.825 450.874 124.66C457.864 117.67 462.524 108.35 462.524 97.8641C474.175 90.8738 480 80.3884 480 69.9029C480 58.2524 473.01 48.932 461.359 41.9417Z" fill="black"/>
<path d="M216.699 377.476H158.446C153.786 377.476 149.126 380.971 149.126 386.796C149.126 391.456 152.621 396.116 158.446 396.116H216.699C221.359 396.116 226.019 392.621 226.019 386.796C226.019 382.136 222.524 377.476 216.699 377.476Z" fill="black"/>
<path d="M314.563 377.476H256.311C251.65 377.476 246.99 380.971 246.99 386.796C246.99 391.456 250.485 396.116 256.311 396.116H314.563C319.223 396.116 323.883 392.621 323.883 386.796C322.718 382.136 319.223 377.476 314.563 377.476Z" fill="black"/>
<path d="M411.262 376.311H353.01C348.35 376.311 343.689 379.806 343.689 385.631C344.855 391.456 348.35 394.951 353.01 394.951H411.262C415.922 394.951 420.583 391.456 420.583 385.631C420.583 380.971 417.088 376.311 411.262 376.311Z" fill="black"/>
<path d="M431.068 452.039H349.515C344.855 452.039 340.194 455.534 340.194 461.359V521.942C340.194 526.602 343.689 531.262 349.515 531.262H431.068C435.728 531.262 440.388 527.767 440.388 521.942V461.359C439.223 456.699 435.728 452.039 431.068 452.039ZM421.748 512.622H357.67V469.515H421.748V512.622Z" fill="black"/>
<circle cx="390" cy="475" r="100" fill="#8CBEE9" fill-opacity="0.5"/>
<circle cx="390" cy="475" r="100" stroke="#8CBEE9"/>
</g>
<defs>
<clipPath id="clip0_2439_1006">
<rect width="600" height="600" fill="white"/>
</clipPath>
</defs>
</svg>
