<svg width="20" height="21" viewBox="0 0 20 21" fill="none" xmlns="http://www.w3.org/2000/svg">
<path d="M18 19.6667L15.75 17.4167C15.4444 17.5973 15.125 17.7396 14.7917 17.8438C14.4583 17.948 14.1111 18 13.75 18C12.7083 18 11.8229 17.6355 11.0937 16.9063C10.3646 16.1771 10 15.2917 10 14.25C10 13.2084 10.3646 12.323 11.0937 11.5938C11.8229 10.8646 12.7083 10.5 13.75 10.5C14.7917 10.5 15.6771 10.8646 16.4062 11.5938C17.1354 12.323 17.5 13.2084 17.5 14.25C17.5 14.6112 17.4479 14.9584 17.3437 15.2917C17.2396 15.625 17.0972 15.9445 16.9167 16.25L19.1667 18.5L18 19.6667ZM13.75 16.3334C14.3333 16.3334 14.8264 16.132 15.2292 15.7292C15.6319 15.3264 15.8333 14.8334 15.8333 14.25C15.8333 13.6667 15.6319 13.1737 15.2292 12.7709C14.8264 12.3681 14.3333 12.1667 13.75 12.1667C13.1667 12.1667 12.6736 12.3681 12.2708 12.7709C11.8681 13.1737 11.6667 13.6667 11.6667 14.25C11.6667 14.8334 11.8681 15.3264 12.2708 15.7292C12.6736 16.132 13.1667 16.3334 13.75 16.3334ZM17.5 8.83337H15.8333V4.66671H14.1667V7.16671H5.83333V4.66671H4.16667V16.3334H8.33333V18H4.16667C3.70833 18 3.31597 17.8368 2.98958 17.5105C2.66319 17.1841 2.5 16.7917 2.5 16.3334V4.66671C2.5 4.20837 2.66319 3.81601 2.98958 3.48962C3.31597 3.16324 3.70833 3.00004 4.16667 3.00004H7.64583C7.79861 2.51393 8.09722 2.11462 8.54167 1.80212C8.98611 1.48962 9.47222 1.33337 10 1.33337C10.5556 1.33337 11.0521 1.48962 11.4896 1.80212C11.9271 2.11462 12.2222 2.51393 12.375 3.00004H15.8333C16.2917 3.00004 16.684 3.16324 17.0104 3.48962C17.3368 3.81601 17.5 4.20837 17.5 4.66671V8.83337ZM10 4.66671C10.2361 4.66671 10.434 4.58685 10.5937 4.42712C10.7535 4.2674 10.8333 4.06949 10.8333 3.83337C10.8333 3.59726 10.7535 3.39935 10.5937 3.23962C10.434 3.0799 10.2361 3.00004 10 3.00004C9.76389 3.00004 9.56597 3.0799 9.40625 3.23962C9.24653 3.39935 9.16667 3.59726 9.16667 3.83337C9.16667 4.06949 9.24653 4.2674 9.40625 4.42712C9.56597 4.58685 9.76389 4.66671 10 4.66671Z" fill="#6A6D80"/>
</svg>
