<svg width="14" height="17" viewBox="0 0 14 17" fill="none" xmlns="http://www.w3.org/2000/svg">
<path d="M7.00065 10.1666C7.45898 10.1666 7.85135 10.0034 8.17773 9.67704C8.50412 9.35065 8.66732 8.95829 8.66732 8.49996C8.66732 8.04163 8.50412 7.64926 8.17773 7.32288C7.85135 6.99649 7.45898 6.83329 7.00065 6.83329C6.54232 6.83329 6.14996 6.99649 5.82357 7.32288C5.49718 7.64926 5.33398 8.04163 5.33398 8.49996C5.33398 8.95829 5.49718 9.35065 5.82357 9.67704C6.14996 10.0034 6.54232 10.1666 7.00065 10.1666ZM3.66732 13.5H10.334V13.0208C10.334 12.6875 10.2437 12.3819 10.0632 12.1041C9.8826 11.8263 9.6326 11.618 9.31315 11.4791C8.95204 11.3263 8.58051 11.2083 8.19857 11.125C7.81662 11.0416 7.41732 11 7.00065 11C6.58398 11 6.18468 11.0416 5.80273 11.125C5.42079 11.2083 5.04926 11.3263 4.68815 11.4791C4.36871 11.618 4.11871 11.8263 3.93815 12.1041C3.7576 12.3819 3.66732 12.6875 3.66732 13.0208V13.5ZM12.0007 16.8333H2.00065C1.54232 16.8333 1.14996 16.6701 0.823568 16.3437C0.497179 16.0173 0.333984 15.625 0.333984 15.1666V1.83329C0.333984 1.37496 0.497179 0.982598 0.823568 0.656209C1.14996 0.32982 1.54232 0.166626 2.00065 0.166626H8.66732L13.6673 5.16663V15.1666C13.6673 15.625 13.5041 16.0173 13.1777 16.3437C12.8513 16.6701 12.459 16.8333 12.0007 16.8333ZM12.0007 15.1666V5.87496L7.95898 1.83329H2.00065V15.1666H12.0007Z" fill="#6A6D80"/>
</svg>
