<svg width="32" height="34" viewBox="0 0 32 34" fill="none" xmlns="http://www.w3.org/2000/svg">
<path d="M9.74639 33.5556L7.61393 31.9455V24.719H4.37139C3.8332 24.719 3.40574 24.5607 3.08902 24.2439C2.77229 23.9272 2.61393 23.4998 2.61393 22.9616V8.83014H1.65239C1.43408 8.74681 1.26199 8.61613 1.1361 8.4381C1.01021 8.26005 0.947266 8.05634 0.947266 7.82698C0.947266 7.54206 1.05188 7.29187 1.2611 7.0764C1.47032 6.86095 1.71649 6.75323 1.9996 6.75323H7.61393V2.92415H6.16627C5.88315 2.92415 5.63699 2.81892 5.42777 2.60848C5.21854 2.39804 5.11393 2.15035 5.11393 1.86544C5.11393 1.58052 5.21854 1.33033 5.42777 1.11485C5.63699 0.899408 5.88315 0.791687 6.16627 0.791687H11.1663C11.4494 0.791687 11.7002 0.901534 11.9187 1.12123C12.1372 1.34095 12.2464 1.59327 12.2464 1.87819C12.2464 2.1631 12.1372 2.40866 11.9187 2.61485C11.7002 2.82105 11.4494 2.92415 11.1663 2.92415H9.74639V6.75323H15.3329C15.616 6.75323 15.8669 6.86308 16.0854 7.08277C16.3038 7.30249 16.4131 7.55481 16.4131 7.83973C16.4131 8.06909 16.3455 8.27067 16.2104 8.44448C16.0752 8.61826 15.9077 8.74681 15.7079 8.83014H14.7464V22.9616C14.7464 23.4998 14.5834 23.9272 14.2574 24.2439C13.9314 24.5607 13.4993 24.719 12.9611 24.719H9.74639V33.5556ZM4.74639 22.5866H12.6139V19.2062H9.08293C8.81313 19.2062 8.58631 19.1146 8.40247 18.9314C8.21864 18.7481 8.12672 18.522 8.12672 18.2529C8.12672 17.9839 8.21864 17.7522 8.40247 17.5577C8.58631 17.3633 8.81313 17.2661 9.08293 17.2661H12.6139V14.2062H9.08293C8.81313 14.2062 8.58631 14.1146 8.40247 13.9314C8.21864 13.7481 8.12672 13.522 8.12672 13.2529C8.12672 12.9839 8.21864 12.7522 8.40247 12.5577C8.58631 12.3633 8.81313 12.2661 9.08293 12.2661H12.6139V8.88569H4.74639V22.5866ZM21.1663 33.1806C20.6281 33.1806 20.2006 33.0222 19.8839 32.7055C19.5672 32.3888 19.4088 31.9613 19.4088 31.4231V19.6752C19.4088 18.6809 19.5719 17.9388 19.8981 17.4487C20.2243 16.9587 20.5676 16.5452 20.928 16.2084C21.386 15.7739 21.6639 15.4444 21.7619 15.2199C21.8598 14.9954 21.9088 14.7045 21.9088 14.3472V12.719H20.9473C20.729 12.6727 20.5569 12.5652 20.431 12.3964C20.3051 12.2277 20.2421 12.0008 20.2421 11.7159C20.2421 11.431 20.3419 11.1808 20.5416 10.9653C20.7411 10.7498 20.9921 10.6421 21.2945 10.6421H29.6278C29.9109 10.6421 30.1617 10.752 30.3802 10.9717C30.5987 11.1914 30.7079 11.4437 30.7079 11.7286C30.7079 12.0136 30.6404 12.2383 30.5052 12.4028C30.3701 12.5673 30.2026 12.6727 30.0028 12.719H29.0413V14.3561C29.0413 14.6921 29.0991 14.9671 29.2149 15.1811C29.3306 15.3952 29.6 15.7148 30.0231 16.14C30.3977 16.4861 30.7444 16.8975 31.0632 17.374C31.3819 17.8505 31.5413 18.6137 31.5413 19.6636V31.4231C31.5413 31.9613 31.3783 32.3888 31.0523 32.7055C30.7263 33.0222 30.2942 33.1806 29.756 33.1806H21.1663ZM21.5413 20.7276H29.4088V19.6647C29.4088 19.1436 29.3175 18.7084 29.1348 18.3593C28.9521 18.0101 28.6289 17.6076 28.1652 17.1517C27.7972 16.7766 27.4958 16.3707 27.261 15.9339C27.0262 15.4971 26.9088 14.9682 26.9088 14.3472V12.7746H24.0413V14.3472C24.0413 14.9971 23.9193 15.5392 23.6754 15.9735C23.4314 16.4079 23.1285 16.802 22.7667 17.156C22.2992 17.6113 21.9781 18.0159 21.8034 18.3699C21.6286 18.7239 21.5413 19.159 21.5413 19.6752V20.7276ZM21.5413 25.7276H29.4088V22.6678H21.5413V25.7276ZM21.5413 31.0481H29.4088V27.6678H21.5413V31.0481Z" fill="#009F83"/>
</svg>
