<svg width="600" height="512" viewBox="0 0 600 512" fill="none" xmlns="http://www.w3.org/2000/svg">
<path d="M535.93 80L463.768 47.339L454.979 61.474L529.203 95.067C530.556 95.6796 532.064 95.9999 533.596 96H580.471V80H535.93Z" fill="black"/>
<path d="M532.75 160.033L476.383 164.405C463.321 165.392 450.169 163.781 437.961 159.696C425.753 155.612 414.822 149.167 406.027 140.867L376.864 113.214C372.445 109.023 369.896 103.638 369.664 98.0037C369.432 92.3694 371.532 86.8453 375.596 82.4L425.273 110.66C426.297 111.255 427.449 111.671 428.663 111.884C429.876 112.097 431.127 112.102 432.343 111.9C433.559 111.698 434.716 111.292 435.747 110.706C436.779 110.12 437.663 109.365 438.351 108.486C439.038 107.606 439.514 106.619 439.751 105.581C439.989 104.543 439.983 103.476 439.734 102.44C439.485 101.405 438.998 100.421 438.301 99.5473C437.604 98.6732 436.711 97.9257 435.673 97.348L379.423 65.348L379.406 65.337L379.394 65.331C377.848 64.4577 376.033 63.9945 374.179 64H271.104C260.369 63.9966 249.971 60.7992 241.7 54.9584C233.43 49.1175 227.804 40.9988 225.793 32H389.855L436.226 52.988L445.015 38.853L396.585 16.933C395.232 16.3201 393.724 15.9998 392.192 16H215.63C213.166 15.9998 210.801 16.8274 209.047 18.3038C207.292 19.7801 206.289 21.7866 206.255 23.889C206.136 31.2207 207.725 38.4996 210.93 45.3028C214.136 52.1059 218.894 58.2977 224.927 63.5183C230.961 68.739 238.15 72.8845 246.078 75.7139C254.005 78.5433 262.512 80.0002 271.104 80H355.416C351.448 87.1359 350.045 95.1144 351.382 102.93C352.719 110.745 356.738 118.048 362.931 123.918L392.095 151.57C401.8 160.729 413.645 168.052 426.868 173.069C440.09 178.086 454.396 180.685 468.867 180.7C471.931 180.7 475.003 180.581 478.08 180.344L534.023 176H580.472V160H533.597C533.32 160 533.031 160.011 532.75 160.033Z" fill="black"/>
<path d="M328.895 432H290.625V448H328.895C339.63 448.003 350.028 451.201 358.299 457.042C366.57 462.882 372.195 471.001 374.206 480H210.144L70.7938 416.933C69.4406 416.32 67.9322 416 66.4004 416H19.5254V432H64.0684L203.414 495.067C204.767 495.68 206.275 496 207.807 496H384.375C386.839 496 389.204 495.173 390.958 493.696C392.713 492.22 393.715 490.213 393.75 488.111C393.869 480.779 392.28 473.5 389.074 466.696C385.868 459.893 381.11 453.701 375.076 448.48C369.041 443.259 361.851 439.114 353.923 436.285C345.995 433.456 337.488 431.999 328.895 432Z" fill="black"/>
<path d="M67.2488 351.967L123.616 347.595C136.678 346.607 149.83 348.219 162.038 352.303C174.246 356.387 185.177 362.833 193.972 371.133L223.135 398.786C227.556 402.977 230.106 408.362 230.339 413.998C230.571 419.633 228.471 425.158 224.407 429.604L174.726 401.344C173.702 400.749 172.55 400.333 171.337 400.12C170.123 399.907 168.872 399.902 167.656 400.104C166.44 400.306 165.283 400.712 164.252 401.298C163.22 401.884 162.336 402.639 161.648 403.518C160.961 404.398 160.485 405.385 160.248 406.423C160.01 407.461 160.016 408.528 160.265 409.564C160.514 410.599 161.001 411.583 161.698 412.457C162.395 413.331 163.288 414.078 164.326 414.656L220.576 446.656L220.593 446.667L220.606 446.674C222.139 447.539 223.936 448 225.773 448H271.875V432H244.582C248.55 424.864 249.955 416.886 248.618 409.07C247.28 401.254 243.262 393.951 237.068 388.082L207.904 360.43C197.155 350.286 183.795 342.409 168.874 337.417C153.954 332.425 137.88 330.454 121.916 331.66L65.9762 336H19.5254V352H66.4004C66.6793 352 66.9676 351.989 67.2488 351.967Z" fill="black"/>
<path d="M337.5 152H262.5C260.014 152 257.629 152.843 255.871 154.343C254.113 155.843 253.125 157.878 253.125 160V216H234.375V232H262.5C264.986 232 267.371 231.157 269.129 229.657C270.887 228.157 271.875 226.122 271.875 224V168H328.125V224C328.125 226.122 329.113 228.157 330.871 229.657C332.629 231.157 335.014 232 337.5 232H403.125V280H337.5C335.014 280 332.629 280.843 330.871 282.343C329.113 283.843 328.125 285.878 328.125 288V344H271.875V288C271.875 285.878 270.887 283.843 269.129 282.343C267.371 280.843 264.986 280 262.5 280H196.875V232H215.625V216H187.5C185.014 216 182.629 216.843 180.871 218.343C179.113 219.843 178.125 221.878 178.125 224V288C178.125 290.122 179.113 292.157 180.871 293.657C182.629 295.157 185.014 296 187.5 296H253.125V352C253.125 354.122 254.113 356.157 255.871 357.657C257.629 359.157 260.014 360 262.5 360H337.5C339.986 360 342.371 359.157 344.129 357.657C345.887 356.157 346.875 354.122 346.875 352V296H412.5C414.986 296 417.371 295.157 419.129 293.657C420.887 292.157 421.875 290.122 421.875 288V224C421.875 221.878 420.887 219.843 419.129 218.343C417.371 216.843 414.986 216 412.5 216H346.875V160C346.875 157.878 345.887 155.843 344.129 154.343C342.371 152.843 339.986 152 337.5 152Z" fill="black"/>
<path d="M121.875 256C121.854 273.023 125.201 289.927 131.774 306L149.475 300.725C143.597 286.348 140.605 271.227 140.625 256C140.625 181.009 212.12 120 300 120C305.919 120.001 311.833 120.279 317.717 120.834L319.784 104.934C313.214 104.313 306.61 104.001 300 104C201.782 104 121.875 172.187 121.875 256Z" fill="black"/>
<path d="M299.999 392C294.08 391.999 288.166 391.721 282.283 391.166L280.216 407.066C286.785 407.687 293.39 407.999 299.999 408C398.218 408 478.124 339.813 478.124 256C478.145 238.977 474.799 222.073 468.226 206L450.524 211.275C456.402 225.652 459.394 240.773 459.374 256C459.374 330.991 387.879 392 299.999 392Z" fill="black"/>
<path d="M502.635 201.57C501.121 202.527 499.98 203.85 499.36 205.369C498.741 206.887 498.671 208.53 499.162 210.082C511.2 248.285 507.831 288.832 489.598 325.203C471.364 361.574 439.325 391.655 398.634 410.609L407.615 424.655C448.597 405.567 481.62 376.088 502.119 340.292C522.618 304.496 529.581 264.15 522.045 224.831L548.149 238.78L558.1 225.22L513.189 201.22C511.593 200.367 509.732 199.944 507.849 200.006C505.966 200.068 504.15 200.613 502.635 201.57Z" fill="black"/>
<path d="M89.4826 304C90.8861 304 92.2717 303.731 93.5372 303.213C94.8026 302.695 95.9157 301.942 96.7943 301.008C97.6728 300.074 98.2944 298.983 98.6132 297.817C98.932 296.651 98.9398 295.438 98.6361 294.269C88.5378 255.523 94.0746 215.002 114.349 179.277C134.623 143.553 168.445 114.721 210.33 97.457L202.169 83.057C159.556 100.654 124.521 129.257 102.036 164.806C79.5517 200.356 70.7597 241.045 76.9084 281.1L41.9607 264.964L33.0381 279.036L85.0225 303.036C86.392 303.669 87.925 304 89.4826 304Z" fill="black"/>
<circle cx="422" cy="390" r="100" fill="#8CBEE9" fill-opacity="0.5"/>
<circle cx="422" cy="390" r="100" stroke="#8CBEE9"/>
</svg>
