<svg width="60" height="60" viewBox="0 0 60 60" fill="none" xmlns="http://www.w3.org/2000/svg">
<path d="M0 30C0 5.295 5.295 0 30 0C54.705 0 60 5.295 60 30C60 54.705 54.705 60 30 60C5.295 60 0 54.705 0 30Z" fill="#D0FFE6"/>
<path d="M22.7464 46.5556L20.6139 44.9455V37.719H17.3714C16.8332 37.719 16.4057 37.5607 16.089 37.2439C15.7723 36.9272 15.6139 36.4998 15.6139 35.9616V21.8301H14.6524C14.4341 21.7468 14.262 21.6161 14.1361 21.4381C14.0102 21.26 13.9473 21.0563 13.9473 20.827C13.9473 20.5421 14.0519 20.2919 14.2611 20.0764C14.4703 19.861 14.7165 19.7532 14.9996 19.7532H20.6139V15.9241H19.1663C18.8832 15.9241 18.637 15.8189 18.4278 15.6085C18.2185 15.398 18.1139 15.1504 18.1139 14.8654C18.1139 14.5805 18.2185 14.3303 18.4278 14.1149C18.637 13.8994 18.8832 13.7917 19.1663 13.7917H24.1663C24.4494 13.7917 24.7002 13.9015 24.9187 14.1212C25.1372 14.341 25.2464 14.5933 25.2464 14.8782C25.2464 15.1631 25.1372 15.4087 24.9187 15.6149C24.7002 15.821 24.4494 15.9241 24.1663 15.9241H22.7464V19.7532H28.3329C28.616 19.7532 28.8669 19.8631 29.0854 20.0828C29.3038 20.3025 29.4131 20.5548 29.4131 20.8397C29.4131 21.0691 29.3455 21.2707 29.2104 21.4445C29.0752 21.6183 28.9077 21.7468 28.7079 21.8301H27.7464V35.9616C27.7464 36.4998 27.5834 36.9272 27.2574 37.2439C26.9314 37.5607 26.4993 37.719 25.9611 37.719H22.7464V46.5556ZM17.7464 35.5866H25.6139V32.2062H22.0829C21.8131 32.2062 21.5863 32.1146 21.4025 31.9314C21.2186 31.7481 21.1267 31.522 21.1267 31.2529C21.1267 30.9839 21.2186 30.7522 21.4025 30.5577C21.5863 30.3633 21.8131 30.2661 22.0829 30.2661H25.6139V27.2062H22.0829C21.8131 27.2062 21.5863 27.1146 21.4025 26.9314C21.2186 26.7481 21.1267 26.522 21.1267 26.2529C21.1267 25.9839 21.2186 25.7522 21.4025 25.5577C21.5863 25.3633 21.8131 25.2661 22.0829 25.2661H25.6139V21.8857H17.7464V35.5866ZM34.1663 46.1806C33.6281 46.1806 33.2006 46.0222 32.8839 45.7055C32.5672 45.3888 32.4088 44.9613 32.4088 44.4231V32.6752C32.4088 31.6809 32.5719 30.9388 32.8981 30.4487C33.2243 29.9587 33.5676 29.5452 33.928 29.2084C34.386 28.7739 34.6639 28.4444 34.7619 28.2199C34.8598 27.9954 34.9088 27.7045 34.9088 27.3472V25.719H33.9473C33.729 25.6727 33.5569 25.5652 33.431 25.3964C33.3051 25.2277 33.2421 25.0008 33.2421 24.7159C33.2421 24.431 33.3419 24.1808 33.5416 23.9653C33.7411 23.7498 33.9921 23.6421 34.2945 23.6421H42.6278C42.9109 23.6421 43.1617 23.752 43.3802 23.9717C43.5987 24.1914 43.7079 24.4437 43.7079 24.7286C43.7079 25.0136 43.6404 25.2383 43.5052 25.4028C43.3701 25.5673 43.2026 25.6727 43.0028 25.719H42.0413V27.3561C42.0413 27.6921 42.0991 27.9671 42.2149 28.1811C42.3306 28.3952 42.6 28.7148 43.0231 29.14C43.3977 29.4861 43.7444 29.8975 44.0632 30.374C44.3819 30.8505 44.5413 31.6137 44.5413 32.6636V44.4231C44.5413 44.9613 44.3783 45.3888 44.0523 45.7055C43.7263 46.0222 43.2942 46.1806 42.756 46.1806H34.1663ZM34.5413 33.7276H42.4088V32.6647C42.4088 32.1436 42.3175 31.7084 42.1348 31.3593C41.9521 31.0101 41.6289 30.6076 41.1652 30.1517C40.7972 29.7766 40.4958 29.3707 40.261 28.9339C40.0262 28.4971 39.9088 27.9682 39.9088 27.3472V25.7746H37.0413V27.3472C37.0413 27.9971 36.9193 28.5392 36.6754 28.9735C36.4314 29.4079 36.1285 29.802 35.7667 30.156C35.2992 30.6113 34.9781 31.0159 34.8034 31.3699C34.6286 31.7239 34.5413 32.159 34.5413 32.6752V33.7276ZM34.5413 38.7276H42.4088V35.6678H34.5413V38.7276ZM34.5413 44.0481H42.4088V40.6678H34.5413V44.0481Z" fill="#009F83"/>
</svg>
