<svg width="60" height="60" viewBox="0 0 60 60" fill="none" xmlns="http://www.w3.org/2000/svg">
<path d="M0 30C0 5.295 5.295 0 30 0C54.705 0 60 5.295 60 30C60 54.705 54.705 60 30 60C5.295 60 0 54.705 0 30Z" fill="#F0E4FF"/>
<path d="M27.986 46.4444V44.3119H47.0416V46.4444L27.986 46.4444ZM29.6527 41.7479C29.6527 39.7813 30.287 38.0705 31.5555 36.6154C32.824 35.1602 34.412 34.3025 36.3194 34.0422V33.6476C36.3194 33.3493 36.4358 33.0783 36.6688 32.8346C36.9017 32.5908 37.1786 32.469 37.4994 32.469C37.7989 32.469 38.0752 32.5908 38.3285 32.8346C38.5817 33.0783 38.7083 33.3499 38.7083 33.6495V34.0429C40.6 34.3027 42.184 35.1602 43.4604 36.6154C44.7367 38.0705 45.3749 39.7813 45.3749 41.7479H29.6527ZM32.8354 39.6261H42.1826C41.9255 38.5862 41.3679 37.7238 40.5098 37.039C39.6516 36.3541 38.6506 36.0117 37.5066 36.0117C36.3611 36.0117 35.3569 36.3541 34.494 37.039C33.6311 37.7238 33.0782 38.5862 32.8354 39.6261ZM12.3418 30.6154V15.3974H20.1431V17.7179L33.0042 13.9957L45.423 17.859V19.2158C45.423 20.2557 44.9683 21.1318 44.059 21.844C43.1496 22.5563 42.1199 22.9124 40.97 22.9124H36.8973V23.25C36.9066 23.9195 36.6388 24.628 36.0939 25.3755C35.5491 26.123 34.959 26.6122 34.3236 26.8429L24.064 30.6154H12.3418ZM14.4187 28.4829H17.9828V17.5299H14.4187V28.4829ZM20.1431 28.4829H23.7585L34.2125 24.6079C34.402 24.5317 34.5614 24.3879 34.6906 24.1764C34.8199 23.965 34.8845 23.7467 34.8845 23.5214V22.9124H31.3525L26.6367 24.5278L25.9529 22.5085L31.1762 20.7799H41.7478C42.0968 20.7799 42.4084 20.666 42.6826 20.4382C42.9569 20.2104 43.1367 19.877 43.2222 19.438L32.8867 16.2521L20.1431 19.9401V28.4829Z" fill="#7000FF"/>
</svg>
