<svg width="34" height="33" viewBox="0 0 34 33" fill="none" xmlns="http://www.w3.org/2000/svg">
<path d="M4.65202 32.6805V16.9914L1.83468 19.1528L0.587891 17.4722L4.65202 14.3472V9.67518H6.78447V12.6816L16.9853 4.93051L33.4384 17.4231L32.1499 19.1356L29.3187 16.9358V32.6805H4.65202ZM6.78447 30.5481H14.4309V22.5993H19.512V30.5481H27.1862V15.3237L16.9853 7.6068L6.78447 15.3703V30.5481ZM4.65202 7.5598C4.65202 6.29675 5.06341 5.20819 5.88618 4.29414C6.70896 3.38008 7.85211 2.92305 9.31564 2.92305C10.1887 2.92305 10.8343 2.68427 11.2524 2.20672C11.6705 1.72916 11.8796 1.13782 11.8796 0.432678H14.012C14.012 1.71615 13.5913 2.80982 12.7499 3.71368C11.9085 4.61751 10.7668 5.06943 9.32485 5.06943C8.45818 5.06943 7.81813 5.31053 7.40468 5.79272C6.99121 6.27491 6.78447 6.86394 6.78447 7.5598H4.65202Z" fill="#2A2E3E"/>
</svg>
