<svg width="60" height="60" viewBox="0 0 60 60" fill="none" xmlns="http://www.w3.org/2000/svg">
<path d="M0 30C0 5.295 5.295 0 30 0C54.705 0 60 5.295 60 30C60 54.705 54.705 60 30 60C5.295 60 0 54.705 0 30Z" fill="#E8EDF0"/>
<path d="M17.652 43.6805V27.9914L14.8347 30.1528L13.5879 28.4722L17.652 25.3472V20.6752H19.7845V23.6816L29.9853 15.9305L46.4384 28.4231L45.1499 30.1356L42.3187 27.9358V43.6805H17.652ZM19.7845 41.5481H27.4309V33.5993H32.512V41.5481H40.1862V26.3237L29.9853 18.6068L19.7845 26.3703V41.5481ZM17.652 18.5598C17.652 17.2967 18.0634 16.2082 18.8862 15.2941C19.709 14.3801 20.8521 13.9231 22.3156 13.9231C23.1887 13.9231 23.8343 13.6843 24.2524 13.2067C24.6705 12.7292 24.8796 12.1378 24.8796 11.4327H27.012C27.012 12.7162 26.5913 13.8098 25.7499 14.7137C24.9085 15.6175 23.7668 16.0694 22.3249 16.0694C21.4582 16.0694 20.8181 16.3105 20.4047 16.7927C19.9912 17.2749 19.7845 17.8639 19.7845 18.5598H17.652Z" fill="#2A2E3E"/>
</svg>
