<svg width="629" height="585" viewBox="0 0 629 585" fill="none" xmlns="http://www.w3.org/2000/svg">
<path d="M607.31 121.034H596.465V110.948C596.465 105.371 591.618 100.862 585.62 100.862C579.623 100.862 574.776 105.371 574.776 110.948V121.034H563.931C557.934 121.034 553.086 125.543 553.086 131.121C553.086 136.698 557.934 141.207 563.931 141.207H574.776V151.293C574.776 156.871 579.623 161.379 585.62 161.379C591.618 161.379 596.465 156.871 596.465 151.293V141.207H607.31C613.307 141.207 618.155 136.698 618.155 131.121C618.155 125.543 613.307 121.034 607.31 121.034Z" fill="#322153"/>
<path d="M325.344 413.534H151.827V534.569H325.344V413.534Z" fill="#8CBEE9"/>
<path d="M477.172 171.466H433.792C421.809 171.466 412.103 180.493 412.103 191.638V211.81L498.861 292.5V191.638C498.861 180.493 489.155 171.466 477.172 171.466Z" fill="#8CBEE9"/>
<path d="M422.948 30.2586C422.948 46.9412 437.545 60.5172 455.483 60.5172C473.42 60.5172 488.017 46.9412 488.017 30.2586C488.017 13.576 473.42 0 455.483 0C437.545 0 422.948 13.576 422.948 30.2586ZM466.328 30.2586C466.328 35.8262 461.469 40.3448 455.483 40.3448C449.496 40.3448 444.638 35.8262 444.638 30.2586C444.638 24.691 449.496 20.1724 455.483 20.1724C461.469 20.1724 466.328 24.691 466.328 30.2586Z" fill="#8CBEE9"/>
<path d="M566.399 316.848L591.876 339.976C594.043 341.942 596.887 342.931 599.732 342.931C602.576 342.931 605.421 341.942 607.587 339.976C611.932 336.032 611.932 329.657 607.587 325.714L521.954 247.979V151.293C521.954 134.61 506.999 121.034 488.621 121.034H444.177C427.221 121.034 413.344 132.623 411.266 147.501L340.922 83.6448C336.577 79.7011 329.555 79.7011 325.211 83.6448L58.5454 325.714C54.201 329.657 54.201 336.032 58.5454 339.976C62.8899 343.919 69.912 343.919 74.2565 339.976L99.7341 316.848V554.741C99.7341 571.424 114.69 585 133.067 585H533.065C551.443 585 566.399 571.424 566.399 554.741V316.848ZM433.066 151.293C433.066 145.725 438.044 141.207 444.177 141.207H488.621C494.754 141.207 499.732 145.725 499.732 151.293V227.807L433.066 167.29V151.293ZM333.066 105.038L414.088 178.586C414.099 178.596 414.11 178.606 414.121 178.617L502.977 259.276C502.988 259.286 502.999 259.296 503.01 259.306L528.477 282.424H137.678L333.066 105.038ZM455.288 564.827H388.622V423.621H455.288V564.827ZM544.176 554.741C544.176 560.309 539.199 564.827 533.065 564.827H477.51V413.534C477.51 407.957 472.543 403.448 466.399 403.448H377.511C371.366 403.448 366.4 407.957 366.4 413.534V564.827H133.067C126.945 564.827 121.956 560.309 121.956 554.741V312.672C121.956 307.105 126.945 302.586 133.067 302.586H533.065C539.199 302.586 544.176 307.105 544.176 312.672V554.741Z" fill="#322153"/>
<path d="M333.067 363.104H155.29C149.156 363.104 144.179 367.612 144.179 373.19V494.224C144.179 499.802 149.156 504.31 155.29 504.31H333.067C339.2 504.31 344.178 499.802 344.178 494.224V373.19C344.178 367.612 339.2 363.104 333.067 363.104ZM321.956 484.138H166.401V383.276H321.956V484.138Z" fill="#322153"/>
<path d="M55.2891 171.465C55.2891 199.273 80.2112 221.896 110.844 221.896C141.478 221.896 166.4 199.273 166.4 171.465C166.4 143.658 141.478 121.034 110.844 121.034C80.2112 121.034 55.2891 143.658 55.2891 171.465ZM144.178 171.465C144.178 188.148 129.222 201.724 110.844 201.724C92.4667 201.724 77.5112 188.148 77.5112 171.465C77.5112 154.783 92.4667 141.207 110.844 141.207C129.222 141.207 144.178 154.783 144.178 171.465Z" fill="#322153"/>
<path d="M177.512 100.862C195.89 100.862 210.845 87.2859 210.845 70.6033C210.845 53.9208 195.89 40.3447 177.512 40.3447C159.134 40.3447 144.179 53.9208 144.179 70.6033C144.179 87.2859 159.134 100.862 177.512 100.862ZM177.512 60.5171C183.634 60.5171 188.623 65.0358 188.623 70.6033C188.623 76.1709 183.634 80.6896 177.512 80.6896C171.39 80.6896 166.401 76.1709 166.401 70.6033C166.401 65.0358 171.39 60.5171 177.512 60.5171Z" fill="#322153"/>
<path d="M44.1789 60.5172C62.5566 60.5172 77.5121 46.9412 77.5121 30.2586C77.5121 13.576 62.5566 0 44.1789 0C25.8012 0 10.8457 13.576 10.8457 30.2586C10.8457 46.9412 25.8012 60.5172 44.1789 60.5172ZM44.1789 20.1724C50.3011 20.1724 55.2899 24.691 55.2899 30.2586C55.2899 35.8262 50.3011 40.3448 44.1789 40.3448C38.0567 40.3448 33.0678 35.8262 33.0678 30.2586C33.0678 24.691 38.0567 20.1724 44.1789 20.1724Z" fill="#322153"/>
</svg>
