<svg width="16" height="16" viewBox="0 0 16 16" fill="none" xmlns="http://www.w3.org/2000/svg">
<rect width="16" height="16" rx="8" fill="#0084FF"/>
<path d="M9.35291 11.8146C9.349 11.8159 8.98836 11.9359 8.67532 11.9359C8.5025 11.9359 8.43272 11.9001 8.41055 11.8844C8.30098 11.8081 8.09751 11.6653 8.44576 10.9713L9.09792 9.6708C9.48465 8.89857 9.54204 8.15179 9.2577 7.5674C9.02553 7.08933 8.58011 6.76127 8.00556 6.64387C7.79883 6.60148 7.58883 6.5806 7.38079 6.5806C6.17496 6.5806 5.36303 7.285 5.32912 7.315C5.21238 7.41805 5.18499 7.58893 5.2626 7.72328C5.34085 7.85764 5.50194 7.91895 5.65063 7.86808C5.65389 7.86677 6.01518 7.74611 6.32822 7.74611C6.49973 7.74611 6.56886 7.78198 6.59038 7.79698C6.7006 7.87395 6.90472 8.01874 6.55712 8.71139L5.90497 10.0126C5.51759 10.7854 5.46085 11.5322 5.74519 12.1159C5.97736 12.594 6.42213 12.9221 6.99798 13.0395C7.20276 13.0806 7.41275 13.1028 7.62014 13.1028C8.82662 13.1028 9.63921 12.3984 9.67312 12.3684C9.78985 12.266 9.81725 12.0944 9.73964 11.9601C9.66138 11.8264 9.49899 11.7664 9.35291 11.8146Z" fill="white"/>
<path d="M8.80575 5.92904C9.70619 5.92904 10.4361 5.19903 10.4361 4.29851C10.4361 3.39798 9.70619 2.66797 8.80575 2.66797C7.90532 2.66797 7.17537 3.39798 7.17537 4.29851C7.17537 5.19903 7.90532 5.92904 8.80575 5.92904Z" fill="white"/>
</svg>
