<svg width="16" height="16" viewBox="0 0 16 16" fill="none" xmlns="http://www.w3.org/2000/svg">
<rect width="16" height="16" rx="8" fill="#AAB4BC"/>
<path d="M9.35145 11.8134C9.34753 11.8147 8.98689 11.9347 8.67386 11.9347C8.50104 11.9347 8.43126 11.8988 8.40908 11.8832C8.29952 11.8069 8.09605 11.664 8.4443 10.9701L9.09645 9.66958C9.48318 8.89735 9.54057 8.15057 9.25623 7.56618C9.02406 7.08811 8.57864 6.76005 8.00409 6.64265C7.79736 6.60025 7.58737 6.57938 7.37933 6.57938C6.17349 6.57938 5.36156 7.28378 5.32765 7.31378C5.21091 7.41683 5.18352 7.58771 5.26113 7.72206C5.33939 7.85642 5.50047 7.91773 5.64916 7.86686C5.65242 7.86555 6.01372 7.74489 6.32675 7.74489C6.49827 7.74489 6.5674 7.78076 6.58892 7.79576C6.69913 7.87273 6.90326 8.01752 6.55566 8.71017L5.9035 10.0113C5.51612 10.7842 5.45939 11.531 5.74373 12.1147C5.97589 12.5928 6.42066 12.9209 6.99651 13.0383C7.20129 13.0794 7.41129 13.1015 7.61867 13.1015C8.82516 13.1015 9.63774 12.3971 9.67165 12.3671C9.78839 12.2647 9.81578 12.0932 9.73817 11.9588C9.65991 11.8251 9.49753 11.7651 9.35145 11.8134Z" fill="white"/>
<path d="M8.80429 5.92782C9.70473 5.92782 10.4347 5.19781 10.4347 4.29728C10.4347 3.39676 9.70473 2.66675 8.80429 2.66675C7.90385 2.66675 7.1739 3.39676 7.1739 4.29728C7.1739 5.19781 7.90385 5.92782 8.80429 5.92782Z" fill="white"/>
</svg>
