<svg width="100" height="41" viewBox="0 0 100 41" fill="none" xmlns="http://www.w3.org/2000/svg">
<path d="M21.2316 0V14.5804C21.2316 20.9091 17.6633 24.9301 10.6336 24.9301C3.56833 24.9301 0 20.9091 0 14.5804V0H5.88775V14.0909C5.88775 17.1678 7.4935 19.3357 10.6336 19.3357C13.7738 19.3357 15.3795 17.1678 15.3795 14.0909V0H21.2316Z" fill="#3290FF"/>
<path d="M33.7055 25C30.9935 25 29.1737 23.8462 28.1389 22.0979H28.0675V24.4755H24.5705V0H28.0675V10.6993H28.1389C29.1737 8.95105 30.9935 7.7972 33.7055 7.7972C38.0588 7.7972 41.7342 11.014 41.7342 16.3986C41.7342 21.7832 38.0588 25 33.7055 25ZM32.9561 21.6434C36.0249 21.6434 38.0231 19.4755 38.0231 16.3986C38.0231 13.3217 36.0249 11.1538 32.9561 11.1538C29.8873 11.1538 27.8891 13.3217 27.8891 16.3986C27.8891 19.4755 29.8873 21.6434 32.9561 21.6434Z" fill="#0F213C"/>
<path d="M53.7417 7.83217V11.8531H53.2064C49.7808 11.8531 47.9609 13.4615 47.9609 17.3077V24.4755H44.464V8.32168H47.9609V11.8531H48.0323C48.8173 9.44056 50.7086 7.83217 53.4919 7.83217H53.7417Z" fill="#0F213C"/>
<path d="M61.2989 25C56.9455 25 53.2701 21.7832 53.2701 16.3986C53.2701 11.014 56.9455 7.7972 61.2989 7.7972C64.0108 7.7972 65.8307 8.95105 66.8655 10.6993H66.9368V8.32168H70.4338V24.4755H66.9368V22.0979H66.8655C65.8307 23.8462 64.0108 25 61.2989 25ZM62.0482 21.6434C65.117 21.6434 67.1153 19.4755 67.1153 16.3986C67.1153 13.3217 65.117 11.1538 62.0482 11.1538C58.9795 11.1538 56.9812 13.3217 56.9812 16.3986C56.9812 19.4755 58.9795 21.6434 62.0482 21.6434Z" fill="#0F213C"/>
<path d="M81.9468 11.2238H78.5925V19.6853C78.5925 20.8392 79.0921 21.3636 80.3053 21.3636H81.1617V24.5105H79.556C76.6656 24.5105 75.0956 23.007 75.0956 20.3497V11.2238H72.1695V8.32168H75.0956V1.85315H78.5925V8.32168H81.9468V11.2238Z" fill="#0F213C"/>
<path d="M90.9721 7.7972C96.1462 7.7972 100 11.4336 100 16.3986C100 21.3636 96.1462 25 90.9721 25C85.798 25 81.9442 21.3636 81.9442 16.3986C81.9442 11.4336 85.798 7.7972 90.9721 7.7972ZM90.9721 11.1538C87.832 11.1538 85.6553 13.2168 85.6553 16.3986C85.6553 19.5804 87.832 21.6434 90.9721 21.6434C94.1123 21.6434 96.2889 19.5804 96.2889 16.3986C96.2889 13.2168 94.1123 11.1538 90.9721 11.1538Z" fill="#0F213C"/>
<path d="M6.10522 38.6222L5.36686 36.7276H1.99467L1.25631 38.6222H0L3.15179 31H4.20974L7.36153 38.6222H6.10522ZM2.40241 35.6822H4.95911L3.68076 32.4156L2.40241 35.6822Z" fill="#070C2C" fill-opacity="0.6"/>
<path d="M11.381 33.5916V34.5933H9.1549V38.6222H8.07492V33.5916H11.381Z" fill="#070C2C" fill-opacity="0.6"/>
<path d="M12.0999 40.8V33.5916H13.1799V34.332H13.2019C13.5215 33.7876 14.0835 33.4282 14.9211 33.4282C16.2655 33.4282 17.4006 34.43 17.4006 36.1069C17.4006 37.7838 16.2655 38.7856 14.9211 38.7856C14.0835 38.7856 13.5215 38.4262 13.2019 37.8818H13.1799V40.8H12.0999ZM14.6897 37.7402C15.6374 37.7402 16.2545 37.0651 16.2545 36.1069C16.2545 35.1487 15.6374 34.4736 14.6897 34.4736C13.7419 34.4736 13.1248 35.1487 13.1248 36.1069C13.1248 37.0651 13.7419 37.7402 14.6897 37.7402Z" fill="#070C2C" fill-opacity="0.6"/>
<path d="M20.6658 33.4282C22.2197 33.4282 23.1013 34.4844 23.1013 36.1069V36.2811H19.156C19.2001 37.174 19.8283 37.762 20.6989 37.762C21.5364 37.762 22.0103 37.2176 22.2638 36.88L23.0241 37.5878C22.6495 38.0996 21.9772 38.7856 20.7209 38.7856C19.1009 38.7856 18.065 37.7076 18.065 36.1178C18.065 34.5933 19.0348 33.4282 20.6658 33.4282ZM20.5997 34.4082C19.8724 34.4082 19.3434 34.7784 19.2111 35.508H21.9331C21.8891 34.8111 21.3711 34.4082 20.5997 34.4082Z" fill="#070C2C" fill-opacity="0.6"/>
<path d="M27.3948 33.5916V34.5933H25.1687V38.6222H24.0887V33.5916H27.3948Z" fill="#070C2C" fill-opacity="0.6"/>
<path d="M29.929 38.7856C28.5846 38.7856 27.4495 37.7838 27.4495 36.1069C27.4495 34.43 28.5846 33.4282 29.929 33.4282C30.7666 33.4282 31.3286 33.7876 31.6482 34.332H31.6702V33.5916H32.7502V38.6222H31.6702V37.8818H31.6482C31.3286 38.4262 30.7666 38.7856 29.929 38.7856ZM30.1604 37.7402C31.1082 37.7402 31.7253 37.0651 31.7253 36.1069C31.7253 35.1487 31.1082 34.4736 30.1604 34.4736C29.2127 34.4736 28.5956 35.1487 28.5956 36.1069C28.5956 37.0651 29.2127 37.7402 30.1604 37.7402Z" fill="#070C2C" fill-opacity="0.6"/>
<path d="M38.0872 33.5916V34.5716H36.3129V38.6222H35.2329V34.5716H33.4697V33.5916H38.0872Z" fill="#070C2C" fill-opacity="0.6"/>
<path d="M40.9242 33.4282C42.5222 33.4282 43.7123 34.5607 43.7123 36.1069C43.7123 37.6531 42.5222 38.7856 40.9242 38.7856C39.3263 38.7856 38.1361 37.6531 38.1361 36.1069C38.1361 34.5607 39.3263 33.4282 40.9242 33.4282ZM40.9242 34.4736C39.9544 34.4736 39.2822 35.116 39.2822 36.1069C39.2822 37.0978 39.9544 37.7402 40.9242 37.7402C41.894 37.7402 42.5662 37.0978 42.5662 36.1069C42.5662 35.116 41.894 34.4736 40.9242 34.4736Z" fill="#070C2C" fill-opacity="0.6"/>
<path d="M44.7086 40.8V33.5916H45.7886V34.332H45.8107C46.1303 33.7876 46.6923 33.4282 47.5298 33.4282C48.8743 33.4282 50.0094 34.43 50.0094 36.1069C50.0094 37.7838 48.8743 38.7856 47.5298 38.7856C46.6923 38.7856 46.1303 38.4262 45.8107 37.8818H45.7886V40.8H44.7086ZM47.2984 37.7402C48.2461 37.7402 48.8633 37.0651 48.8633 36.1069C48.8633 35.1487 48.2461 34.4736 47.2984 34.4736C46.3507 34.4736 45.7335 35.1487 45.7335 36.1069C45.7335 37.0651 46.3507 37.7402 47.2984 37.7402Z" fill="#070C2C" fill-opacity="0.6"/>
<path d="M58.7521 38.6222H57.3304L55.2807 36.1504V38.6222H54.2007V33.5916H55.2807V35.7367L57.099 33.5916H58.5206L56.3827 35.8782L58.7521 38.6222Z" fill="#070C2C" fill-opacity="0.6"/>
<path d="M63.9706 33.5916V38.6222H62.8906V34.5933H60.7967V37.2393C60.7967 38.2193 60.2457 38.6984 59.4413 38.6984H58.9123V37.7293H59.2649C59.6176 37.7293 59.7168 37.5442 59.7168 37.2284V33.5916H63.9706Z" fill="#070C2C" fill-opacity="0.6"/>
<path d="M65.2963 38.6222V33.5916H66.3763V36.9344H66.3983L68.9219 33.5916H69.9248V38.6222H68.8448V35.2793H68.8228L66.2991 38.6222H65.2963Z" fill="#070C2C" fill-opacity="0.6"/>
<path d="M74.9174 33.5916H75.9974V38.6222H74.9174V36.5098H72.3276V38.6222H71.2477V33.5916H72.3276V35.508H74.9174V33.5916Z" fill="#070C2C" fill-opacity="0.6"/>
<path d="M77.3174 38.6222V33.5916H78.3974V36.9344H78.4194L80.9431 33.5916H81.9459V38.6222H80.8659V35.2793H80.8439L78.3202 38.6222H77.3174Z" fill="#070C2C" fill-opacity="0.6"/>
<path d="M86.9385 33.5916H88.0185V38.6222H86.9385V36.5098H84.3487V38.6222H83.2688V33.5916H84.3487V35.508H86.9385V33.5916Z" fill="#070C2C" fill-opacity="0.6"/>
<path d="M92.6446 33.5916V34.5933H90.4185V38.6222H89.3385V33.5916H92.6446Z" fill="#070C2C" fill-opacity="0.6"/>
<path d="M95.1788 38.7856C93.8343 38.7856 92.6993 37.7838 92.6993 36.1069C92.6993 34.43 93.8343 33.4282 95.1788 33.4282C96.0164 33.4282 96.5784 33.7876 96.898 34.332H96.92V33.5916H98V38.6222H96.92V37.8818H96.898C96.5784 38.4262 96.0164 38.7856 95.1788 38.7856ZM95.4102 37.7402C96.358 37.7402 96.9751 37.0651 96.9751 36.1069C96.9751 35.1487 96.358 34.4736 95.4102 34.4736C94.4625 34.4736 93.8454 35.1487 93.8454 36.1069C93.8454 37.0651 94.4625 37.7402 95.4102 37.7402Z" fill="#070C2C" fill-opacity="0.6"/>
</svg>
