<svg width="101" height="26" viewBox="0 0 101 26" fill="none" xmlns="http://www.w3.org/2000/svg">
<path d="M21.4398 0.143066V14.7235C21.4398 21.0522 17.8715 25.0731 10.8419 25.0731C3.77658 25.0731 0.208252 21.0522 0.208252 14.7235V0.143066H6.096V14.234C6.096 17.3109 7.70175 19.4787 10.8419 19.4787C13.982 19.4787 15.5878 17.3109 15.5878 14.234V0.143066H21.4398Z" fill="#3290FF"/>
<path d="M33.9137 25.1431C31.2018 25.1431 29.3819 23.9892 28.3471 22.241H28.2757V24.6186H24.7788V0.143066H28.2757V10.8424H28.3471C29.3819 9.09412 31.2018 7.94027 33.9137 7.94027C38.2671 7.94027 41.9425 11.1571 41.9425 16.5417C41.9425 21.9263 38.2671 25.1431 33.9137 25.1431ZM33.1644 21.7864C36.2331 21.7864 38.2314 19.6186 38.2314 16.5417C38.2314 13.4647 36.2331 11.2969 33.1644 11.2969C30.0956 11.2969 28.0973 13.4647 28.0973 16.5417C28.0973 19.6186 30.0956 21.7864 33.1644 21.7864Z" fill="#0F213C"/>
<path d="M53.9499 7.97524V11.9962H53.4147C49.9891 11.9962 48.1692 13.6046 48.1692 17.4508V24.6186H44.6722V8.46475H48.1692V11.9962H48.2406C49.0256 9.58363 50.9168 7.97524 53.7001 7.97524H53.9499Z" fill="#0F213C"/>
<path d="M61.5071 25.1431C57.1538 25.1431 53.4784 21.9263 53.4784 16.5417C53.4784 11.1571 57.1538 7.94027 61.5071 7.94027C64.2191 7.94027 66.0389 9.09412 67.0737 10.8424H67.1451V8.46475H70.6421V24.6186H67.1451V22.241H67.0737C66.0389 23.9892 64.2191 25.1431 61.5071 25.1431ZM62.2565 21.7864C65.3252 21.7864 67.3235 19.6186 67.3235 16.5417C67.3235 13.4647 65.3252 11.2969 62.2565 11.2969C59.1877 11.2969 57.1894 13.4647 57.1894 16.5417C57.1894 19.6186 59.1877 21.7864 62.2565 21.7864Z" fill="#0F213C"/>
<path d="M82.155 11.3668H78.8008V19.8284C78.8008 20.9822 79.3004 21.5067 80.5136 21.5067H81.37V24.6536H79.7642C76.8739 24.6536 75.3038 23.1501 75.3038 20.4927V11.3668H72.3778V8.46475H75.3038V1.99621H78.8008V8.46475H82.155V11.3668Z" fill="#0F213C"/>
<path d="M91.1804 7.94027C96.3545 7.94027 100.208 11.5766 100.208 16.5417C100.208 21.5067 96.3545 25.1431 91.1804 25.1431C86.0063 25.1431 82.1525 21.5067 82.1525 16.5417C82.1525 11.5766 86.0063 7.94027 91.1804 7.94027ZM91.1804 11.2969C88.0402 11.2969 85.8635 13.3599 85.8635 16.5417C85.8635 19.7235 88.0402 21.7864 91.1804 21.7864C94.3205 21.7864 96.4972 19.7235 96.4972 16.5417C96.4972 13.3599 94.3205 11.2969 91.1804 11.2969Z" fill="#0F213C"/>
</svg>
