<svg width="17" height="17" viewBox="0 0 17 17" fill="none" xmlns="http://www.w3.org/2000/svg">
<path d="M10.9167 16.1042L7.375 12.5625L8.54167 11.3959L10.9167 13.7709L15.625 9.06254L16.7917 10.2292L10.9167 16.1042ZM15.5 7.83337H13.8333V3.66671H12.1667V6.16671H3.83333V3.66671H2.16667V15.3334H7.16667V17H2.16667C1.70833 17 1.31597 16.8368 0.989583 16.5105C0.663194 16.1841 0.5 15.7917 0.5 15.3334V3.66671C0.5 3.20837 0.663194 2.81601 0.989583 2.48962C1.31597 2.16323 1.70833 2.00004 2.16667 2.00004H5.64583C5.79861 1.51393 6.09722 1.11462 6.54167 0.802124C6.98611 0.489624 7.47222 0.333374 8 0.333374C8.55556 0.333374 9.05208 0.489624 9.48958 0.802124C9.92708 1.11462 10.2222 1.51393 10.375 2.00004H13.8333C14.2917 2.00004 14.684 2.16323 15.0104 2.48962C15.3368 2.81601 15.5 3.20837 15.5 3.66671V7.83337ZM8 3.66671C8.23611 3.66671 8.43403 3.58685 8.59375 3.42712C8.75347 3.2674 8.83333 3.06948 8.83333 2.83337C8.83333 2.59726 8.75347 2.39935 8.59375 2.23962C8.43403 2.0799 8.23611 2.00004 8 2.00004C7.76389 2.00004 7.56597 2.0799 7.40625 2.23962C7.24653 2.39935 7.16667 2.59726 7.16667 2.83337C7.16667 3.06948 7.24653 3.2674 7.40625 3.42712C7.56597 3.58685 7.76389 3.66671 8 3.66671Z" fill="#070C2C" fill-opacity="0.6"/>
</svg>
