<svg width="695" height="600" viewBox="0 0 695 600" fill="none" xmlns="http://www.w3.org/2000/svg">
<path d="M684.911 555.507H682.599C682.604 527.953 682.599 370.953 682.599 344.643C682.599 343.814 682.073 343.054 681.231 342.66L604.117 306.579L600.643 223.238C607.908 225.785 615.547 226.806 623.311 226.222C636.411 225.254 648.296 219.933 656.772 211.234C665.243 202.537 669.295 191.519 668.173 180.203C666.448 162.799 652.486 148.027 633.232 143.058C626.394 124.125 605.032 111.724 581.941 113.411C551.117 115.741 530.181 141.925 538.876 167.698C533.012 171.701 529.818 178.012 530.45 184.569C530.662 186.569 531.23 188.424 532.059 190.139C524.476 372.54 527.072 310.11 526.514 323.518L454.348 289.752L448.528 149.931C455.708 152.45 463.327 153.504 471.142 152.913C484.247 151.946 496.137 146.624 504.629 137.926C513.12 129.229 517.182 118.209 516.06 106.888C514.279 89.5086 500.291 74.761 481.063 69.796C474.23 50.8081 452.878 38.3756 429.828 40.1489C399.135 42.4086 377.981 68.434 386.707 94.3966C379.203 99.5545 376.035 108.477 379.906 116.82L372.043 304.551L340.998 290.047V171.249H343.504C347.403 171.249 350.577 168.509 350.577 165.141V150.86C350.577 147.492 347.403 144.752 343.504 144.752H14.5536C10.6497 144.752 7.47559 147.492 7.47559 150.86V165.141C7.47559 168.509 10.6497 171.249 14.5536 171.249H17.0592V555.507H16.0386C14.5944 555.507 13.4258 556.516 13.4258 557.763C13.4258 559.01 14.5944 560.019 16.0386 560.019H684.911C686.355 560.019 687.523 559.01 687.523 557.763C687.523 556.516 686.355 555.507 684.911 555.507ZM677.373 521.433H341.014V502.26H677.373V521.433ZM595.168 217.441H536.176L537.248 191.045H594.071C594.09 191.499 595.241 219.203 595.168 217.441ZM543.366 170.463L545.045 169.509C544.716 168.51 542.817 164.554 542.29 159.09C540.228 138.21 558.216 119.733 582.39 117.905C603.542 116.369 622.954 127.96 628.619 145.496L629.017 146.739L630.461 147.071C648.327 151.177 661.385 164.645 662.967 180.587C663.968 190.704 660.35 200.555 652.771 208.328C639.799 221.648 618.384 225.523 600.434 218.222L599.138 186.534H599.113L536.12 186.53C534.288 180.208 537.4 173.833 543.366 170.463ZM535.952 221.953H595.359L598.78 304.082L567.422 289.41C566.611 289.029 565.636 289.047 564.84 289.454C564.049 289.862 563.564 290.598 563.564 291.393V340.854L531.646 325.919L535.952 221.953ZM385.094 117.753H441.942L443.014 144.148H384.022L385.094 117.753ZM391.202 97.1478L392.881 96.1896C392.561 95.2214 390.79 91.7183 390.121 85.7815C388.054 64.8816 406.068 46.4268 430.282 44.6425C451.388 43.0631 470.78 54.6563 476.449 72.2345L476.848 73.4768L478.292 73.8094C496.137 77.9088 509.222 91.3633 510.855 107.278C511.855 117.391 508.226 127.242 500.633 135.02C493.045 142.796 482.41 147.554 470.693 148.42C462.957 149.002 455.279 147.749 448.319 144.914L447 113.221H384.007C383.787 112.457 383.627 111.667 383.538 110.853C382.971 105.424 385.91 100.172 391.202 97.1478ZM383.774 148.66H443.245L449.755 305.123L449.76 340.858L377.175 306.948L383.774 148.66ZM451.128 346.627C451.939 347.004 452.914 346.986 453.71 346.581C454.501 346.173 454.986 345.438 454.986 344.643V295.181L564.932 346.625C565.743 347.006 566.718 346.986 567.514 346.581C568.305 346.173 568.79 345.438 568.79 344.643V295.181L677.373 345.986V497.748H340.998V295.177L451.128 346.627ZM12.7011 165.141V150.86C12.7011 149.979 13.533 149.263 14.5536 149.263H343.504C344.524 149.263 345.351 149.979 345.351 150.86V165.141C345.351 166.022 344.524 166.738 343.504 166.738C268.512 166.738 79.5952 166.738 14.5536 166.738C13.533 166.738 12.7011 166.022 12.7011 165.141ZM22.2848 171.249H335.773V555.507H256.654V421.389H101.398V555.507H22.2848V171.249ZM251.429 425.901V555.494H181.639V425.901H251.429ZM176.413 555.494H106.624V425.901H176.413V555.494ZM340.998 555.507V525.944H677.373V555.507H340.998Z" fill="black"/>
<path d="M62.3852 259.895H126.363C127.807 259.895 128.975 258.887 128.975 257.64V202.407C128.975 201.161 127.807 200.152 126.363 200.152H62.3852C60.9411 200.152 59.7725 201.161 59.7725 202.407V257.64C59.7725 258.887 60.9411 259.895 62.3852 259.895ZM64.998 204.663H123.75V255.384H64.998V204.663Z" fill="black"/>
<path d="M147.04 259.895H211.012C212.456 259.895 213.625 258.887 213.625 257.64V202.407C213.625 201.161 212.456 200.152 211.012 200.152H147.04C145.595 200.152 144.427 201.161 144.427 202.407V257.64C144.427 258.887 145.595 259.895 147.04 259.895ZM149.652 204.663H208.399V255.384H149.652V204.663Z" fill="black"/>
<path d="M231.69 259.895H295.667C297.112 259.895 298.28 258.887 298.28 257.64V202.407C298.28 201.161 297.112 200.152 295.667 200.152H231.69C230.246 200.152 229.077 201.161 229.077 202.407V257.64C229.077 258.887 230.246 259.895 231.69 259.895ZM234.303 204.663H293.055V255.384H234.303V204.663Z" fill="black"/>
<path d="M62.3852 331.829H126.363C127.807 331.829 128.975 330.82 128.975 329.573V274.343C128.975 273.096 127.807 272.087 126.363 272.087H62.3852C60.9411 272.087 59.7725 273.096 59.7725 274.343V329.573C59.7725 330.82 60.9411 331.829 62.3852 331.829ZM64.998 276.599H123.75V327.318H64.998V276.599Z" fill="black"/>
<path d="M147.04 331.829H211.012C212.456 331.829 213.625 330.82 213.625 329.573V274.343C213.625 273.096 212.456 272.087 211.012 272.087H147.04C145.595 272.087 144.427 273.096 144.427 274.343V329.573C144.427 330.82 145.595 331.829 147.04 331.829ZM149.652 276.599H208.399V327.318H149.652V276.599Z" fill="black"/>
<path d="M231.69 331.829H295.667C297.112 331.829 298.28 330.82 298.28 329.573V274.343C298.28 273.096 297.112 272.087 295.667 272.087H231.69C230.246 272.087 229.077 273.096 229.077 274.343V329.573C229.077 330.82 230.246 331.829 231.69 331.829ZM234.303 276.599H293.055V327.318H234.303V276.599Z" fill="black"/>
<path d="M126.363 403.763C127.807 403.763 128.975 402.754 128.975 401.507V346.277C128.975 345.03 127.807 344.021 126.363 344.021H62.3852C60.9411 344.021 59.7725 345.03 59.7725 346.277V401.507C59.7725 402.754 60.9411 403.763 62.3852 403.763H126.363ZM64.998 348.533H123.75V399.252H64.998V348.533Z" fill="black"/>
<path d="M147.04 403.763H211.012C212.456 403.763 213.625 402.754 213.625 401.507V346.277C213.625 345.03 212.456 344.021 211.012 344.021H147.04C145.595 344.021 144.427 345.03 144.427 346.277V401.507C144.427 402.754 145.595 403.763 147.04 403.763ZM149.652 348.533H208.399V399.252H149.652V348.533Z" fill="black"/>
<path d="M231.69 403.763H295.667C297.112 403.763 298.28 402.754 298.28 401.507V346.277C298.28 345.03 297.112 344.021 295.667 344.021H231.69C230.246 344.021 229.077 345.03 229.077 346.277V401.507C229.077 402.754 230.246 403.763 231.69 403.763ZM234.303 348.533H293.055V399.252H234.303V348.533Z" fill="black"/>
<path d="M600.214 400.849H620.014C621.459 400.849 622.627 399.84 622.627 398.593V370.701C622.627 369.455 621.459 368.446 620.014 368.446H600.214C598.77 368.446 597.602 369.455 597.602 370.701V398.593C597.602 399.84 598.77 400.849 600.214 400.849ZM602.827 372.957H617.402V396.337H602.827V372.957Z" fill="black"/>
<path d="M633.675 400.849H653.47C654.914 400.849 656.083 399.84 656.083 398.593V370.701C656.083 369.455 654.914 368.446 653.47 368.446H633.675C632.231 368.446 631.062 369.455 631.062 370.701V398.593C631.062 399.84 632.231 400.849 633.675 400.849ZM636.288 372.957H650.857V396.337H636.288V372.957Z" fill="black"/>
<path d="M482.558 400.849H502.353C503.797 400.849 504.966 399.84 504.966 398.593V370.701C504.966 369.455 503.797 368.446 502.353 368.446H482.558C481.114 368.446 479.945 369.455 479.945 370.701V398.593C479.945 399.84 481.114 400.849 482.558 400.849ZM485.171 372.957H499.74V396.337H485.171V372.957Z" fill="black"/>
<path d="M516.014 400.849H535.814C537.258 400.849 538.427 399.84 538.427 398.593V370.701C538.427 369.455 537.258 368.446 535.814 368.446H516.014C514.57 368.446 513.401 369.455 513.401 370.701V398.593C513.401 399.84 514.57 400.849 516.014 400.849ZM518.627 372.957H533.201V396.337H518.627V372.957Z" fill="black"/>
<path d="M364.896 400.849H384.696C386.14 400.849 387.309 399.84 387.309 398.593V370.701C387.309 369.455 386.14 368.446 384.696 368.446H364.896C363.452 368.446 362.283 369.455 362.283 370.701V398.593C362.283 399.84 363.452 400.849 364.896 400.849ZM367.509 372.957H382.083V396.337H367.509V372.957Z" fill="black"/>
<path d="M398.352 400.849H418.152C419.596 400.849 420.765 399.84 420.765 398.593V370.701C420.765 369.455 419.596 368.446 418.152 368.446H398.352C396.908 368.446 395.739 369.455 395.739 370.701V398.593C395.739 399.84 396.908 400.849 398.352 400.849ZM400.965 372.957H415.539V396.337H400.965V372.957Z" fill="black"/>
<circle cx="588" cy="111" r="100" fill="#8CBEE9" fill-opacity="0.5"/>
<circle cx="588" cy="111" r="100" stroke="#8CBEE9"/>
</svg>
