<svg width="600" height="600" viewBox="0 0 600 600" fill="none" xmlns="http://www.w3.org/2000/svg">
<path d="M112.5 168.75C143.522 168.75 168.75 143.522 168.75 112.5C168.75 81.4781 143.522 56.25 112.5 56.25C81.4781 56.25 56.25 81.4781 56.25 112.5C56.25 143.522 81.4781 168.75 112.5 168.75ZM112.5 75C133.181 75 150 91.8187 150 112.5C150 133.181 133.181 150 112.5 150C91.8187 150 75 133.181 75 112.5C75 91.8187 91.8187 75 112.5 75Z" fill="black"/>
<path d="M121.875 9.375H103.125V37.5H121.875V9.375Z" fill="black"/>
<path d="M46.2034 32.9498L32.9434 46.2061L52.8277 66.0961L66.0877 52.8398L46.2034 32.9498Z" fill="black"/>
<path d="M37.5 103.125H9.375V121.875H37.5V103.125Z" fill="black"/>
<path d="M52.8354 158.908L32.9482 178.795L46.2064 192.053L66.0936 172.166L52.8354 158.908Z" fill="black"/>
<path d="M121.875 187.5H103.125V215.625H121.875V187.5Z" fill="black"/>
<path d="M172.169 158.912L158.909 172.168L178.794 192.058L192.054 178.802L172.169 158.912Z" fill="black"/>
<path d="M215.625 103.125H187.5V121.875H215.625V103.125Z" fill="black"/>
<path d="M178.796 32.9536L158.909 52.8408L172.167 66.0989L192.054 46.2118L178.796 32.9536Z" fill="black"/>
<path d="M545.4 240.178C524.494 214.031 504.909 186.422 487.2 158.081C473.025 135.412 448.612 121.875 421.875 121.875C397.678 121.875 375.459 133.05 360.938 151.959C346.416 133.05 324.197 121.875 300 121.875C273.263 121.875 248.85 135.412 234.675 158.081C216.966 186.412 197.381 214.031 176.475 240.169L136.116 290.625H9.375V300C9.375 320.85 24.2719 338.634 44.7844 342.3L263.25 381.309C268.247 382.2 271.875 386.531 271.875 391.612C271.875 395.353 269.85 398.841 266.606 400.697L219.937 427.359C211.5 432.188 206.25 441.225 206.25 450.947C206.25 465.938 218.438 478.125 233.419 478.125H350.016C353.447 478.125 356.25 480.919 356.25 484.359C356.25 487.303 354.244 489.806 351.366 490.444L137.916 537.881C117.431 542.428 103.125 560.269 103.125 581.25V590.625H590.625V296.709L545.4 240.178ZM372.45 168.019C383.175 150.863 401.653 140.625 421.875 140.625C442.097 140.625 460.575 150.863 471.3 168.019C489.384 196.959 509.381 225.178 530.747 251.887L561.741 290.625H282.009L313.003 251.887C334.359 225.178 354.366 196.959 372.45 168.019ZM191.128 251.887C212.484 225.178 232.491 196.969 250.575 168.028C261.3 150.863 279.778 140.625 300 140.625C320.222 140.625 338.7 150.863 349.425 168.019L349.772 168.572C333.862 193.219 316.659 217.275 298.341 240.169L258 290.625H160.134L191.128 251.887ZM571.875 571.875H123.619C126.637 564.075 133.369 558.094 141.994 556.172L355.444 508.734C366.956 506.184 375 496.153 375 484.359C375 470.578 363.797 459.375 350.016 459.375H233.419C228.778 459.375 225 455.597 225 450.956C225 447.947 226.631 445.144 229.238 443.644L275.906 416.981C284.991 411.788 290.625 402.075 290.625 391.612C290.625 377.438 280.5 365.344 266.55 362.85L48.0844 323.841C39.7688 322.359 33.1031 316.762 30 309.375H571.875V571.875Z" fill="black"/>
<path d="M56.25 365.625H37.5V384.375H56.25V365.625Z" fill="black"/>
<path d="M178.125 393.75H159.375V412.5H178.125V393.75Z" fill="black"/>
<path d="M121.875 450H103.125V468.75H121.875V450Z" fill="black"/>
<path d="M28.125 506.25H9.375V525H28.125V506.25Z" fill="black"/>
<path d="M84.375 553.125H65.625V571.875H84.375V553.125Z" fill="black"/>
<path d="M468.703 534.375C461.719 534.375 458.588 531.591 453.834 527.362C448.256 522.412 440.625 515.625 426.516 515.625C412.416 515.625 404.794 522.412 399.216 527.372C394.481 531.591 391.341 534.375 384.375 534.375V553.125C398.484 553.125 406.106 546.338 411.684 541.378C416.419 537.159 419.55 534.375 426.516 534.375C433.5 534.375 436.631 537.159 441.384 541.388C446.963 546.338 454.594 553.125 468.703 553.125C482.822 553.125 490.453 546.338 496.031 541.388C500.784 537.159 503.925 534.375 510.909 534.375C517.903 534.375 521.044 537.159 525.797 541.388C531.375 546.338 539.006 553.125 553.125 553.125V534.375C546.141 534.375 543 531.591 538.247 527.362C532.669 522.412 525.028 515.625 510.909 515.625C496.791 515.625 489.159 522.412 483.581 527.362C478.828 531.591 475.687 534.375 468.703 534.375Z" fill="black"/>
<path d="M360.891 356.25C367.875 356.25 371.006 359.034 375.759 363.263C381.338 368.213 388.969 375 403.078 375C417.197 375 424.828 368.213 430.406 363.263C435.159 359.034 438.3 356.25 445.284 356.25C452.278 356.25 455.419 359.034 460.172 363.263C465.75 368.213 473.381 375 487.5 375V356.25C480.516 356.25 477.375 353.466 472.622 349.237C467.044 344.287 459.403 337.5 445.284 337.5C431.166 337.5 423.534 344.287 417.956 349.237C413.203 353.466 410.062 356.25 403.078 356.25C396.094 356.25 392.963 353.466 388.209 349.237C382.631 344.287 375 337.5 360.891 337.5C346.791 337.5 339.169 344.287 333.591 349.247C328.856 353.466 325.716 356.25 318.75 356.25V375C332.859 375 340.481 368.213 346.059 363.253C350.794 359.034 353.925 356.25 360.891 356.25Z" fill="black"/>
<circle cx="469" cy="463" r="100" fill="#8CBEE9" fill-opacity="0.5"/>
<circle cx="469" cy="463" r="100" stroke="#8CBEE9"/>
</svg>
