<svg width="60" height="60" viewBox="0 0 60 60" fill="none" xmlns="http://www.w3.org/2000/svg">
<path d="M0 30C0 5.295 5.295 0 30 0C54.705 0 60 5.295 60 30C60 54.705 54.705 60 30 60C5.295 60 0 54.705 0 30Z" fill="#DAFFBC"/>
<path d="M14.2305 42.1026V39.9701H23.3565C22.7682 37.8533 21.6551 35.9726 20.0173 34.328C18.3795 32.6834 16.4506 31.5766 14.2305 31.0075C14.7468 30.9085 15.2609 30.8226 15.7726 30.75C16.2844 30.6774 16.8216 30.6411 17.3843 30.6411C20.9 30.6411 23.8814 31.6724 26.3287 33.7351C28.776 35.7977 29.9997 38.5869 29.9997 42.1026H14.2305ZM31.4099 42.1026C31.4099 41.4231 31.3602 40.8098 31.2609 40.2628C31.1615 39.7158 31.0242 39.1449 30.8491 38.5502C31.9267 36.1884 33.4811 34.2797 35.5125 32.8243C37.5438 31.3688 39.9114 30.6411 42.6151 30.6411C43.1777 30.6411 43.7149 30.6797 44.2267 30.757C44.7385 30.8342 45.2525 30.9316 45.7689 31.0491C43.5488 31.5997 41.6213 32.7099 39.9863 34.3798C38.3513 36.0497 37.2692 37.9131 36.7401 39.9701H45.7689V42.1026H31.4099ZM30.5157 37.2094C30.0513 35.1104 30.0212 33.1156 30.4254 31.2249C30.8296 29.3342 31.5777 27.6693 32.6696 26.2303C33.7614 24.7911 35.1208 23.6234 36.7476 22.7271C38.3743 21.8307 40.1802 21.3287 42.1653 21.2212C40.2479 22.4263 38.6678 23.9678 37.4249 25.8456C36.182 27.7235 35.4701 29.547 35.2892 31.3163C34.2486 31.8576 33.2509 32.7123 32.2961 33.8803C31.3414 35.0484 30.7479 36.1581 30.5157 37.2094ZM29.3266 34.9316C28.7803 34.2122 28.0757 33.4809 27.2128 32.7377C26.3499 31.9945 25.6111 31.4797 24.9965 31.1934C25.0876 30.9135 25.1558 30.4948 25.2011 29.9375C25.2463 29.3802 25.2689 28.9252 25.2689 28.5727C25.2689 26.5598 24.9489 24.666 24.309 22.8911C23.669 21.1161 22.7739 19.4943 21.6236 18.0256C23.5609 18.7992 25.3173 20.0947 26.8928 21.9124C28.4683 23.7301 29.5816 26.0954 30.2326 29.0086C29.8686 29.8533 29.6218 30.823 29.4922 31.9177C29.3626 33.0125 29.3074 34.0171 29.3266 34.9316Z" fill="#2C8800"/>
</svg>
