<svg width="32" height="25" viewBox="0 0 32 25" fill="none" xmlns="http://www.w3.org/2000/svg">
<path d="M0.230469 24.1026V21.9701H9.35651C8.7682 19.8533 7.65514 17.9726 6.0173 16.328C4.3795 14.6834 2.45055 13.5766 0.230469 13.0075C0.74683 12.9085 1.26089 12.8226 1.77264 12.75C2.28441 12.6774 2.82164 12.6411 3.3843 12.6411C6.89997 12.6411 9.88144 13.6724 12.3287 15.7351C14.776 17.7977 15.9997 20.5869 15.9997 24.1026H0.230469ZM17.4099 24.1026C17.4099 23.4231 17.3602 22.8098 17.2609 22.2628C17.1615 21.7158 17.0242 21.1449 16.8491 20.5502C17.9267 18.1884 19.4811 16.2797 21.5125 14.8243C23.5438 13.3688 25.9114 12.6411 28.6151 12.6411C29.1777 12.6411 29.7149 12.6797 30.2267 12.757C30.7385 12.8342 31.2525 12.9316 31.7689 13.0491C29.5488 13.5997 27.6213 14.7099 25.9863 16.3798C24.3513 18.0497 23.2692 19.9131 22.7401 21.9701H31.7689V24.1026H17.4099ZM16.5157 19.2094C16.0513 17.1104 16.0212 15.1156 16.4254 13.2249C16.8296 11.3342 17.5777 9.66934 18.6696 8.23026C19.7614 6.79115 21.1208 5.62341 22.7476 4.72705C24.3743 3.83069 26.1802 3.32873 28.1653 3.22118C26.2479 4.42629 24.6678 5.96777 23.4249 7.84563C22.182 9.72347 21.4701 11.547 21.2892 13.3163C20.2486 13.8576 19.2509 14.7123 18.2961 15.8803C17.3414 17.0484 16.7479 18.1581 16.5157 19.2094ZM15.3266 16.9316C14.7803 16.2122 14.0757 15.4809 13.2128 14.7377C12.3499 13.9945 11.6111 13.4797 10.9965 13.1934C11.0876 12.9135 11.1558 12.4948 11.2011 11.9375C11.2463 11.3802 11.2689 10.9252 11.2689 10.5727C11.2689 8.55984 10.9489 6.66597 10.309 4.89105C9.66902 3.11611 8.7739 1.4943 7.62359 0.0256348C9.56093 0.799163 11.3173 2.09475 12.8928 3.91238C14.4683 5.73005 15.5816 8.09544 16.2326 11.0086C15.8686 11.8533 15.6218 12.823 15.4922 13.9177C15.3626 15.0125 15.3074 16.0171 15.3266 16.9316Z" fill="#2C8800"/>
</svg>
