<svg width="16" height="20" viewBox="0 0 16 20" fill="none" xmlns="http://www.w3.org/2000/svg">
<rect y="2" width="16" height="16" rx="8" fill="#0084FF"/>
<path d="M9.35291 13.8137C9.349 13.815 8.98836 13.935 8.67532 13.935C8.5025 13.935 8.43272 13.8991 8.41055 13.8834C8.30098 13.8071 8.09751 13.6643 8.44576 12.9703L9.09792 11.6698C9.48465 10.8976 9.54204 10.1508 9.2577 9.56643C9.02553 9.08836 8.58011 8.76029 8.00556 8.64289C7.79883 8.6005 7.58883 8.57963 7.38079 8.57963C6.17496 8.57963 5.36303 9.28402 5.32912 9.31402C5.21238 9.41707 5.18499 9.58795 5.2626 9.72231C5.34085 9.85666 5.50194 9.91797 5.65063 9.8671C5.65389 9.86579 6.01518 9.74514 6.32822 9.74514C6.49973 9.74514 6.56886 9.78101 6.59038 9.79601C6.7006 9.87297 6.90472 10.0178 6.55712 10.7104L5.90497 12.0116C5.51759 12.7845 5.46085 13.5312 5.74519 14.115C5.97736 14.593 6.42213 14.9211 6.99798 15.0385C7.20276 15.0796 7.41275 15.1018 7.62014 15.1018C8.82662 15.1018 9.63921 14.3974 9.67312 14.3674C9.78985 14.265 9.81725 14.0934 9.73964 13.9591C9.66138 13.8254 9.49899 13.7654 9.35291 13.8137Z" fill="white"/>
<path d="M8.80575 7.92807C9.70619 7.92807 10.4361 7.19805 10.4361 6.29753C10.4361 5.39701 9.70619 4.66699 8.80575 4.66699C7.90532 4.66699 7.17537 5.39701 7.17537 6.29753C7.17537 7.19805 7.90532 7.92807 8.80575 7.92807Z" fill="white"/>
</svg>
