<svg width="60" height="60" viewBox="0 0 60 60" fill="none" xmlns="http://www.w3.org/2000/svg">
<path d="M0 30C0 5.295 5.295 0 30 0C54.705 0 60 5.295 60 30C60 54.705 54.705 60 30 60C5.295 60 0 54.705 0 30Z" fill="#E6F1FF"/>
<path d="M36.9998 23.9871V18.7136H22.9998V23.9871H20.8674V16.5812H39.1323V23.9871H36.9998ZM39.0496 30.7671C39.5485 30.7671 39.9765 30.586 40.3337 30.2239C40.6909 29.8618 40.8695 29.435 40.8695 28.9435C40.8695 28.4519 40.692 28.0275 40.3369 27.6703C39.9819 27.3132 39.554 27.1346 39.0533 27.1346C38.5519 27.1346 38.1238 27.3122 37.7691 27.6673C37.4144 28.0224 37.2371 28.4504 37.2371 28.9512C37.2371 29.4381 37.4144 29.8625 37.7691 30.2243C38.1238 30.5861 38.5506 30.7671 39.0496 30.7671ZM36.9998 42.3119V35.6623H22.9998V42.3119H36.9998ZM39.1323 44.4444H20.8674V37.735H14.6836V27.8461C14.6836 26.7839 15.0634 25.8752 15.8229 25.12C16.5825 24.3648 17.4961 23.9871 18.5639 23.9871H41.4358C42.5157 23.9871 43.4324 24.3648 44.1859 25.12C44.9394 25.8752 45.3161 26.7839 45.3161 27.8461V37.735H39.1323V44.4444ZM43.1836 35.6025V27.8451C43.1836 27.3565 43.0155 26.9467 42.6792 26.6159C42.3429 26.285 41.9388 26.1196 41.4668 26.1196H18.5639C18.0687 26.1196 17.6536 26.2871 17.3186 26.6221C16.9836 26.9571 16.8161 27.3614 16.8161 27.835V35.6025H20.8674V33.5299H39.1323V35.6025H43.1836Z" fill="#0075FF"/>
</svg>
