<svg width="32" height="29" viewBox="0 0 32 29" fill="none" xmlns="http://www.w3.org/2000/svg">
<path d="M22.9998 7.98714V2.71364H8.99984V7.98714H6.86739V0.581177H25.1323V7.98714H22.9998ZM25.0496 14.7671C25.5485 14.7671 25.9765 14.586 26.3337 14.2239C26.6909 13.8618 26.8695 13.435 26.8695 12.9435C26.8695 12.4519 26.692 12.0275 26.3369 11.6703C25.9819 11.3132 25.554 11.1346 25.0533 11.1346C24.5519 11.1346 24.1238 11.3122 23.7691 11.6673C23.4144 12.0224 23.2371 12.4504 23.2371 12.9512C23.2371 13.4381 23.4144 13.8625 23.7691 14.2243C24.1238 14.5861 24.5506 14.7671 25.0496 14.7671ZM22.9998 26.3119V19.6623H8.99984V26.3119H22.9998ZM25.1323 28.4444H6.86739V21.735H0.683594V11.8461C0.683594 10.7839 1.06337 9.87523 1.82293 9.12001C2.58248 8.36476 3.49615 7.98714 4.56393 7.98714H27.4358C28.5157 7.98714 29.4324 8.36476 30.1859 9.12001C30.9394 9.87523 31.3161 10.7839 31.3161 11.8461V21.735H25.1323V28.4444ZM29.1836 19.6025V11.8451C29.1836 11.3565 29.0155 10.9467 28.6792 10.6159C28.3429 10.285 27.9388 10.1196 27.4668 10.1196H4.56393C4.0687 10.1196 3.65359 10.2871 3.31859 10.6221C2.98359 10.9571 2.81609 11.3614 2.81609 11.835V19.6025H6.86739V17.5299H25.1323V19.6025H29.1836Z" fill="#0075FF"/>
</svg>
