<svg width="500" height="400" viewBox="0 0 500 400" fill="none" xmlns="http://www.w3.org/2000/svg">
<path d="M300 225H425V175H300V225ZM300 150H425V100H300V150ZM75 300H275V286.25C275 267.5 265.833 252.604 247.5 241.562C229.167 230.521 205 225 175 225C145 225 120.833 230.521 102.5 241.562C84.1667 252.604 75 267.5 75 286.25V300ZM175 200C188.75 200 200.521 195.104 210.312 185.312C220.104 175.521 225 163.75 225 150C225 136.25 220.104 124.479 210.312 114.688C200.521 104.896 188.75 100 175 100C161.25 100 149.479 104.896 139.688 114.688C129.896 124.479 125 136.25 125 150C125 163.75 129.896 175.521 139.688 185.312C149.479 195.104 161.25 200 175 200ZM50 400C36.25 400 24.4792 395.104 14.6875 385.312C4.89583 375.521 0 363.75 0 350V50C0 36.25 4.89583 24.4792 14.6875 14.6875C24.4792 4.89583 36.25 0 50 0H450C463.75 0 475.521 4.89583 485.312 14.6875C495.104 24.4792 500 36.25 500 50V350C500 363.75 495.104 375.521 485.312 385.312C475.521 395.104 463.75 400 450 400H50ZM50 350H450V50H50V350Z" fill="#0084FF"/>
</svg>
