<svg width="50" height="50" viewBox="0 0 50 50" fill="none" xmlns="http://www.w3.org/2000/svg">
<path d="M0 20C0 7 7 0 20 0H30C43 0 50 7 50 20V30C50 43 43 50 30 50H20C7 50 0 43 0 30V20Z" fill="#E0FFE7"/>
<path d="M23.987 37.0416V34.9167H33.4813C33.5903 34.9167 33.6902 34.8713 33.7811 34.7805C33.8719 34.6896 33.9173 34.5897 33.9173 34.4807V15.5193C33.9173 15.4103 33.8719 15.3104 33.7811 15.2196C33.6902 15.1287 33.5903 15.0833 33.4813 15.0833H23.987V12.9584H33.4813C34.1969 12.9584 34.8027 13.2063 35.2985 13.7021C35.7943 14.198 36.0423 14.8037 36.0423 15.5193V34.4807C36.0423 35.1963 35.7943 35.8021 35.2985 36.2979C34.8027 36.7937 34.1969 37.0416 33.4813 37.0416H23.987ZM22.0664 31.048L20.5953 29.5115L24.0443 26.0625H11.959V23.9375H24.0443L20.5953 20.4885L22.0664 18.952L28.1144 25L22.0664 31.048Z" fill="#09AC4A"/>
</svg>
