<svg width="513" height="513" viewBox="0 0 513 513" fill="none" xmlns="http://www.w3.org/2000/svg">
<path d="M242.5 400C202.5 397.917 168.75 382.5 141.25 353.75C113.75 325 100 290.417 100 250C100 208.333 114.583 172.917 143.75 143.75C172.917 114.583 208.333 100 250 100C290.417 100 325 113.75 353.75 141.25C382.5 168.75 397.917 202.5 400 242.5L347.5 226.875C342.083 204.375 330.417 185.938 312.5 171.562C294.583 157.188 273.75 150 250 150C222.5 150 198.958 159.792 179.375 179.375C159.792 198.958 150 222.5 150 250C150 273.75 157.188 294.583 171.562 312.5C185.938 330.417 204.375 342.083 226.875 347.5L242.5 400ZM272.5 498.75C268.75 499.583 265 500 261.25 500H250C215.417 500 182.917 493.438 152.5 480.312C122.083 467.188 95.625 449.375 73.125 426.875C50.625 404.375 32.8125 377.917 19.6875 347.5C6.5625 317.083 0 284.583 0 250C0 215.417 6.5625 182.917 19.6875 152.5C32.8125 122.083 50.625 95.625 73.125 73.125C95.625 50.625 122.083 32.8125 152.5 19.6875C182.917 6.5625 215.417 0 250 0C284.583 0 317.083 6.5625 347.5 19.6875C377.917 32.8125 404.375 50.625 426.875 73.125C449.375 95.625 467.188 122.083 480.312 152.5C493.438 182.917 500 215.417 500 250V261.25C500 265 499.583 268.75 498.75 272.5L450 257.5V250C450 194.167 430.625 146.875 391.875 108.125C353.125 69.375 305.833 50 250 50C194.167 50 146.875 69.375 108.125 108.125C69.375 146.875 50 194.167 50 250C50 305.833 69.375 353.125 108.125 391.875C146.875 430.625 194.167 450 250 450H257.5L272.5 498.75ZM463.125 512.5L356.25 405.625L325 500L250 250L500 325L405.625 356.25L512.5 463.125L463.125 512.5Z" fill="#0084FF"/>
</svg>
