<svg width="60" height="60" viewBox="0 0 60 60" fill="none" xmlns="http://www.w3.org/2000/svg">
<path d="M0 30C0 5.295 5.295 0 30 0C54.705 0 60 5.295 60 30C60 54.705 54.705 60 30 60C5.295 60 0 54.705 0 30Z" fill="#FFEEC4"/>
<path d="M23.1827 44.2222V42.0897H28.9477V35.8632C27.4627 35.5911 26.1548 34.9722 25.0241 34.0064C23.8934 33.0406 23.1019 31.8333 22.6496 30.3846C20.7059 30.2094 19.0746 29.435 17.7559 28.0614C16.4372 26.6878 15.7778 25.0434 15.7778 23.1282V21.3931C15.7778 20.8013 15.9817 20.2979 16.3895 19.883C16.7972 19.4681 17.3042 19.2607 17.9103 19.2607H22.2479V15.7778H37.7522V19.2607H42.0898C42.6959 19.2607 43.2028 19.4681 43.6106 19.883C44.0184 20.2979 44.2222 20.8013 44.2222 21.3931V23.1282C44.2222 25.0434 43.5629 26.6878 42.2442 28.0614C40.9254 29.435 39.2942 30.2094 37.3505 30.3846C36.8982 31.8333 36.1067 33.0406 34.976 34.0064C33.8453 34.9722 32.5467 35.5911 31.0802 35.8632V42.0897H36.8451V44.2222H23.1827ZM22.2479 28.1154V21.3931H17.9103V23.1282C17.9103 24.3953 18.3278 25.4911 19.163 26.4156C19.9981 27.3401 21.0264 27.9067 22.2479 28.1154ZM30 33.797C31.5413 33.797 32.8526 33.2553 33.9338 32.172C35.015 31.0886 35.5556 29.7763 35.5556 28.235V17.9102H24.4445V28.235C24.4445 29.7763 24.9851 31.0886 26.0663 32.172C27.1475 33.2553 28.4587 33.797 30 33.797ZM37.7522 28.1154C38.9737 27.9067 40.002 27.3401 40.8371 26.4156C41.6722 25.4911 42.0898 24.3953 42.0898 23.1282V21.3931H37.7522V28.1154Z" fill="#DB6E09"/>
</svg>
