<svg width="600" height="600" viewBox="0 0 600 600" fill="none" xmlns="http://www.w3.org/2000/svg">
<g clip-path="url(#clip0_2247_2480)">
<path d="M228.852 359.617C217.852 358.925 206.897 358.061 196.292 357.047C191.47 356.582 187.182 360.124 186.721 364.948C186.259 369.772 189.797 374.057 194.622 374.518C205.415 375.551 216.561 376.43 227.751 377.134C227.938 377.146 228.125 377.152 228.31 377.152C232.905 377.152 236.767 373.575 237.06 368.926C237.364 364.089 233.689 359.922 228.852 359.617Z" fill="black"/>
<path d="M413.281 364.948C412.819 360.123 408.552 356.579 403.709 357.047C393.105 358.059 382.149 358.925 371.147 359.617C366.31 359.921 362.635 364.09 362.94 368.926C363.231 373.576 367.094 377.151 371.69 377.151C371.875 377.151 372.061 377.146 372.249 377.134C383.439 376.43 394.587 375.55 405.38 374.518C410.205 374.058 413.743 369.772 413.281 364.948Z" fill="black"/>
<path d="M316.351 361.695C305.522 361.846 294.475 361.846 283.647 361.695C278.793 361.606 274.818 365.503 274.75 370.349C274.683 375.195 278.557 379.178 283.404 379.246C288.899 379.322 294.483 379.361 300 379.361C305.516 379.361 311.099 379.322 316.593 379.246C321.439 379.178 325.314 375.196 325.247 370.349C325.18 365.502 321.189 361.596 316.351 361.695Z" fill="black"/>
<path d="M500.312 350.827C499.281 346.091 494.613 343.086 489.871 344.116C479.835 346.298 469.096 348.325 457.95 350.137C453.166 350.917 449.919 355.425 450.698 360.21C451.399 364.516 455.123 367.577 459.35 367.577C459.818 367.577 460.293 367.54 460.771 367.462C472.22 365.599 483.265 363.514 493.601 361.267C498.338 360.237 501.341 355.563 500.312 350.827Z" fill="black"/>
<path d="M142.05 350.137C130.897 348.323 120.159 346.297 110.131 344.116C105.394 343.084 100.72 346.09 99.6909 350.826C98.6597 355.563 101.666 360.238 106.401 361.268C116.728 363.514 127.774 365.598 139.23 367.462C139.707 367.54 140.182 367.577 140.65 367.577C144.876 367.577 148.6 364.516 149.302 360.21C150.08 355.426 146.833 350.917 142.05 350.137Z" fill="black"/>
<path d="M423.811 430.775C423.349 425.951 419.083 422.407 414.239 422.874C403.635 423.887 392.679 424.753 381.677 425.444C376.841 425.749 373.166 429.917 373.47 434.754C373.763 439.404 377.625 442.979 382.22 442.979C382.405 442.979 382.592 442.973 382.779 442.962C393.969 442.257 405.117 441.377 415.91 440.346C420.735 439.885 424.273 435.6 423.811 430.775Z" fill="black"/>
<path d="M218.321 425.446C207.321 424.755 196.366 423.89 185.761 422.876C180.938 422.411 176.65 425.953 176.19 430.777C175.728 435.601 179.265 439.886 184.091 440.347C194.884 441.38 206.029 442.259 217.22 442.963C217.407 442.975 217.593 442.981 217.779 442.981C222.374 442.981 226.236 439.404 226.529 434.755C226.833 429.918 223.158 425.751 218.321 425.446Z" fill="black"/>
<path d="M510.843 416.656C509.812 411.92 505.145 408.915 500.402 409.945C490.367 412.128 479.628 414.153 468.481 415.967C463.698 416.746 460.45 421.254 461.23 426.039C461.931 430.345 465.655 433.406 469.882 433.406C470.349 433.406 470.824 433.369 471.302 433.292C482.751 431.428 493.796 429.343 504.132 427.096C508.869 426.066 511.872 421.392 510.843 416.656Z" fill="black"/>
<path d="M131.518 415.966C120.365 414.152 109.627 412.126 99.5996 409.945C94.8629 408.913 90.1882 411.919 89.1593 416.655C88.1293 421.392 91.1339 426.067 95.8695 427.097C106.196 429.343 117.242 431.427 128.698 433.291C129.175 433.369 129.65 433.406 130.119 433.406C134.345 433.406 138.069 430.345 138.771 426.039C139.549 421.255 136.302 416.746 131.518 415.966Z" fill="black"/>
<path d="M564.643 420.317L598.098 258.839C599.353 255.558 600 252.199 600 248.765C600 235.667 590.842 223.647 572.782 213.041C564.657 208.271 554.737 203.778 543.145 199.588C543.043 199.553 542.945 199.511 542.843 199.479C534.639 196.526 525.591 193.726 515.74 191.091C515.749 191.093 515.759 191.096 515.768 191.098V156.736L576.336 135.239C580.925 133.61 584.009 129.245 584.009 124.376C584.009 119.507 580.925 115.142 576.338 113.514L509.927 89.944C507.24 88.9877 504.257 89.4014 501.929 91.0455C499.601 92.6909 498.216 95.3627 498.216 98.2139V186.769C445.972 174.908 379.466 168.203 308.776 167.69V135.305L369.346 113.808C373.935 112.179 377.018 107.814 377.018 102.945C377.018 98.0756 373.935 93.7104 369.346 92.0815H369.347L302.936 68.5116C300.248 67.5565 297.265 67.969 294.938 69.6131C292.609 71.2584 291.224 73.9303 291.224 76.7815V167.689C220.542 168.202 154.045 174.905 101.804 186.763C101.829 186.757 101.854 186.751 101.879 186.746V156.733L162.448 135.236C167.037 133.607 170.12 129.242 170.12 124.372C170.12 119.503 167.037 115.138 162.449 113.51L96.0387 89.9405C93.3516 88.9842 90.368 89.3979 88.0406 91.042C85.7121 92.6873 84.327 95.3592 84.327 98.2104V191.07C60.3574 197.474 41.1609 204.85 27.218 213.038C9.1582 223.647 0 235.665 0 248.765C0 252.567 0.796875 256.278 2.33437 259.89L38.9461 418.705C13.6945 429.734 0.895312 442.674 0.895312 457.225C0.895312 480.012 31.8035 498.591 92.7609 512.448C148.216 525.054 221.815 531.995 299.999 531.995C378.184 531.995 451.781 525.053 507.238 512.448C568.195 498.592 599.104 480.012 599.104 457.225C599.105 443.371 587.514 430.974 564.643 420.317ZM515.767 110.64L554.464 124.375L515.767 138.109V110.64ZM101.879 110.64L140.577 124.375L101.879 138.109V110.64ZM503.81 206.134C509.438 207.532 514.818 208.995 519.956 210.506L490.039 229.861C485.971 232.493 484.806 237.927 487.439 241.996C489.118 244.593 491.938 246.006 494.815 246.006C496.447 246.006 498.1 245.55 499.574 244.598L541.26 217.629C550.089 221.004 557.709 224.544 563.895 228.176C575.859 235.203 582.448 242.514 582.448 248.764C582.448 250.617 581.854 252.566 580.726 254.571C578.568 258.292 572.872 264.915 558.008 272.557C544.506 279.435 525.96 285.892 503.81 291.394C502.338 291.76 500.846 292.118 499.349 292.476C498.846 292.595 498.341 292.715 497.834 292.833C496.888 293.055 495.933 293.274 494.978 293.493C494.557 293.589 494.145 293.685 493.719 293.781C480.371 296.79 466.023 299.458 450.88 301.767C447.756 296.467 441.911 291.679 433.375 287.425L465.131 266.881C469.2 264.249 470.365 258.815 467.732 254.746C465.098 250.676 459.668 249.51 455.596 252.144L412.987 279.709C410.291 278.918 407.467 278.154 404.504 277.419C394.521 274.94 383.367 272.865 371.385 271.211L427.235 192.501C455.259 195.922 481.113 200.496 503.81 206.134ZM308.775 89.2104L347.474 102.945L308.775 116.679V89.2104ZM308.775 185.243C343.05 185.495 376.276 187.221 407.277 190.296L351.483 268.929C337.888 267.669 323.534 266.912 308.775 266.697V185.243ZM300 284.178C337.986 284.178 373.597 287.827 400.275 294.453C414.601 298.01 423.456 301.74 428.768 304.813C428.648 304.828 428.531 304.844 428.412 304.858C426.154 305.137 423.881 305.407 421.596 305.671C421.113 305.727 420.626 305.78 420.142 305.835C418.249 306.049 416.35 306.26 414.439 306.465C413.846 306.529 413.251 306.591 412.657 306.654C410.688 306.862 408.71 307.063 406.723 307.259C406.33 307.298 405.939 307.337 405.546 307.375C397.958 308.113 390.248 308.772 382.436 309.348C382.389 309.352 382.342 309.355 382.295 309.359C371.732 310.136 360.986 310.764 350.111 311.237C350.003 311.242 349.895 311.247 349.787 311.251C347.123 311.366 344.453 311.473 341.775 311.57C341.747 311.571 341.72 311.573 341.692 311.574C336.313 311.768 330.907 311.924 325.48 312.042C325.061 312.052 324.639 312.059 324.218 312.067C322.091 312.112 319.961 312.149 317.827 312.182C317.107 312.192 316.387 312.203 315.667 312.212C313.75 312.238 311.83 312.258 309.909 312.274C309.179 312.28 308.449 312.288 307.718 312.293C305.147 312.31 302.575 312.321 299.999 312.321C297.429 312.321 294.862 312.311 292.298 312.293C291.561 312.288 290.825 312.28 290.088 312.274C288.19 312.258 286.291 312.238 284.396 312.214C283.649 312.203 282.902 312.192 282.156 312.182C280.068 312.15 277.982 312.113 275.899 312.069C275.434 312.06 274.968 312.052 274.502 312.041C269.176 311.924 263.87 311.772 258.589 311.582C258.295 311.571 258.004 311.56 257.709 311.549C255.328 311.462 252.953 311.367 250.582 311.265C250.26 311.251 249.938 311.237 249.615 311.223C241.673 310.875 233.8 310.445 226.017 309.935C225.695 309.914 225.374 309.892 225.053 309.871C222.818 309.722 220.59 309.566 218.371 309.405C217.957 309.374 217.543 309.345 217.13 309.314C214.725 309.136 212.329 308.951 209.943 308.756C209.837 308.748 209.73 308.74 209.625 308.732C207.144 308.529 204.675 308.317 202.218 308.098C201.64 308.046 201.066 307.992 200.489 307.94C198.737 307.78 196.991 307.617 195.253 307.45C194.334 307.361 193.419 307.271 192.505 307.18C191.119 307.042 189.737 306.901 188.359 306.757C187.332 306.651 186.304 306.544 185.282 306.435C183.973 306.294 182.674 306.149 181.375 306.004C179.416 305.785 177.466 305.56 175.528 305.33C174.486 305.206 173.442 305.084 172.405 304.957C172.015 304.909 171.628 304.859 171.239 304.811C176.552 301.738 185.404 298.01 199.725 294.454C226.403 287.827 262.015 284.178 300 284.178ZM291.224 185.243V266.697C276.436 266.912 262.052 267.673 248.433 268.937L192.639 190.305C223.663 187.224 256.918 185.495 291.224 185.243ZM19.8434 255.512C19.6875 255.266 19.5223 255.019 19.3805 254.773C19.3512 254.723 19.3289 254.673 19.3008 254.624C19.0711 254.215 18.8578 253.806 18.6691 253.397C17.9367 251.806 17.5512 250.254 17.5512 248.765C17.5512 242.515 24.1406 235.203 36.1043 228.177C42.293 224.543 49.9184 221.002 58.7519 217.626L100.445 244.599C101.919 245.553 103.57 246.007 105.204 246.007C108.081 246.007 110.9 244.593 112.58 241.997C115.213 237.928 114.048 232.494 109.979 229.862L80.0555 210.503C85.1906 208.992 90.566 207.531 96.1875 206.134C118.862 200.502 144.689 195.931 172.68 192.51L228.531 271.221C216.579 272.874 205.453 274.943 195.492 277.418C192.536 278.153 189.716 278.915 187.024 279.705L144.423 252.144C140.354 249.512 134.921 250.675 132.287 254.746C129.654 258.815 130.819 264.249 134.887 266.881L166.635 287.419C158.095 291.673 152.246 296.462 149.12 301.764C134.382 299.516 120.397 296.931 107.36 294.021C105.854 293.685 104.364 293.345 102.887 293.001C102.859 292.994 102.831 292.988 102.804 292.981C101.336 292.639 99.8824 292.292 98.4445 291.941C98.4129 291.933 98.3801 291.926 98.3484 291.918C75.3832 286.319 56.3684 279.762 42.5449 272.834C42.252 272.686 41.9473 272.541 41.659 272.393C41.5207 272.322 41.3895 272.25 41.2523 272.18C39.4441 271.244 37.7215 270.301 36.1043 269.351C28.2422 264.734 22.718 259.995 19.8434 255.512ZM38.8207 340.023C42.9176 341.942 47.3473 343.821 52.0535 345.631C53.0883 346.029 54.1535 346.218 55.2 346.218C58.7262 346.218 62.0531 344.077 63.3937 340.589C65.134 336.065 62.8758 330.988 58.3523 329.248C52.5469 327.015 47.2313 324.687 42.552 322.327C39.9996 321.039 37.118 321.126 34.7344 322.294L25.8223 283.634C26.2898 283.919 26.7387 284.206 27.2191 284.488C42.6141 293.529 64.3957 301.583 91.9594 308.431C92.4879 308.562 93.0293 308.689 93.5613 308.82C93.5648 308.821 93.5684 308.821 93.5707 308.822C95.2207 309.225 96.8836 309.625 98.5641 310.017C98.6063 310.027 98.6473 310.036 98.6894 310.047C148.547 321.688 211.866 328.551 279.6 329.7C279.743 329.703 279.887 329.705 280.03 329.707C280.198 329.71 280.366 329.712 280.534 329.715C280.788 329.719 281.044 329.723 281.298 329.727C282.95 329.753 284.603 329.779 286.261 329.797C286.857 329.805 287.456 329.808 288.053 329.814C288.476 329.819 288.899 329.822 289.322 329.826C289.898 329.83 290.474 329.837 291.05 329.841C291.73 329.846 292.409 329.853 293.089 329.857C294.311 329.864 295.535 329.865 296.759 329.868C297.839 329.87 298.917 329.877 299.999 329.877C301.223 329.877 302.443 329.87 303.666 329.865C304.755 329.862 305.848 329.862 306.936 329.855C307.608 329.851 308.278 329.844 308.948 329.84C309.525 329.835 310.102 329.829 310.678 329.824C311.143 329.82 311.61 329.816 312.075 329.812C312.657 329.806 313.24 329.802 313.821 329.795C315.451 329.776 317.075 329.752 318.701 329.726C318.955 329.721 319.211 329.719 319.465 329.714C319.672 329.711 319.88 329.708 320.087 329.705C320.241 329.703 320.394 329.7 320.546 329.698C387.094 328.56 449.372 321.907 498.8 310.626C499.846 310.388 500.883 310.149 501.908 309.908C502.461 309.778 503.012 309.648 503.562 309.517C505.073 309.157 506.57 308.796 508.036 308.432C508.037 308.432 508.039 308.431 508.042 308.431C508.049 308.43 508.056 308.427 508.063 308.426C509.684 308.024 511.268 307.619 512.832 307.212C513.013 307.165 513.193 307.118 513.373 307.071C516.621 306.223 519.75 305.366 522.764 304.501C522.851 304.477 522.938 304.452 523.023 304.428C524.488 304.006 525.925 303.583 527.336 303.157C527.582 303.083 527.824 303.008 528.069 302.935C529.256 302.574 530.427 302.213 531.577 301.849C532.031 301.706 532.482 301.562 532.932 301.418C533.793 301.143 534.643 300.866 535.482 300.589C536.179 300.359 536.87 300.129 537.555 299.898C537.557 299.898 537.558 299.897 537.558 299.897C551.585 295.162 563.381 290.011 572.783 284.49C573.601 284.01 574.38 283.524 575.161 283.037L566.824 323.275C564.229 321.235 560.591 320.744 557.449 322.329C552.765 324.692 547.448 327.02 541.648 329.25C537.123 330.99 534.866 336.068 536.606 340.592C537.947 344.08 541.273 346.22 544.8 346.22C545.846 346.22 546.912 346.031 547.946 345.633C553.6 343.459 558.836 341.181 563.597 338.854L546.016 423.712L541.397 446.008C541.305 446.242 541.225 446.481 541.154 446.725C537.759 450.606 516.959 459.656 460.151 467.824C430.859 472.036 397.881 475.15 364.553 476.957V421.398C364.553 409.667 355.009 400.123 343.277 400.123H256.72C244.99 400.123 235.446 409.667 235.446 421.398V476.929C202.67 475.116 170.441 472.012 142.001 467.819C86.8793 459.692 66.777 450.664 63.5461 446.802C63.4523 446.469 63.341 446.145 63.2109 445.83L60.6035 434.52L38.8207 340.023ZM347 421.398V477.784C346.098 477.821 345.197 477.856 344.296 477.891C342.348 477.965 340.403 478.036 338.462 478.101C336.897 478.152 335.334 478.199 333.771 478.246C331.904 478.301 330.041 478.353 328.182 478.399C326.584 478.439 324.99 478.473 323.395 478.506C321.572 478.544 319.752 478.579 317.939 478.608C316.345 478.634 314.756 478.654 313.17 478.673C311.7 478.69 310.236 478.703 308.775 478.716V417.676H343.277C345.33 417.675 347 419.345 347 421.398ZM291.224 417.676V478.715C289.787 478.703 288.349 478.689 286.905 478.673C285.267 478.653 283.628 478.632 281.985 478.605C280.291 478.578 278.592 478.544 276.891 478.508C275.135 478.472 273.379 478.433 271.618 478.39C270.022 478.35 268.421 478.305 266.821 478.258C264.948 478.203 263.075 478.146 261.2 478.083C259.706 478.033 258.211 477.976 256.714 477.92C255.477 477.873 254.238 477.823 253.001 477.773V421.399C253.001 419.346 254.671 417.676 256.723 417.676H291.224ZM563.358 475.18C549.628 482.56 528.877 489.528 503.348 495.331C449.132 507.654 376.914 514.442 300 514.442C223.086 514.442 150.87 507.654 96.6527 495.331C71.1246 489.528 50.373 482.561 36.6434 475.18C25.0805 468.967 18.4488 462.421 18.4488 457.223C18.4488 449.142 32.3941 441.1 42.9715 436.164L46.4262 451.146C46.4977 451.458 46.5879 451.76 46.6898 452.056C46.7168 452.133 46.7508 452.206 46.7801 452.282C46.8609 452.496 46.9453 452.71 47.0414 452.915C47.0508 452.933 47.0566 452.955 47.066 452.974C49.7203 460.362 58.7086 466.204 75.6879 471.685C89.9824 476.298 109.436 480.537 133.509 484.285C177.319 491.103 230.326 495.325 281.494 496.158C281.674 496.16 281.855 496.164 282.035 496.167C286.102 496.232 290.157 496.276 294.195 496.298C294.202 496.298 294.21 496.298 294.217 496.298C294.223 496.298 294.229 496.298 294.234 496.298C296.161 496.308 298.084 496.314 300.001 496.314C301.941 496.314 303.867 496.307 305.8 496.298C306.452 496.294 307.118 496.281 307.772 496.276C310.438 496.258 313.112 496.228 315.793 496.191C316.972 496.174 318.144 496.162 319.328 496.14C322.908 496.081 326.497 496.003 330.095 495.911C330.359 495.904 330.621 495.899 330.885 495.892C378.572 494.635 427.454 490.564 468.8 484.288C493.173 480.589 513.709 476.239 528.189 471.707C545.96 466.145 554.988 460.437 557.634 452.939C557.654 452.897 557.667 452.853 557.686 452.81C557.775 452.614 557.855 452.412 557.93 452.207C557.967 452.106 558.008 452.008 558.042 451.906C558.143 451.596 558.231 451.281 558.299 450.955L560.979 438.022C579.901 447.563 581.555 454.961 581.555 457.223C581.552 462.422 574.921 468.967 563.358 475.18Z" fill="black"/>
<circle cx="424" cy="68" r="100" fill="#8CBEE9" fill-opacity="0.5"/>
<circle cx="424" cy="68" r="100" stroke="#8CBEE9"/>
</g>
<defs>
<clipPath id="clip0_2247_2480">
<rect width="600" height="600" fill="white"/>
</clipPath>
</defs>
</svg>
