<svg width="50" height="50" viewBox="0 0 50 50" fill="none" xmlns="http://www.w3.org/2000/svg">
<path d="M0 20C0 7 7 0 20 0H30C43 0 50 7 50 20V30C50 43 43 50 30 50H20C7 50 0 43 0 30V20Z" fill="#FFE0E5"/>
<path d="M15.5199 37.0417C14.8134 37.0417 14.2099 36.7915 13.7096 36.2911C13.2092 35.7907 12.959 35.1873 12.959 34.4807V15.5193C12.959 14.8128 13.2092 14.2093 13.7096 13.709C14.2099 13.2086 14.8134 12.9584 15.5199 12.9584H21.8241C21.913 12.172 22.2563 11.5032 22.8538 10.9519C23.4514 10.4007 24.167 10.1251 25.0006 10.1251C25.8433 10.1251 26.5635 10.4007 27.161 10.9519C27.7585 11.5032 28.0973 12.172 28.1772 12.9584H34.4813C35.1879 12.9584 35.7913 13.2086 36.2917 13.709C36.7921 14.2093 37.0423 14.8128 37.0423 15.5193V24.4796C36.6935 24.3307 36.3444 24.2045 35.9947 24.101C35.6451 23.9975 35.286 23.9148 34.9173 23.8531V15.5193C34.9173 15.4103 34.8719 15.3104 34.7811 15.2196C34.6902 15.1288 34.5903 15.0834 34.4813 15.0834H15.5199C15.4109 15.0834 15.311 15.1288 15.2202 15.2196C15.1294 15.3104 15.0839 15.4103 15.0839 15.5193V34.4807C15.0839 34.5897 15.1294 34.6896 15.2202 34.7805C15.311 34.8713 15.4109 34.9167 15.5199 34.9167H23.8183C23.8709 35.309 23.949 35.6799 24.0525 36.0296C24.1561 36.3792 24.2823 36.7166 24.4312 37.0417H15.5199ZM15.0839 33.5V34.9167V15.0834V23.8531V23.7468V33.5ZM18.2715 31.5657H23.9627C24.0244 31.197 24.1161 30.8379 24.2378 30.4882C24.3595 30.1386 24.4921 29.7895 24.6356 29.4407H18.2715V31.5657ZM18.2715 26.0625H27.2537C27.864 25.5449 28.5151 25.1113 29.207 24.7616C29.899 24.412 30.64 24.1637 31.4301 24.0165V23.9376H18.2715V26.0625ZM18.2715 20.5593H31.7297V18.4343H18.2715V20.5593ZM25.0006 14.1571C25.3076 14.1571 25.5614 14.0567 25.7621 13.856C25.9628 13.6553 26.0631 13.4015 26.0631 13.0946C26.0631 12.7876 25.9628 12.5338 25.7621 12.3331C25.5614 12.1324 25.3076 12.0321 25.0006 12.0321C24.6937 12.0321 24.4399 12.1324 24.2392 12.3331C24.0385 12.5338 23.9381 12.7876 23.9381 13.0946C23.9381 13.4015 24.0385 13.6553 24.2392 13.856C24.4399 14.0567 24.6937 14.1571 25.0006 14.1571ZM33.5006 39.9567C31.7316 39.9567 30.2269 39.3365 28.9864 38.096C27.7459 36.8555 27.1257 35.3508 27.1257 33.5818C27.1257 31.8128 27.7459 30.308 28.9864 29.0675C30.2269 27.827 31.7316 27.2068 33.5006 27.2068C35.2696 27.2068 36.7744 27.827 38.0149 29.0675C39.2553 30.308 39.8756 31.8128 39.8756 33.5818C39.8756 35.3508 39.2553 36.8555 38.0149 38.096C36.7744 39.3365 35.2696 39.9567 33.5006 39.9567ZM32.874 37.75H34.1272V34.2084H37.6689V32.9552H34.1272V29.4135H32.874V32.9552H29.3324V34.2084H32.874V37.75Z" fill="#FF002E"/>
</svg>
