<svg width="475" height="500" viewBox="0 0 475 500" fill="none" xmlns="http://www.w3.org/2000/svg">
<path d="M350 500V425H275V375H350V300H400V375H475V425H400V500H350ZM50 450C36.25 450 24.4792 445.104 14.6875 435.312C4.89583 425.521 0 413.75 0 400V50C0 36.25 4.89583 24.4792 14.6875 14.6875C24.4792 4.89583 36.25 0 50 0H400C413.75 0 425.521 4.89583 435.312 14.6875C445.104 24.4792 450 36.25 450 50V270.625C442.5 266.042 434.583 262.292 426.25 259.375C417.917 256.458 409.167 254.167 400 252.5V50H50V400H225C225 408.75 225.625 417.292 226.875 425.625C228.125 433.958 230.208 442.083 233.125 450H50ZM125 350C132.083 350 138.021 347.604 142.812 342.812C147.604 338.021 150 332.083 150 325C150 317.917 147.604 311.979 142.812 307.188C138.021 302.396 132.083 300 125 300C117.917 300 111.979 302.396 107.188 307.188C102.396 311.979 100 317.917 100 325C100 332.083 102.396 338.021 107.188 342.812C111.979 347.604 117.917 350 125 350ZM125 250C132.083 250 138.021 247.604 142.812 242.812C147.604 238.021 150 232.083 150 225C150 217.917 147.604 211.979 142.812 207.188C138.021 202.396 132.083 200 125 200C117.917 200 111.979 202.396 107.188 207.188C102.396 211.979 100 217.917 100 225C100 232.083 102.396 238.021 107.188 242.812C111.979 247.604 117.917 250 125 250ZM125 150C132.083 150 138.021 147.604 142.812 142.812C147.604 138.021 150 132.083 150 125C150 117.917 147.604 111.979 142.812 107.188C138.021 102.396 132.083 100 125 100C117.917 100 111.979 102.396 107.188 107.188C102.396 111.979 100 117.917 100 125C100 132.083 102.396 138.021 107.188 142.812C111.979 147.604 117.917 150 125 150ZM200 250H350V200H200V250ZM200 150H350V100H200V150ZM200 350H233.75C237.083 340.417 241.25 331.458 246.25 323.125C251.25 314.792 257.083 307.083 263.75 300H200V350Z" fill="#0084FF"/>
</svg>
