<svg width="60" height="60" viewBox="0 0 60 60" fill="none" xmlns="http://www.w3.org/2000/svg">
<path d="M0 30C0 5.295 5.295 0 30 0C54.705 0 60 5.295 60 30C60 54.705 54.705 60 30 60C5.295 60 0 54.705 0 30Z" fill="#FFE9DC"/>
<path d="M13.8203 44.5138V20.2083L20.0009 15.5812L25.0009 19.3312L30.0009 15.5812L35.0009 19.3312L40.0009 15.5812L46.2092 20.2083V44.5138H13.8203ZM15.9528 42.3814H23.9079V21.2008L20.0009 18.2222L15.9528 21.2884V42.3814ZM26.0404 42.3814H33.9891V21.2008L30.0009 18.2222L26.0404 21.2008V42.3814ZM36.1216 42.3814H44.0767V21.2884L40.0009 18.2222L36.1216 21.2008V42.3814Z" fill="#C8661F"/>
</svg>
