<svg width="600" height="591" viewBox="0 0 600 591" fill="none" xmlns="http://www.w3.org/2000/svg">
<path d="M459.375 516.942C454.191 516.942 450 512.815 450 507.711C450 502.606 454.191 498.48 459.375 498.48C526.575 498.48 581.25 444.646 581.25 378.48C581.25 312.314 526.575 258.48 459.375 258.48C454.191 258.48 450 254.354 450 249.249C450 244.145 454.191 240.019 459.375 240.019C536.916 240.019 600 302.132 600 378.48C600 454.828 536.916 516.942 459.375 516.942Z" fill="black"/>
<path d="M225 516.942C100.941 516.942 0 417.545 0 295.403C0 173.252 100.941 73.8647 225 73.8647C230.184 73.8647 234.375 77.9909 234.375 83.0955C234.375 88.2001 230.184 92.3263 225 92.3263C111.272 92.3263 18.75 183.425 18.75 295.403C18.75 407.382 111.272 498.48 225 498.48C230.184 498.48 234.375 502.606 234.375 507.711C234.375 512.816 230.184 516.942 225 516.942Z" fill="black"/>
<path d="M337.5 203.058C332.316 203.058 328.125 198.932 328.125 193.828C328.125 137.843 281.859 92.2892 225 92.2892C219.816 92.2892 215.625 88.163 215.625 83.0584C215.625 77.9538 219.816 73.8276 225 73.8276C292.2 73.8276 346.875 127.661 346.875 193.828C346.875 198.932 342.684 203.058 337.5 203.058Z" fill="black"/>
<path d="M281.269 203.059C276.084 203.059 271.894 198.932 271.894 193.828C271.894 168.379 250.856 147.674 225 147.674C219.816 147.674 215.625 143.548 215.625 138.443C215.625 133.339 219.816 129.212 225 129.212C261.197 129.212 290.644 158.206 290.644 193.828C290.644 198.932 286.453 203.059 281.269 203.059Z" fill="black"/>
<path d="M225 258.498C219.816 258.498 215.625 254.372 215.625 249.268C215.625 244.163 219.816 240.037 225 240.037C250.856 240.037 271.894 219.332 271.894 193.883C271.894 188.778 276.084 184.652 281.269 184.652C286.453 184.652 290.644 188.778 290.644 193.883C290.644 229.505 261.197 258.498 225 258.498Z" fill="black"/>
<path d="M121.894 359.926C116.709 359.926 112.519 355.8 112.519 350.695C112.519 345.591 116.709 341.465 121.894 341.465C147.75 341.465 168.787 320.751 168.787 295.292C168.787 290.188 172.978 286.062 178.162 286.062C183.347 286.062 187.537 290.188 187.537 295.292C187.537 330.942 158.09 359.926 121.894 359.926Z" fill="black"/>
<path d="M121.857 359.926C85.6598 359.926 56.2129 330.932 56.2129 295.292C56.2129 290.188 60.4035 286.062 65.5879 286.062C70.7723 286.062 74.9629 290.188 74.9629 295.292C74.9629 320.751 96.0004 341.465 121.857 341.465C127.041 341.465 131.232 345.591 131.232 350.695C131.232 355.8 127.041 359.926 121.857 359.926Z" fill="black"/>
<path d="M393.75 258.443C357.572 258.443 328.125 229.449 328.125 193.827C328.125 188.723 332.316 184.597 337.5 184.597C342.684 184.597 346.875 188.723 346.875 193.827C346.875 219.277 367.903 239.981 393.75 239.981C398.934 239.981 403.125 244.107 403.125 249.212C403.125 254.317 398.934 258.443 393.75 258.443Z" fill="black"/>
<path d="M459.375 258.48H393.75C388.566 258.48 384.375 254.354 384.375 249.249C384.375 244.145 388.566 240.019 393.75 240.019H459.375C464.559 240.019 468.75 244.145 468.75 249.249C468.75 254.354 464.559 258.48 459.375 258.48Z" fill="black"/>
<path d="M459.375 516.942H225C219.816 516.942 215.625 512.815 215.625 507.711C215.625 502.606 219.816 498.48 225 498.48H459.375C464.559 498.48 468.75 502.606 468.75 507.711C468.75 512.815 464.559 516.942 459.375 516.942Z" fill="black"/>
<path d="M534.375 239.981C529.191 239.981 525 235.855 525 230.751V147.692C525 142.588 529.191 138.461 534.375 138.461C539.559 138.461 543.75 142.588 543.75 147.692V230.751C543.75 235.855 539.559 239.981 534.375 239.981Z" fill="black"/>
<path d="M515.625 212.308C513.225 212.308 510.825 211.403 508.997 209.603C505.332 205.994 505.332 200.16 508.997 196.551L527.747 178.089C531.413 174.48 537.338 174.48 541.004 178.089C544.669 181.698 544.669 187.532 541.004 191.142L522.254 209.603C520.425 211.403 518.025 212.308 515.625 212.308Z" fill="black"/>
<path d="M553.125 212.308C550.725 212.308 548.325 211.403 546.497 209.603L527.747 191.142C524.082 187.532 524.082 181.698 527.747 178.089C531.413 174.48 537.338 174.48 541.004 178.089L559.754 196.551C563.419 200.16 563.419 205.994 559.754 209.603C557.925 211.403 555.525 212.308 553.125 212.308Z" fill="black"/>
<path d="M515.625 175.384C513.225 175.384 510.825 174.48 508.997 172.68C505.332 169.071 505.332 163.237 508.997 159.627L527.747 141.166C531.413 137.557 537.338 137.557 541.004 141.166C544.669 144.775 544.669 150.609 541.004 154.218L522.254 172.68C520.425 174.48 518.025 175.384 515.625 175.384Z" fill="black"/>
<path d="M553.125 175.384C550.725 175.384 548.325 174.48 546.497 172.68L527.747 154.218C524.082 150.609 524.082 144.775 527.747 141.166C531.413 137.557 537.338 137.557 541.004 141.166L559.754 159.627C563.419 163.237 563.419 169.071 559.754 172.68C557.925 174.48 555.525 175.384 553.125 175.384Z" fill="black"/>
<path d="M468.675 230.751C463.49 230.751 459.3 226.625 459.3 221.52V119.963C459.3 114.859 463.49 110.732 468.675 110.732C473.859 110.732 478.05 114.859 478.05 119.963V221.52C478.05 226.625 473.859 230.751 468.675 230.751Z" fill="black"/>
<path d="M449.925 184.578C447.525 184.578 445.125 183.674 443.297 181.874C439.631 178.264 439.631 172.431 443.297 168.821L462.047 150.36C465.713 146.751 471.638 146.751 475.303 150.36C478.969 153.969 478.969 159.803 475.303 163.412L456.553 181.874C454.725 183.674 452.325 184.578 449.925 184.578Z" fill="black"/>
<path d="M487.425 184.578C485.025 184.578 482.625 183.674 480.797 181.874L462.047 163.412C458.381 159.803 458.381 153.969 462.047 150.36C465.713 146.751 471.638 146.751 475.303 150.36L494.053 168.821C497.719 172.431 497.719 178.264 494.053 181.874C492.225 183.674 489.825 184.578 487.425 184.578Z" fill="black"/>
<path d="M449.925 147.655C447.525 147.655 445.125 146.751 443.297 144.951C439.631 141.342 439.631 135.508 443.297 131.898L462.047 113.437C465.713 109.828 471.638 109.828 475.303 113.437C478.969 117.046 478.969 122.88 475.303 126.489L456.553 144.951C454.725 146.751 452.325 147.655 449.925 147.655Z" fill="black"/>
<path d="M487.425 147.655C485.025 147.655 482.625 146.751 480.797 144.951L462.047 126.489C458.381 122.88 458.381 117.046 462.047 113.437C465.713 109.828 471.638 109.828 475.303 113.437L494.053 131.898C497.719 135.508 497.719 141.342 494.053 144.951C492.225 146.751 489.825 147.655 487.425 147.655Z" fill="black"/>
<path d="M402.994 221.501C397.81 221.501 393.619 217.375 393.619 212.271V129.212C393.619 124.108 397.81 119.981 402.994 119.981C408.179 119.981 412.369 124.108 412.369 129.212V212.271C412.369 217.375 408.179 221.501 402.994 221.501Z" fill="black"/>
<path d="M384.244 193.828C381.844 193.828 379.444 192.923 377.615 191.123C373.95 187.514 373.95 181.68 377.615 178.071L396.365 159.609C400.031 156 405.947 156 409.622 159.609C413.287 163.218 413.287 169.052 409.622 172.662L390.872 191.123C389.044 192.923 386.644 193.828 384.244 193.828Z" fill="black"/>
<path d="M421.744 193.828C419.344 193.828 416.944 192.923 415.115 191.123L396.365 172.662C392.7 169.052 392.7 163.218 396.365 159.609C400.031 156 405.947 156 409.622 159.609L428.372 178.071C432.037 181.68 432.037 187.514 428.372 191.123C426.544 192.923 424.144 193.828 421.744 193.828Z" fill="black"/>
<path d="M384.244 156.904C381.844 156.904 379.444 156 377.615 154.2C373.95 150.591 373.95 144.757 377.615 141.147L396.365 122.686C400.031 119.077 405.947 119.077 409.622 122.686C413.287 126.295 413.287 132.129 409.622 135.738L390.872 154.2C389.044 156 386.644 156.904 384.244 156.904Z" fill="black"/>
<path d="M421.744 156.904C419.344 156.904 416.944 156 415.115 154.2L396.365 135.738C392.7 132.129 392.7 126.295 396.365 122.686C400.031 119.077 405.947 119.077 409.622 122.686L428.372 141.147C432.037 144.757 432.037 150.591 428.372 154.2C426.544 156 424.144 156.904 421.744 156.904Z" fill="black"/>
<path d="M65.625 304.634C60.4406 304.634 56.25 300.507 56.25 295.403C56.25 203.787 131.953 129.249 225 129.249C230.184 129.249 234.375 133.375 234.375 138.48C234.375 143.584 230.184 147.711 225 147.711C142.294 147.711 75 213.969 75 295.403C75 300.507 70.8094 304.634 65.625 304.634Z" fill="black"/>
<path d="M178.162 304.505C172.978 304.505 168.787 300.379 168.787 295.274C168.787 264.748 193.996 239.926 225 239.926C230.184 239.926 234.375 244.052 234.375 249.157C234.375 254.262 230.184 258.388 225 258.388C204.346 258.388 187.537 274.939 187.537 295.274C187.537 300.379 183.346 304.505 178.162 304.505Z" fill="black"/>
<path d="M159.412 249.157H121.894C116.709 249.157 112.519 245.031 112.519 239.926C112.519 234.821 116.709 230.695 121.894 230.695H159.412C164.597 230.695 168.787 234.821 168.787 239.926C168.787 245.031 164.597 249.157 159.412 249.157Z" fill="black"/>
<path d="M178.106 221.464H150C144.816 221.464 140.625 217.338 140.625 212.234C140.625 207.129 144.816 203.003 150 203.003H178.106C183.291 203.003 187.481 207.129 187.481 212.234C187.481 217.338 183.291 221.464 178.106 221.464Z" fill="black"/>
<path d="M214.031 221.464H206.231C201.047 221.464 196.856 217.338 196.856 212.234C196.856 207.129 201.047 203.003 206.231 203.003H214.031C219.216 203.003 223.406 207.129 223.406 212.234C223.406 217.338 219.216 221.464 214.031 221.464Z" fill="black"/>
<path d="M140.625 276.831H103.125C97.9406 276.831 93.75 272.705 93.75 267.6C93.75 262.495 97.9406 258.369 103.125 258.369H140.625C145.809 258.369 150 262.495 150 267.6C150 272.705 145.809 276.831 140.625 276.831Z" fill="black"/>
<path d="M459.375 516.941C454.191 516.941 450 512.815 450 507.711V433.772C450 428.668 454.191 424.542 459.375 424.542C464.559 424.542 468.75 428.668 468.75 433.772V507.711C468.75 512.815 464.559 516.941 459.375 516.941Z" fill="black"/>
<path d="M403.125 516.941C397.941 516.941 393.75 512.815 393.75 507.711V433.772C393.75 428.668 397.941 424.542 403.125 424.542C408.309 424.542 412.5 428.668 412.5 433.772V507.711C412.5 512.815 408.309 516.941 403.125 516.941Z" fill="black"/>
<path d="M459.375 452.289H403.125C397.941 452.289 393.75 448.163 393.75 443.058C393.75 437.954 397.941 433.828 403.125 433.828H459.375C464.559 433.828 468.75 437.954 468.75 443.058C468.75 448.163 464.559 452.289 459.375 452.289Z" fill="black"/>
<path d="M459.375 479.926H403.125C397.941 479.926 393.75 475.8 393.75 470.695C393.75 465.591 397.941 461.464 403.125 461.464H459.375C464.559 461.464 468.75 465.591 468.75 470.695C468.75 475.8 464.559 479.926 459.375 479.926Z" fill="black"/>
<path d="M224.981 516.868C209.475 516.868 196.856 504.443 196.856 489.176C196.856 473.908 209.475 461.483 224.981 461.483C240.488 461.483 253.106 473.908 253.106 489.176C253.106 504.443 240.488 516.868 224.981 516.868ZM224.981 479.945C219.806 479.945 215.606 484.071 215.606 489.176C215.606 494.271 219.806 498.406 224.981 498.406C230.156 498.406 234.356 494.271 234.356 489.176C234.356 484.071 230.156 479.945 224.981 479.945Z" fill="black"/>
<path d="M290.625 516.868C275.119 516.868 262.5 504.443 262.5 489.176C262.5 473.908 275.119 461.483 290.625 461.483C306.131 461.483 318.75 473.908 318.75 489.176C318.75 504.443 306.131 516.868 290.625 516.868ZM290.625 479.945C285.45 479.945 281.25 484.071 281.25 489.176C281.25 494.271 285.45 498.406 290.625 498.406C295.8 498.406 300 494.271 300 489.176C300 484.071 295.8 479.945 290.625 479.945Z" fill="black"/>
<path d="M271.875 498.406H243.731C238.547 498.406 234.356 494.28 234.356 489.176C234.356 484.071 238.547 479.945 243.731 479.945H271.875C277.06 479.945 281.25 484.071 281.25 489.176C281.25 494.28 277.06 498.406 271.875 498.406Z" fill="black"/>
<path d="M253.125 498.406C249.413 498.406 245.888 496.219 244.416 492.6L225.666 446.428C223.744 441.683 226.088 436.311 230.897 434.418C235.65 432.526 241.163 434.834 243.085 439.578L261.835 485.751C263.756 490.495 261.413 495.858 256.603 497.751C255.469 498.212 254.288 498.406 253.125 498.406Z" fill="black"/>
<path d="M290.626 479.945C286.913 479.945 283.397 477.757 281.916 474.139L263.147 427.966C261.226 423.222 263.56 417.849 268.379 415.957C273.132 414.065 278.635 416.372 280.566 421.117L299.335 467.289C301.257 472.034 298.922 477.397 294.104 479.289C292.969 479.751 291.788 479.945 290.626 479.945Z" fill="black"/>
<path d="M290.644 433.773H271.856C266.672 433.773 262.481 429.646 262.481 424.542C262.481 419.437 266.672 415.311 271.856 415.311H290.644C295.828 415.311 300.019 419.437 300.019 424.542C300.019 429.646 295.828 433.773 290.644 433.773Z" fill="black"/>
<path d="M286.875 470.714H241.885C236.7 470.714 232.51 466.588 232.51 461.483C232.51 456.379 236.7 452.252 241.885 452.252H286.875C292.06 452.252 296.25 456.379 296.25 461.483C296.25 466.588 292.05 470.714 286.875 470.714Z" fill="black"/>
<path d="M243.75 452.234H225C219.816 452.234 215.625 448.108 215.625 443.003C215.625 437.899 219.816 433.772 225 433.772H243.75C248.934 433.772 253.125 437.899 253.125 443.003C253.125 448.108 248.934 452.234 243.75 452.234Z" fill="black"/>
<path d="M393.825 396.886C388.641 396.886 384.45 392.76 384.45 387.656V295.329C384.45 290.225 388.641 286.099 393.825 286.099C399.01 286.099 403.2 290.225 403.2 295.329V387.656C403.2 392.76 399.01 396.886 393.825 396.886Z" fill="black"/>
<path d="M412.575 359.944C410.175 359.944 407.775 359.04 405.946 357.24L387.196 338.778C383.531 335.169 383.531 329.335 387.196 325.726C390.862 322.117 396.787 322.117 400.453 325.726L419.203 344.188C422.868 347.797 422.868 353.631 419.203 357.24C417.375 359.04 414.975 359.944 412.575 359.944Z" fill="black"/>
<path d="M375.075 359.944C372.675 359.944 370.275 359.04 368.446 357.24C364.781 353.631 364.781 347.797 368.446 344.188L387.196 325.726C390.862 322.117 396.787 322.117 400.453 325.726C404.118 329.335 404.118 335.169 400.453 338.778L381.703 357.24C379.875 359.04 377.475 359.944 375.075 359.944Z" fill="black"/>
<path d="M412.575 323.022C410.175 323.022 407.775 322.117 405.946 320.317L387.196 301.855C383.531 298.246 383.531 292.412 387.196 288.803C390.862 285.194 396.787 285.194 400.453 288.803L419.203 307.265C422.868 310.874 422.868 316.708 419.203 320.317C417.375 322.117 414.975 323.022 412.575 323.022Z" fill="black"/>
<path d="M375.075 323.022C372.675 323.022 370.275 322.117 368.446 320.317C364.781 316.708 364.781 310.874 368.446 307.265L387.196 288.803C390.862 285.194 396.787 285.194 400.453 288.803C404.118 292.412 404.118 298.246 400.453 301.855L381.703 320.317C379.875 322.117 377.475 323.022 375.075 323.022Z" fill="black"/>
<path d="M328.144 396.886C322.959 396.886 318.769 392.76 318.769 387.655V276.849C318.769 271.744 322.959 267.618 328.144 267.618C333.328 267.618 337.519 271.744 337.519 276.849V387.655C337.519 392.76 333.328 396.886 328.144 396.886Z" fill="black"/>
<path d="M346.894 341.464C344.494 341.464 342.094 340.56 340.266 338.76L321.516 320.298C317.85 316.689 317.85 310.855 321.516 307.246C325.181 303.637 331.106 303.637 334.772 307.246L353.522 325.708C357.188 329.317 357.188 335.151 353.522 338.76C351.694 340.569 349.294 341.464 346.894 341.464Z" fill="black"/>
<path d="M309.394 341.464C306.994 341.464 304.594 340.56 302.766 338.76C299.1 335.151 299.1 329.317 302.766 325.708L321.516 307.246C325.181 303.637 331.106 303.637 334.772 307.246C338.438 310.855 338.438 316.689 334.772 320.298L316.022 338.76C314.194 340.569 311.794 341.464 309.394 341.464Z" fill="black"/>
<path d="M346.894 304.542C344.494 304.542 342.094 303.637 340.266 301.837L321.516 283.375C317.85 279.766 317.85 273.942 321.516 270.323C325.181 266.705 331.106 266.714 334.772 270.323L353.522 288.785C357.188 292.394 357.188 298.228 353.522 301.837C351.694 303.646 349.294 304.542 346.894 304.542Z" fill="black"/>
<path d="M309.394 304.542C306.994 304.542 304.594 303.637 302.766 301.837C299.1 298.228 299.1 292.394 302.766 288.785L321.516 270.323C325.181 266.714 331.106 266.714 334.772 270.323C338.438 273.932 338.438 279.766 334.772 283.375L316.022 301.837C314.194 303.646 311.794 304.542 309.394 304.542Z" fill="black"/>
<path d="M459.375 396.849C454.191 396.849 450 392.723 450 387.618V313.772C450 308.668 454.191 304.542 459.375 304.542C464.559 304.542 468.75 308.668 468.75 313.772V387.618C468.75 392.723 464.559 396.849 459.375 396.849Z" fill="black"/>
<path d="M478.125 378.388C475.725 378.388 473.325 377.483 471.497 375.683L452.747 357.222C449.082 353.612 449.082 347.779 452.747 344.169C456.413 340.56 462.338 340.56 466.004 344.169L484.754 362.631C488.419 366.24 488.419 372.074 484.754 375.683C482.925 377.492 480.525 378.388 478.125 378.388Z" fill="black"/>
<path d="M440.625 378.388C438.225 378.388 435.825 377.483 433.997 375.683C430.332 372.074 430.332 366.24 433.997 362.631L452.747 344.169C456.413 340.56 462.338 340.56 466.004 344.169C469.669 347.779 469.669 353.612 466.004 357.222L447.254 375.683C445.425 377.492 443.025 378.388 440.625 378.388Z" fill="black"/>
<path d="M478.125 341.464C475.725 341.464 473.325 340.56 471.497 338.76L452.747 320.298C449.082 316.689 449.082 310.855 452.747 307.246C456.413 303.637 462.338 303.637 466.004 307.246L484.754 325.708C488.419 329.317 488.419 335.151 484.754 338.76C482.925 340.569 480.525 341.464 478.125 341.464Z" fill="black"/>
<path d="M440.625 341.464C438.225 341.464 435.825 340.56 433.997 338.76C430.332 335.151 430.332 329.317 433.997 325.708L452.747 307.246C456.413 303.637 462.338 303.637 466.004 307.246C469.669 310.855 469.669 316.689 466.004 320.298L447.254 338.76C445.425 340.569 443.025 341.464 440.625 341.464Z" fill="black"/>
<circle cx="163" cy="241" r="100" fill="#8CBEE9" fill-opacity="0.5"/>
<circle cx="163" cy="241" r="100" stroke="#8CBEE9"/>
</svg>
