<svg width="60" height="60" viewBox="0 0 60 60" fill="none" xmlns="http://www.w3.org/2000/svg">
<path d="M0 30C0 5.295 5.295 0 30 0C54.705 0 60 5.295 60 30C60 54.705 54.705 60 30 60C5.295 60 0 54.705 0 30Z" fill="#CEFFE2"/>
<path d="M29.9379 39.8429C30.5148 39.8429 31.013 39.6357 31.4326 39.2211C31.8521 38.8066 32.0618 38.3037 32.0618 37.7126C32.0618 37.1356 31.8545 36.6328 31.44 36.204C31.0255 35.7753 30.5297 35.5609 29.9528 35.5609C29.3574 35.5609 28.8499 35.7728 28.4304 36.1966C28.0109 36.6204 27.8012 37.1208 27.8012 37.6976C27.8012 38.2888 28.0084 38.7941 28.4229 39.2136C28.8375 39.6332 29.3425 39.8429 29.9379 39.8429ZM29.9379 32.1164C30.5148 32.1164 31.013 31.9092 31.4326 31.4946C31.8521 31.0801 32.0618 30.5844 32.0618 30.0074C32.0618 29.4305 31.8545 28.9277 31.44 28.4989C31.0255 28.0701 30.5297 27.8558 29.9528 27.8558C29.3574 27.8558 28.8499 28.0677 28.4304 28.4914C28.0109 28.9152 27.8012 29.4156 27.8012 29.9925C27.8012 30.5694 28.0084 31.0676 28.4229 31.4871C28.8375 31.9067 29.3425 32.1164 29.9379 32.1164ZM29.9379 24.4113C30.5148 24.4113 31.013 24.204 31.4326 23.7895C31.8521 23.3749 32.0618 22.8792 32.0618 22.3023C32.0618 21.7111 31.8545 21.2012 31.44 20.7724C31.0255 20.3436 30.5297 20.1293 29.9528 20.1293C29.3574 20.1293 28.8499 20.3412 28.4304 20.7649C28.0109 21.1888 27.8012 21.6963 27.8012 22.2874C27.8012 22.8643 28.0084 23.3625 28.4229 23.782C28.8375 24.2015 29.3425 24.4113 29.9379 24.4113ZM22.4614 35.4423V31.8846C21.1644 31.6047 20.2408 31.0155 19.6906 30.117C19.1403 29.2185 18.8652 28.2892 18.8652 27.3291H22.4614V23.7906C21.1644 23.5249 20.2408 22.9346 19.6906 22.0197C19.1403 21.1048 18.8652 20.1673 18.8652 19.2072H22.4614V17.3654C22.7207 16.8305 23.0293 16.4321 23.3874 16.1704C23.7455 15.9086 24.1476 15.7778 24.5939 15.7778H35.346C35.8058 15.7778 36.2229 15.904 36.5974 16.1565C36.9718 16.409 37.2655 16.8119 37.4785 17.3654V19.2072H41.1345C41.1345 20.1673 40.8458 21.1048 40.2686 22.0197C39.6913 22.9346 38.7613 23.5249 37.4785 23.7906V27.3291H41.1345C41.1345 28.2892 40.8458 29.2185 40.2686 30.117C39.6913 31.0155 38.7613 31.6047 37.4785 31.8846V35.4423H41.1345C41.1345 36.411 40.8366 37.3506 40.2408 38.2612C39.645 39.1718 38.7057 39.7599 37.4229 40.0256V42.8119C37.2007 43.2304 36.907 43.57 36.5418 43.8309C36.1766 44.0918 35.778 44.2222 35.346 44.2222H24.5939C24.1476 44.2222 23.7385 44.0964 23.3666 43.8448C22.9946 43.5932 22.7114 43.2489 22.5169 42.8119V40.0256C21.2199 39.7599 20.2871 39.1718 19.7184 38.2612C19.1496 37.3506 18.8652 36.411 18.8652 35.4423H22.4614ZM24.5939 42.0897H35.346V17.9102H24.5939V42.0897Z" fill="#109836"/>
</svg>
