<svg width="600" height="505" viewBox="0 0 600 505" fill="none" xmlns="http://www.w3.org/2000/svg">
<g clip-path="url(#clip0_2247_2214)">
<path d="M597.744 149.152C580.603 77.1523 510.128 28.7539 381.557 1.15234L379.65 0.753906H217.745L216.318 24.7539C329.65 35.5547 329.65 55.5547 329.65 66.3516C329.65 68.7539 325.841 124.754 12.9833 182.754L2.0318 184.754V205.555C1.07849 285.152 37.7461 360.352 104.887 416.754C172.033 473.152 261.556 504.754 356.315 504.754H362.983L367.271 500.352C578.222 277.953 611.077 205.152 597.744 149.152Z" fill="white"/>
<path d="M15.839 205.953C9.17513 205.953 3.45991 201.953 2.03227 196.351C0.12565 189.953 5.36654 183.554 12.9837 181.953C326.316 123.953 329.65 67.9528 329.65 65.5543C329.65 54.7536 329.65 34.7536 216.318 23.9528C208.696 23.152 202.986 17.152 203.934 10.7536C204.413 4.75355 211.556 -0.0472281 219.652 0.753553C319.173 10.3512 358.222 28.7536 358.222 65.9528C358.222 76.3512 351.553 97.152 306.315 121.953C250.605 152.754 153.934 180.754 19.1733 205.953C18.22 205.953 17.2713 205.953 15.839 205.953Z" fill="#444B54"/>
<path d="M356.794 492.754C558.696 279.555 596.317 204.754 583.938 151.555C574.414 110.352 540.602 47.9531 378.223 12.7539" fill="white"/>
<path d="M356.794 504.754C353.46 504.754 350.605 503.953 347.745 501.953C341.555 497.953 340.602 490.352 345.364 485.153C546.791 271.953 580.604 200.352 569.652 153.555C564.411 130.754 547.745 61.555 374.414 23.9535C366.792 22.3519 362.03 15.9535 363.937 9.1527C365.839 2.75426 373.461 -1.24574 381.557 0.351914C510.129 27.9535 580.604 76.3519 597.745 148.352C611.077 204.352 578.223 277.153 367.746 499.555C364.89 503.153 360.603 504.754 356.794 504.754Z" fill="#444B54"/>
<path d="M62.03 368.754C56.3148 368.754 51.0786 365.954 48.6976 361.153C45.8424 355.153 49.172 347.954 56.3148 345.555C63.4577 343.153 70.6005 340.352 77.7434 337.954C84.8863 335.153 93.4614 337.954 96.791 343.954C100.125 349.954 96.791 357.153 89.6482 359.954C82.031 362.754 74.8881 365.555 67.2709 367.954C65.8386 368.352 63.9367 368.754 62.03 368.754Z" fill="#444B54"/>
<path d="M183.937 319.953C178.697 319.953 173.935 317.555 171.554 313.555C167.745 307.555 170.6 300.352 177.269 297.152C193.936 289.555 210.128 281.953 225.362 274.352C232.031 271.152 241.08 272.754 244.889 278.754C248.697 284.352 246.791 291.953 239.648 295.152C223.935 303.152 207.268 310.754 190.601 318.352C188.699 319.555 186.318 319.953 183.937 319.953ZM325.841 245.152C321.554 245.152 317.271 243.555 314.411 240.352C309.649 235.152 311.077 227.555 317.271 223.555C332.505 213.953 346.791 203.953 359.649 194.754C365.364 190.352 374.414 190.754 379.65 195.555C384.886 200.352 384.412 207.953 378.697 212.352C365.364 222.352 350.604 232.352 334.412 242.754C332.031 244.352 328.697 245.152 325.841 245.152Z" fill="#444B54"/>
<path d="M439.648 143.555C437.746 143.555 435.365 143.153 433.459 142.352C426.316 139.555 423.461 132.352 426.795 126.352C430.125 120.754 432.506 115.153 433.938 109.954C435.84 103.555 443.936 99.5552 451.553 101.555C459.175 103.153 463.937 109.954 461.556 116.352C459.649 123.153 456.315 130.352 452.506 137.153C450.126 141.153 444.889 143.555 439.648 143.555Z" fill="#444B54"/>
<circle cx="283" cy="369" r="100" fill="#8CBEE9" fill-opacity="0.5"/>
<circle cx="283" cy="369" r="100" stroke="#8CBEE9"/>
</g>
<defs>
<clipPath id="clip0_2247_2214">
<rect width="600" height="504.753" fill="white"/>
</clipPath>
</defs>
</svg>
