<svg width="60" height="60" viewBox="0 0 60 60" fill="none" xmlns="http://www.w3.org/2000/svg">
<path d="M0 30C0 5.295 5.295 0 30 0C54.705 0 60 5.295 60 30C60 54.705 54.705 60 30 60C5.295 60 0 54.705 0 30Z" fill="#CCF3FF"/>
<path d="M17.6777 35.4525V20.079C17.6777 18.9842 17.9535 18.069 18.5049 17.3334C19.0564 16.5979 19.8609 16.0132 20.9184 15.5793C21.9759 15.1454 23.2684 14.8344 24.796 14.6464C26.3236 14.4584 28.0582 14.3644 29.9998 14.3644C31.9662 14.3644 33.7133 14.4538 35.2411 14.6327C36.7688 14.8115 38.0577 15.1171 39.1076 15.5493C40.1575 15.9816 40.9557 16.564 41.5022 17.2966C42.0487 18.0292 42.3219 18.9567 42.3219 20.079V35.4525C42.3219 36.9213 41.8186 38.159 40.8121 39.1655C39.8057 40.1719 38.5684 40.6752 37.1002 40.6752L39.5804 43.1554V43.9492H37.5314L34.2574 40.6752H25.7642L22.4902 43.9492H20.4192V43.1554L22.8994 40.6752C21.4313 40.6752 20.194 40.1719 19.1875 39.1655C18.181 38.159 17.6777 36.9213 17.6777 35.4525ZM29.9998 16.3595C26.7341 16.3595 24.3449 16.573 22.8321 17C21.3192 17.427 20.3467 18.0606 19.9143 18.9007H40.1312C39.7513 18.0923 38.7689 17.4666 37.1842 17.0238C35.5994 16.5809 33.2046 16.3595 29.9998 16.3595ZM19.6729 27.898H29.0912V20.8958H19.6729V27.898ZM37.1002 29.8932H19.6729H40.3267H37.1002ZM31.0863 27.898H40.3267V20.8958H31.0863V27.898ZM24.1053 36.3435C24.6728 36.3435 25.151 36.1523 25.5399 35.7701C25.9287 35.3878 26.1232 34.9094 26.1232 34.3347C26.1232 33.7601 25.9303 33.2783 25.5444 32.8895C25.1586 32.5006 24.6819 32.3061 24.1144 32.3061C23.5398 32.3061 23.058 32.499 22.6692 32.8849C22.2803 33.2707 22.0859 33.7509 22.0859 34.3255C22.0859 34.9002 22.2788 35.3802 22.6646 35.7655C23.0504 36.1508 23.5306 36.3435 24.1053 36.3435ZM35.8959 36.3435C36.4634 36.3435 36.9416 36.1523 37.3305 35.7701C37.7193 35.3878 37.9138 34.9094 37.9138 34.3347C37.9138 33.7601 37.7209 33.2783 37.3351 32.8895C36.9492 32.5006 36.4726 32.3061 35.9051 32.3061C35.3304 32.3061 34.8487 32.499 34.4598 32.8849C34.0709 33.2707 33.8764 33.7509 33.8764 34.3255C33.8764 34.9002 34.0694 35.3802 34.4552 35.7655C34.841 36.1508 35.3212 36.3435 35.8959 36.3435ZM22.8994 38.7762H37.1002C38.0098 38.7762 38.7749 38.4526 39.3957 37.8055C40.0164 37.1585 40.3267 36.3745 40.3267 35.4535V29.8932H19.6729V35.4432C19.6729 36.371 19.9833 37.1585 20.604 37.8055C21.2247 38.4526 21.9898 38.7762 22.8994 38.7762ZM29.9998 18.9007H40.1312H19.9143H29.9998Z" fill="#0476DF"/>
</svg>
