<svg width="600" height="600" viewBox="0 0 600 600" fill="none" xmlns="http://www.w3.org/2000/svg">
<g clip-path="url(#clip0_2247_2382)">
<path d="M170.004 359.994H90.0049V379.994H170.004V359.994Z" fill="black"/>
<path d="M598.942 475.52L568.942 415.521C567.248 412.132 563.785 409.993 559.997 409.993H499.998V379.994C499.998 374.472 495.521 369.994 489.998 369.994H290.002C284.479 369.994 280.002 374.472 280.002 379.994V559.991C280.002 565.513 284.479 569.991 290.002 569.991H331.421C336.836 591.298 358.499 604.18 379.805 598.765C393.945 595.172 404.986 584.131 408.58 569.991H481.419C486.833 591.298 508.497 604.18 529.803 598.765C543.943 595.172 554.984 584.131 558.577 569.991H589.997C595.519 569.991 599.997 565.513 599.997 559.991V479.992C599.997 478.44 599.635 476.909 598.942 475.52ZM370 579.991C358.954 579.991 350.001 571.037 350.001 559.991C350.001 548.945 358.954 539.991 370 539.991C381.047 539.991 390 548.945 390 559.991C389.989 571.032 381.042 579.979 370 579.991ZM479.999 549.991H408.58C404.046 532.376 388.189 520.047 370 519.992C351.812 520.047 335.955 532.376 331.421 549.991H300.002V389.994H479.999V549.991ZM539.998 429.993H553.816L573.817 469.992H539.998V429.993ZM519.998 579.991C508.952 579.991 499.998 571.037 499.998 559.991C499.998 548.945 508.952 539.991 519.998 539.991C531.044 539.991 539.998 548.945 539.998 559.991C539.986 571.032 531.039 579.979 519.998 579.991ZM579.997 549.991H558.577C554.044 532.376 538.186 520.047 519.998 519.992C512.954 520.032 506.051 521.953 499.998 525.557V429.993H519.998V479.992C519.998 485.515 524.475 489.992 529.998 489.992H579.997V549.991Z" fill="black"/>
<path d="M239.993 139.998H220.003V159.998H239.993V139.998Z" fill="black"/>
<path d="M279.992 139.998H260.002V159.998H279.992V139.998Z" fill="black"/>
<path d="M319.991 139.998H300.001V159.998H319.991V139.998Z" fill="black"/>
<path d="M359.991 139.998H340.001V159.998H359.991V139.998Z" fill="black"/>
<path d="M550.866 167.028L519.885 136.043C496.852 113.038 465.652 100.081 433.099 99.9983H355.543L308.483 24.7021C306.654 21.7784 303.45 20.0009 300.002 19.9997H270.002C264.477 20.0022 260 24.4833 260.002 30.0095C260.002 30.8245 260.102 31.6357 260.3 32.427L277.193 99.9983H197.445L169.584 7.12863C168.315 2.89745 164.42 0 160.004 0H110.005C104.482 0 100.005 4.47743 100.005 9.99983V109.998H100.099C100.066 112.638 101.086 115.183 102.935 117.068L165.434 179.567C191.22 205.522 226.317 220.079 262.902 219.996H265.626L240.779 275.938C238.538 280.984 240.811 286.893 245.857 289.135C246.151 289.265 246.45 289.381 246.755 289.483L276.734 299.482C280.934 300.881 285.553 299.354 288.092 295.728L341.071 219.996H528.899C546.029 220.028 559.94 206.168 559.972 189.038C559.987 180.782 556.71 172.861 550.866 167.028ZM294.459 39.9993L331.959 99.9983H297.81L282.809 39.9993H294.459ZM120.005 19.9997H152.563L176.562 99.9983H120.005V19.9997ZM275.983 278.149L263.527 273.994L296.393 199.997H330.655L275.983 278.149ZM539.158 193.142C537.491 197.334 533.409 200.062 528.899 199.997H355.062L358.047 195.729C361.212 191.203 360.108 184.967 355.582 181.802C353.902 180.628 351.903 179.997 349.853 179.997H289.893C285.939 179.997 282.357 182.326 280.753 185.939L274.509 199.997H262.902C231.624 200.065 201.618 187.617 179.574 165.427L134.144 119.998H433.099C454.901 120.092 476.112 127.094 493.686 139.998H420V159.997H515.549L536.75 181.198C539.953 184.294 540.911 189.047 539.158 193.142Z" fill="black"/>
<path d="M245.133 572.642C238.837 565.88 230.392 561.509 221.236 560.273L259.42 453.356C261.275 448.147 258.557 442.422 253.348 440.567C253.288 440.546 253.227 440.525 253.165 440.505L228.781 432.376L209.841 328.207C208.977 323.451 204.835 319.994 200.003 319.994H160.003V289.995C160.003 284.473 155.526 279.995 150.003 279.995H110.004C104.482 279.995 100.004 284.473 100.004 289.995V319.994H60.005C55.1713 319.994 51.0301 323.452 50.1664 328.207L31.2267 432.376L6.8421 440.505C1.59844 442.259 -1.22902 447.931 0.524705 453.174C0.544705 453.235 0.565955 453.295 0.587204 453.356L38.7716 560.277C29.6305 561.522 21.2006 565.89 14.9132 572.642C11.2945 577.199 5.82462 579.896 0.00596397 579.99V599.99C10.842 599.931 21.1606 595.346 28.468 587.344C32.0867 582.783 37.5591 580.084 43.3802 579.99C45.4927 579.973 47.5889 580.364 49.5539 581.141C49.6376 581.179 49.6914 581.259 49.7764 581.294C52.9126 582.856 55.76 584.94 58.1987 587.456C65.5811 595.39 75.9109 599.925 86.7483 599.99C97.5818 599.93 107.898 595.342 115.2 587.339C121.491 579.121 133.252 577.559 141.47 583.849C142.78 584.851 143.952 586.024 144.956 587.334C152.251 595.34 162.562 599.929 173.393 599.99C184.224 599.925 194.546 595.387 201.918 587.451C204.335 584.954 207.156 582.88 210.262 581.319C210.352 581.281 210.41 581.196 210.497 581.156C212.467 580.369 214.571 579.974 216.692 579.991C222.5 580.085 227.958 582.783 231.561 587.34C238.859 595.342 249.172 599.929 260.002 599.991V579.991C254.194 579.896 248.736 577.199 245.133 572.642ZM120.004 299.995H140.004V319.994H120.004V299.995ZM120.004 561.294C113.017 563.455 106.695 567.36 101.636 572.642C95.3281 580.868 83.5458 582.423 75.3197 576.115C74.0147 575.115 72.8473 573.947 71.846 572.642C68.7423 569.609 65.3011 566.942 61.5899 564.693L22.8568 456.247L120.004 423.868V561.294ZM126.84 400.506L52.8651 425.164L68.3498 339.994H191.658L207.143 425.164L133.167 400.506C131.114 399.822 128.894 399.822 126.84 400.506ZM198.398 564.758C194.73 566.997 191.328 569.643 188.255 572.647C181.977 580.855 170.232 582.419 162.023 576.14C160.71 575.135 159.535 573.96 158.53 572.647C153.44 567.312 147.059 563.382 140.005 561.238V423.868L237.152 456.247L198.398 564.758Z" fill="black"/>
<path d="M399.99 139.998H380V159.998H399.99V139.998Z" fill="black"/>
<circle cx="440" cy="260" r="100" fill="#8CBEE9" fill-opacity="0.5"/>
<circle cx="440" cy="260" r="100" stroke="#8CBEE9"/>
</g>
<defs>
<clipPath id="clip0_2247_2382">
<rect width="600" height="600" fill="white"/>
</clipPath>
</defs>
</svg>
