<svg width="15" height="17" viewBox="0 0 15 17" fill="none" xmlns="http://www.w3.org/2000/svg">
<path d="M2.8077 16.9431C2.30898 16.9431 1.88302 16.7665 1.52982 16.4133C1.17661 16.0601 1 15.6342 1 15.1354V2.44317H0V0.943193H4.49997V0.0585938H10.5V0.943193H15V2.44317H14V15.1354C14 15.6406 13.825 16.0681 13.475 16.4181C13.125 16.7681 12.6974 16.9431 12.1922 16.9431H2.8077ZM12.5 2.44317H2.49997V15.1354C2.49997 15.2252 2.52883 15.2989 2.58652 15.3566C2.64423 15.4143 2.71795 15.4432 2.8077 15.4432H12.1922C12.2692 15.4432 12.3397 15.4111 12.4038 15.347C12.4679 15.2829 12.5 15.2124 12.5 15.1354V2.44317ZM4.90385 13.4432H6.40382V4.44317H4.90385V13.4432ZM8.59613 13.4432H10.0961V4.44317H8.59613V13.4432Z" fill="#101437" fill-opacity="0.6"/>
</svg>
