<svg width="600" height="600" viewBox="0 0 600 600" fill="none" xmlns="http://www.w3.org/2000/svg">
<path d="M103.008 384.738C72.0719 384.738 46.9023 409.907 46.9023 440.843C46.9023 471.779 72.0719 496.949 103.008 496.949C133.943 496.949 159.113 471.779 159.113 440.843C159.113 409.907 133.945 384.738 103.008 384.738ZM103.008 478.545C82.2191 478.545 65.3066 461.632 65.3066 440.843C65.3066 420.055 82.2191 403.143 103.008 403.143C123.796 403.143 140.709 420.054 140.709 440.843C140.709 461.632 123.796 478.545 103.008 478.545Z" fill="black"/>
<path d="M112.263 431.586V421.771H93.8586V431.586H84.043V449.99H93.8586V459.805H112.263V449.99H122.079V431.586H112.263Z" fill="black"/>
<path d="M356.42 478.209V468.394H338.016V478.209H328.201V496.613H338.016V506.428H356.42V496.613H366.236V478.209H356.42Z" fill="black"/>
<path d="M281.577 469.615H215.324V488.019H281.577V469.615Z" fill="black"/>
<path d="M580.946 394.118V300.307V281.903V169.026H459.291V65.7959H412.745V215.648H387.301C378.829 170.389 361.37 127.237 335.605 88.4752L332.873 84.3678H102.448V102.772H322.965C356.909 155.529 374.823 216.575 374.823 279.653V338.341H241.656C242.866 335.215 243.538 331.823 243.538 328.276C243.538 312.858 230.994 300.312 215.573 300.312H196.634V234.469C196.634 219.05 184.09 206.504 168.67 206.504C153.251 206.504 140.706 219.048 140.706 234.469V338.341H130.665V112.588H112.263V262.271H74.2289V225.464H37.4215V243.868H55.8258V262.272H27.607V370.763C10.4941 389.162 0 413.794 0 440.842C0 497.64 46.2094 543.851 103.009 543.851C125.174 543.851 145.709 536.79 162.531 524.833H304.859C315.146 536.483 330.177 543.851 346.905 543.851C377.842 543.851 403.011 518.681 403.011 487.746C403.011 476.029 399.397 465.145 393.231 456.138V393.553H194.473C192.941 390.603 191.275 387.738 189.475 384.964H393.227V366.56H174.26C170.552 363.002 166.583 359.721 162.379 356.744H393.227V279.653C393.227 277.127 393.192 274.606 393.138 272.087H412.747V440.663H465.955L436.907 469.621H412.859V488.025H444.512L492.021 440.663H600V394.118H580.946ZM46.009 280.676H112.262V338.271C109.211 337.998 106.127 337.834 103.008 337.834C81.9445 337.834 62.3438 344.201 46.009 355.094V280.676ZM346.903 525.445C326.115 525.445 309.203 508.533 309.203 487.745C309.203 466.956 326.115 450.043 346.903 450.043C367.692 450.043 384.605 466.956 384.605 487.745C384.605 508.533 367.691 525.445 346.903 525.445ZM206.016 440.842C206.016 430.814 204.548 421.127 201.864 411.956H374.823V439.112C366.594 434.368 357.063 431.64 346.902 431.64C315.967 431.64 290.797 456.81 290.797 487.746C290.797 494.296 291.936 500.58 294.008 506.429H182.374C197.134 488.601 206.016 465.742 206.016 440.842ZM187.611 440.842C187.611 487.493 149.658 525.446 103.007 525.446C56.3555 525.446 18.4031 487.493 18.4031 440.842C18.4031 394.19 56.3566 356.237 103.008 356.237C149.659 356.237 187.611 394.19 187.611 440.842ZM215.576 337.834H159.113V234.469C159.113 229.197 163.4 224.908 168.673 224.908C173.944 224.908 178.232 229.196 178.232 234.469V318.715H215.576C220.847 318.715 225.136 323.003 225.136 328.275C225.136 333.546 220.848 337.834 215.576 337.834ZM412.745 253.683H392.261C391.771 247.106 391.091 240.562 390.232 234.051H412.745V253.683ZM506.104 187.429H515.919V197.245H506.104V187.429ZM459.48 187.429H487.699V215.648H534.322V187.429H562.541V281.903H459.48V187.429ZM515.919 300.306V310.121H506.104V300.306H515.919ZM459.48 300.306H487.699V328.524H534.322V300.306H562.541V337.834H514.365V384.379H562.541V393.552H459.48V300.306ZM561.268 356.237V365.975H532.77V356.237H561.268ZM581.596 422.259H431.15V84.2002H440.889V412.521H581.597L581.596 422.259Z" fill="black"/>
<path d="M318.385 310.121V277.584L303.589 262.653L317.026 249.217L304.012 236.204L264.213 276.003L277.227 289.016L290.575 275.667L299.981 285.158V328.526H366.235V310.121H318.385Z" fill="black"/>
<path d="M74.2285 290.484H55.8242V318.703H74.2285V290.484Z" fill="black"/>
<path d="M102.447 290.484H84.043V318.703H102.447V290.484Z" fill="black"/>
<path d="M27.6055 225.458H9.20117V243.862H27.6055V225.458Z" fill="black"/>
<path d="M506.103 253.677H469.296V272.081H506.103V253.677Z" fill="black"/>
<path d="M338.015 56.1494H102.447V74.5537H338.015V56.1494Z" fill="black"/>
<circle cx="488" cy="190" r="100" fill="#8CBEE9" fill-opacity="0.5"/>
<circle cx="488" cy="190" r="100" stroke="#8CBEE9"/>
</svg>
