<svg width="30" height="32" viewBox="0 0 30 32" fill="none" xmlns="http://www.w3.org/2000/svg">
<path d="M13.9611 29.1923V16.6325L2.9098 10.1998V22.2377C2.9098 22.4087 2.95254 22.5689 3.03801 22.7185C3.12348 22.8681 3.25169 22.9963 3.42264 23.1031L13.9611 29.1923ZM16.0797 29.1923L26.5626 23.1031C26.7335 22.9963 26.8617 22.8681 26.9472 22.7185C27.0327 22.5689 27.0754 22.4087 27.0754 22.2377V10.235L16.0797 16.6191V29.1923ZM13.4344 31.3921L2.37026 25.001C1.85532 24.7218 1.46109 24.332 1.18759 23.8315C0.914093 23.3309 0.777344 22.8077 0.777344 22.2618V9.75213C0.777344 9.20618 0.914093 8.68295 1.18759 8.18242C1.46109 7.68189 1.85532 7.29203 2.37026 7.01284L13.4344 0.621793C13.9229 0.342599 14.4427 0.203003 14.9936 0.203003C15.5446 0.203003 16.0775 0.342599 16.5925 0.621793L27.6149 7.01284C28.1114 7.29203 28.501 7.68189 28.7837 8.18242C29.0665 8.68295 29.2079 9.20618 29.2079 9.75213V22.2618C29.2079 22.8077 29.0665 23.3309 28.7837 23.8315C28.501 24.332 28.1114 24.7218 27.6149 25.001L16.5925 31.3921C16.0775 31.6713 15.5446 31.8109 14.9936 31.8109C14.4427 31.8109 13.9229 31.6713 13.4344 31.3921ZM21.4408 11.0801L25.8639 8.49679L15.5124 2.50534C15.3414 2.41275 15.1705 2.36646 14.9996 2.36646C14.8286 2.36646 14.6577 2.41275 14.4867 2.50534L10.6406 4.73613L21.4408 11.0801ZM14.9996 14.8184L19.3372 12.2746L8.46643 5.98075L4.1288 8.49679L14.9996 14.8184Z" fill="#6513FF"/>
</svg>
