<svg width="60" height="60" viewBox="0 0 60 60" fill="none" xmlns="http://www.w3.org/2000/svg">
<path d="M0 30C0 5.295 5.295 0 30 0C54.705 0 60 5.295 60 30C60 54.705 54.705 60 30 60C5.295 60 0 54.705 0 30Z" fill="#EEE6FF"/>
<path d="M28.9611 43.1923V30.6325L17.9098 24.1998V36.2377C17.9098 36.4087 17.9525 36.5689 18.038 36.7185C18.1235 36.8681 18.2517 36.9963 18.4226 37.1031L28.9611 43.1923ZM31.0797 43.1923L41.5626 37.1031C41.7335 36.9963 41.8617 36.8681 41.9472 36.7185C42.0327 36.5689 42.0754 36.4087 42.0754 36.2377V24.235L31.0797 30.6191V43.1923ZM28.4344 45.3921L17.3703 39.001C16.8553 38.7218 16.4611 38.332 16.1876 37.8315C15.9141 37.3309 15.7773 36.8077 15.7773 36.2618V23.7521C15.7773 23.2062 15.9141 22.6829 16.1876 22.1824C16.4611 21.6819 16.8553 21.292 17.3703 21.0128L28.4344 14.6218C28.9229 14.3426 29.4427 14.203 29.9936 14.203C30.5446 14.203 31.0775 14.3426 31.5925 14.6218L42.6149 21.0128C43.1114 21.292 43.501 21.6819 43.7837 22.1824C44.0665 22.6829 44.2079 23.2062 44.2079 23.7521V36.2618C44.2079 36.8077 44.0665 37.3309 43.7837 37.8315C43.501 38.332 43.1114 38.7218 42.6149 39.001L31.5925 45.3921C31.0775 45.6713 30.5446 45.8109 29.9936 45.8109C29.4427 45.8109 28.9229 45.6713 28.4344 45.3921ZM36.4408 25.0801L40.8639 22.4968L30.5124 16.5053C30.3414 16.4128 30.1705 16.3665 29.9996 16.3665C29.8286 16.3665 29.6577 16.4128 29.4867 16.5053L25.6406 18.7361L36.4408 25.0801ZM29.9996 28.8184L34.3372 26.2746L23.4664 19.9808L19.1288 22.4968L29.9996 28.8184Z" fill="#6513FF"/>
</svg>
