<svg width="17.000000" height="17.000000" viewBox="0 0 17 17" fill="none" xmlns="http://www.w3.org/2000/svg" xmlns:xlink="http://www.w3.org/1999/xlink">
	<desc>
			Created with Pixso.
	</desc>
	<defs/>
	<path id="Vector" d="M-0.5 17L-0.5 14.48L16.5 14.48L16.5 17L-0.5 17ZM1.62 12.38L1.62 9.81L9.21 2.33L11.8 4.88L4.22 12.38L1.62 12.38ZM2.9 11.12L3.66 11.12L10.01 4.88L9.21 4.1L2.9 10.36L2.9 11.12ZM12.66 4L10.07 1.47L11.33 0.23C11.48 0.07 11.68 -0.01 11.91 0C12.15 0 12.34 0.08 12.5 0.23L13.89 1.61C14.05 1.76 14.13 1.95 14.13 2.18C14.14 2.41 14.06 2.6 13.91 2.77L12.66 4Z" fill="#101437" fill-opacity="1.000000" fill-rule="nonzero"/>
</svg>
