<svg width="15.000000" height="16.000000" viewBox="0 0 15 16" fill="none" xmlns="http://www.w3.org/2000/svg" xmlns:xlink="http://www.w3.org/1999/xlink">
	<desc>
			Created with Pixso.
	</desc>
	<defs/>
	<path id="Vector" d="M2.3 15.94C1.8 15.94 1.38 15.76 1.03 15.41C0.67 15.05 0.5 14.63 0.5 14.13L0.5 1.44L-0.5 1.44L-0.5 -0.06L4 -0.06L4 -0.95L10 -0.95L10 -0.06L14.5 -0.06L14.5 1.44L13.5 1.44L13.5 14.13C13.5 14.63 13.32 15.06 12.97 15.41C12.62 15.76 12.19 15.94 11.69 15.94L2.3 15.94ZM12 1.44L2 1.44L2 14.13C2 14.22 2.02 14.29 2.08 14.35C2.14 14.41 2.21 14.44 2.3 14.44L11.69 14.44C11.76 14.44 11.83 14.41 11.9 14.34C11.96 14.28 12 14.21 12 14.13L12 1.44ZM4.4 12.44L5.9 12.44L5.9 3.44L4.4 3.44L4.4 12.44ZM8.09 12.44L9.59 12.44L9.59 3.44L8.09 3.44L8.09 12.44Z" fill="#101437" fill-opacity="0.600000" fill-rule="nonzero"/>
</svg>
