<svg width="34.000000" height="34.000000" viewBox="0 0 34 34" fill="none" xmlns="http://www.w3.org/2000/svg" xmlns:xlink="http://www.w3.org/1999/xlink">
	<desc>
			Created with Pixso.
	</desc>
	<defs>
		<clipPath id="clip311_802">
			<rect id="draft_FILL0_wght300_GRAD0_opsz24 1" width="34.000000" height="34.000000" transform="translate(-0.750000 0.000000)" fill="white" fill-opacity="0"/>
		</clipPath>
	</defs>
	<rect id="draft_FILL0_wght300_GRAD0_opsz24 1" width="34.000000" height="34.000000" transform="translate(-0.750000 0.000000)" fill="#FFFFFF" fill-opacity="0"/>
	<g clip-path="url(#clip311_802)">
		<path id="Vector" d="M8.18 30.45C7.47 30.45 6.86 30.21 6.36 29.71C5.87 29.21 5.62 28.61 5.62 27.89L5.62 6.1C5.62 5.38 5.87 4.78 6.36 4.28C6.86 3.78 7.47 3.54 8.18 3.54L19.43 3.54L26.87 10.97L26.87 27.89C26.87 28.61 26.62 29.21 26.13 29.71C25.63 30.21 25.02 30.45 24.31 30.45L8.18 30.45ZM18.37 12.04L18.37 5.66L8.18 5.66C8.07 5.66 7.97 5.71 7.88 5.8C7.79 5.89 7.75 5.99 7.75 6.1L7.75 27.89C7.75 28 7.79 28.1 7.88 28.19C7.97 28.28 8.07 28.33 8.18 28.33L24.31 28.33C24.42 28.33 24.52 28.28 24.61 28.19C24.7 28.1 24.75 28 24.75 27.89L24.75 12.04L18.37 12.04Z" fill="#0084FF" fill-opacity="1.000000" fill-rule="nonzero"/>
	</g>
</svg>
