<svg width="16.000000" height="22.000000" viewBox="0 0 16 22" fill="none" xmlns="http://www.w3.org/2000/svg" xmlns:xlink="http://www.w3.org/1999/xlink">
	<desc>
			Created with Pixso.
	</desc>
	<defs/>
	<path id="Vector" d="M1.1 14.55C0.73 13.91 0.45 13.26 0.27 12.6C0.09 11.93 0 11.25 0 10.55C0 8.31 0.77 6.41 2.32 4.84C3.87 3.28 5.76 2.5 8 2.5L8.17 2.5L6.57 0.9L7.97 -0.5L11.97 3.5L7.97 7.5L6.57 6.09L8.17 4.5L8 4.5C6.33 4.5 4.91 5.08 3.75 6.26C2.58 7.43 2 8.86 2 10.55C2 10.98 2.04 11.4 2.14 11.82C2.25 12.24 2.39 12.65 2.6 13.05L1.1 14.55ZM8.02 21.5L4.02 17.5L8.02 13.5L9.42 14.9L7.82 16.5L8 16.5C9.66 16.5 11.08 15.91 12.25 14.73C13.41 13.56 14 12.13 14 10.45C14 10.01 13.95 9.59 13.85 9.17C13.75 8.75 13.6 8.34 13.39 7.94L14.89 6.44C15.26 7.08 15.54 7.73 15.72 8.4C15.9 9.06 16 9.75 16 10.45C16 12.68 15.22 14.58 13.67 16.15C12.12 17.71 10.23 18.5 8 18.5L7.82 18.5L9.42 20.1L8.02 21.5Z" fill="#000000" fill-opacity="0.300000" fill-rule="nonzero"/>
</svg>
