<svg width="17" height="21" viewBox="0 0 17 21" fill="none" xmlns="http://www.w3.org/2000/svg">
<path d="M0 17.85V15.75H2.125V8.4C2.125 6.9475 2.56771 5.65687 3.45312 4.52812C4.33854 3.39937 5.48958 2.66 6.90625 2.31V1.575C6.90625 1.1375 7.0612 0.765625 7.37109 0.459375C7.68099 0.153125 8.05729 0 8.5 0C8.94271 0 9.31901 0.153125 9.62891 0.459375C9.9388 0.765625 10.0938 1.1375 10.0938 1.575V2.31C11.5104 2.66 12.6615 3.39937 13.5469 4.52812C14.4323 5.65687 14.875 6.9475 14.875 8.4V15.75H17V17.85H0ZM8.5 21C7.91563 21 7.41536 20.7944 6.99922 20.3831C6.58307 19.9719 6.375 19.4775 6.375 18.9H10.625C10.625 19.4775 10.4169 19.9719 10.0008 20.3831C9.58464 20.7944 9.08438 21 8.5 21ZM4.25 15.75H12.75V8.4C12.75 7.245 12.3339 6.25625 11.5016 5.43375C10.6693 4.61125 9.66875 4.2 8.5 4.2C7.33125 4.2 6.33073 4.61125 5.49844 5.43375C4.66615 6.25625 4.25 7.245 4.25 8.4V15.75Z" fill="black" fill-opacity="0.6"/>
</svg>
