<svg width="19" height="19" viewBox="0 0 19 19" fill="none" xmlns="http://www.w3.org/2000/svg">
<path d="M8.3793 18.0102L8.28652 17.9155L1.78496 11.2181C0.645703 10.045 0 8.39842 0 6.67367V6.53782C0 3.6399 1.85547 1.15361 4.42344 0.61025C5.88555 0.297406 7.38105 0.671996 8.57227 1.6023C8.90625 1.86574 9.21797 2.17035 9.5 2.52025C9.65586 2.32266 9.82285 2.14154 10.001 1.97277C10.1383 1.84105 10.2793 1.71755 10.4277 1.6023C11.6189 0.671996 13.1145 0.297406 14.5766 0.606134C17.1445 1.14949 19 3.6399 19 6.53782V6.67367C19 8.39842 18.3543 10.045 17.215 11.2181L10.7135 17.9155L10.6207 18.0102C10.3164 18.323 9.91562 18.5 9.5 18.5C9.08438 18.5 8.68359 18.3271 8.3793 18.0102ZM8.87285 4.70604C8.85801 4.69369 8.84688 4.67722 8.83574 4.66076L8.1752 3.83749L8.17148 3.83337C7.31426 2.76723 6.01914 2.2815 4.75742 2.54906C3.02813 2.91542 1.78125 4.58666 1.78125 6.53782V6.67367C1.78125 7.84683 2.22285 8.9706 2.99844 9.76918L9.5 16.4665L16.0016 9.76918C16.7771 8.9706 17.2188 7.84683 17.2188 6.67367V6.53782C17.2188 4.59078 15.9719 2.91542 14.2463 2.54906C12.9846 2.2815 11.6857 2.77135 10.8322 3.83337C10.8322 3.83337 10.8322 3.83337 10.8285 3.83749C10.8248 3.8416 10.8285 3.83749 10.8248 3.8416L10.1643 4.66488C10.1531 4.68134 10.1383 4.69369 10.1271 4.71016C9.96016 4.89539 9.73379 4.9983 9.5 4.9983C9.26621 4.9983 9.03984 4.89539 8.87285 4.71016V4.70604Z" fill="black" fill-opacity="0.6"/>
</svg>
