<svg width="21" height="21" viewBox="0 0 21 21" fill="none" xmlns="http://www.w3.org/2000/svg">
<path d="M10.4475 16.8C10.815 16.8 11.1256 16.6731 11.3794 16.4194C11.6331 16.1656 11.76 15.855 11.76 15.4875C11.76 15.12 11.6331 14.8094 11.3794 14.5556C11.1256 14.3019 10.815 14.175 10.4475 14.175C10.08 14.175 9.76937 14.3019 9.51562 14.5556C9.26188 14.8094 9.135 15.12 9.135 15.4875C9.135 15.855 9.26188 16.1656 9.51562 16.4194C9.76937 16.6731 10.08 16.8 10.4475 16.8ZM9.5025 12.7575H11.445C11.445 12.18 11.5106 11.725 11.6419 11.3925C11.7731 11.06 12.145 10.605 12.7575 10.0275C13.2125 9.5725 13.5712 9.13937 13.8337 8.72812C14.0962 8.31687 14.2275 7.8225 14.2275 7.245C14.2275 6.265 13.8687 5.5125 13.1512 4.9875C12.4337 4.4625 11.585 4.2 10.605 4.2C9.6075 4.2 8.79812 4.4625 8.17688 4.9875C7.55562 5.5125 7.1225 6.1425 6.8775 6.8775L8.61 7.56C8.6975 7.245 8.89437 6.90375 9.20062 6.53625C9.50688 6.16875 9.975 5.985 10.605 5.985C11.165 5.985 11.585 6.13812 11.865 6.44437C12.145 6.75062 12.285 7.0875 12.285 7.455C12.285 7.805 12.18 8.13312 11.97 8.43937C11.76 8.74562 11.4975 9.03 11.1825 9.2925C10.4125 9.975 9.94 10.4913 9.765 10.8412C9.59 11.1912 9.5025 11.83 9.5025 12.7575ZM10.5 21C9.0475 21 7.6825 20.7244 6.405 20.1731C5.1275 19.6219 4.01625 18.8737 3.07125 17.9287C2.12625 16.9837 1.37812 15.8725 0.826875 14.595C0.275625 13.3175 0 11.9525 0 10.5C0 9.0475 0.275625 7.6825 0.826875 6.405C1.37812 5.1275 2.12625 4.01625 3.07125 3.07125C4.01625 2.12625 5.1275 1.37812 6.405 0.826875C7.6825 0.275625 9.0475 0 10.5 0C11.9525 0 13.3175 0.275625 14.595 0.826875C15.8725 1.37812 16.9837 2.12625 17.9287 3.07125C18.8737 4.01625 19.6219 5.1275 20.1731 6.405C20.7244 7.6825 21 9.0475 21 10.5C21 11.9525 20.7244 13.3175 20.1731 14.595C19.6219 15.8725 18.8737 16.9837 17.9287 17.9287C16.9837 18.8737 15.8725 19.6219 14.595 20.1731C13.3175 20.7244 11.9525 21 10.5 21ZM10.5 18.9C12.845 18.9 14.8312 18.0863 16.4587 16.4587C18.0863 14.8312 18.9 12.845 18.9 10.5C18.9 8.155 18.0863 6.16875 16.4587 4.54125C14.8312 2.91375 12.845 2.1 10.5 2.1C8.155 2.1 6.16875 2.91375 4.54125 4.54125C2.91375 6.16875 2.1 8.155 2.1 10.5C2.1 12.845 2.91375 14.8312 4.54125 16.4587C6.16875 18.0863 8.155 18.9 10.5 18.9Z" fill="black" fill-opacity="0.6"/>
</svg>
