<svg width="21" height="18" viewBox="0 0 21 18" fill="none" xmlns="http://www.w3.org/2000/svg">
<path d="M8.51618 8.20536C7.42328 8.20536 6.48769 7.80365 5.70941 7.00022C4.93112 6.19677 4.54198 5.23093 4.54198 4.1027C4.54198 2.97445 4.93112 2.00861 5.70941 1.20518C6.48769 0.401725 7.42328 0 8.51618 0C9.60907 0 10.5447 0.401725 11.3229 1.20518C12.1012 2.00861 12.4904 2.97445 12.4904 4.1027C12.4904 5.23093 12.1012 6.19677 11.3229 7.00022C10.5447 7.80365 9.60907 8.20536 8.51618 8.20536ZM0 17.1322V14.5263C0 13.9342 0.146308 13.3981 0.438925 12.9179C0.731523 12.4378 1.13986 12.0662 1.66392 11.8032C2.60727 11.3178 3.6263 10.9124 4.72102 10.587C5.81575 10.2617 7.0808 10.099 8.51618 10.099H8.84808C8.93979 10.099 9.03879 10.111 9.14507 10.135C9.03006 10.4116 8.93507 10.6934 8.86009 10.9804C8.78513 11.2674 8.7229 11.5597 8.67342 11.8573H8.51618C7.2089 11.8573 6.05158 12.0124 5.04421 12.3228C4.03681 12.6331 3.17063 12.9829 2.44566 13.3721C2.18799 13.5149 1.99983 13.6817 1.88117 13.8725C1.76253 14.0634 1.70321 14.2813 1.70321 14.5263V15.3739H8.85683C8.94125 15.6714 9.0508 15.9735 9.18547 16.2801C9.32012 16.5866 9.46823 16.8707 9.62981 17.1322H0ZM15.4493 18L15.1959 16.4446C14.9252 16.3619 14.6704 16.2537 14.4317 16.12C14.1929 15.9862 13.9658 15.8187 13.7504 15.6173L12.3114 16.1335L11.5034 14.7156L12.6782 13.7238C12.5967 13.4202 12.556 13.1211 12.556 12.8266C12.556 12.532 12.5967 12.2329 12.6782 11.9294L11.5144 10.915L12.3223 9.4971L13.7504 10.0246C13.9586 9.82321 14.1838 9.65752 14.4262 9.52752C14.6686 9.39753 14.9252 9.2912 15.1959 9.20854L15.4493 7.65313H17.0651L17.3075 9.20854C17.5783 9.2912 17.8348 9.40053 18.0772 9.53655C18.3196 9.67254 18.5449 9.84724 18.7531 10.0606L20.1811 9.4971L20.9891 10.9511L19.8252 11.9654C19.9067 12.2473 19.9475 12.541 19.9475 12.8464C19.9475 13.1518 19.9067 13.4442 19.8252 13.7238L21 14.7156L20.1921 16.1335L18.7531 15.6173C18.5376 15.8187 18.3105 15.9862 18.0718 16.12C17.833 16.2537 17.5783 16.3619 17.3075 16.4446L17.0651 18H15.4493ZM16.2472 15.0583C16.842 15.0583 17.3508 14.8396 17.7737 14.4024C18.1966 13.9652 18.4081 13.4396 18.4081 12.8256C18.4081 12.2116 18.1963 11.6863 17.7728 11.2497C17.3492 10.8132 16.8401 10.5949 16.2453 10.5949C15.6505 10.5949 15.1417 10.8135 14.7188 11.2507C14.2959 11.688 14.0845 12.2136 14.0845 12.8276C14.0845 13.4416 14.2962 13.9668 14.7198 14.4034C15.1433 14.84 15.6525 15.0583 16.2472 15.0583ZM8.51618 6.44711C9.1407 6.44711 9.67533 6.21755 10.1201 5.75844C10.5648 5.29932 10.7872 4.74741 10.7872 4.1027C10.7872 3.45798 10.5648 2.90607 10.1201 2.44695C9.67533 1.98784 9.1407 1.75828 8.51618 1.75828C7.89166 1.75828 7.35703 1.98784 6.91229 2.44695C6.46756 2.90607 6.24519 3.45798 6.24519 4.1027C6.24519 4.74741 6.46756 5.29932 6.91229 5.75844C7.35703 6.21755 7.89166 6.44711 8.51618 6.44711Z" fill="black" fill-opacity="0.6"/>
</svg>
