<svg width="21" height="19" viewBox="0 0 21 19" fill="none" xmlns="http://www.w3.org/2000/svg">
<path d="M17.296 0.82445L17.2837 1.64471L13.239 3.02159L9.19417 4.39427H6.02405H2.84982V5.01784V5.63723L2.50078 5.66652C1.38385 5.75441 0.459914 6.4826 0.110872 7.54978C0.0164255 7.84273 0 7.95991 0 8.39097C0 8.82621 0.0164255 8.93921 0.114978 9.23634C0.32851 9.90176 0.804849 10.4709 1.40849 10.7932C1.76985 10.9857 2.08604 11.0736 2.53363 11.1154L2.84982 11.1447V11.7641V12.3877H3.52327H4.19671L4.30759 13.0029C4.36918 13.346 4.64842 14.8275 4.92354 16.3007L5.42041 18.9791L8.32773 18.9916L11.235 19L11.2104 18.887C11.1201 18.4308 10.077 12.7894 10.077 12.7476C10.077 12.7099 11.3007 13.1033 13.6907 13.911L17.3043 15.1289V15.9533V16.7819H19.1521H21V8.39097V0H19.1521H17.3043L17.296 0.82445ZM19.7681 8.39097V15.5264H19.1521H18.5362V8.39097V1.25551H19.1521H19.7681V8.39097ZM17.3043 8.39515C17.3043 12.7183 17.2919 13.8148 17.255 13.8022C17.2262 13.7896 15.5508 13.2205 13.5346 12.5383L9.87172 11.2912L9.87994 8.3826L9.89226 5.47401L13.5675 4.22687C15.5878 3.54053 17.255 2.97974 17.2755 2.97555C17.2919 2.97137 17.3043 5.41123 17.3043 8.39515ZM8.63981 8.39097V11.1322H6.36077H4.08174V8.39097V5.64978H6.36077H8.63981V8.39097ZM2.84982 8.39097V9.87665H2.75538C2.55416 9.87665 2.16817 9.7804 1.98749 9.68833C1.42081 9.39119 1.10461 8.67555 1.26476 8.04361C1.43312 7.36982 1.98338 6.9304 2.69789 6.90947L2.84982 6.90529V8.39097ZM8.763 12.4295C8.763 12.4756 9.68694 17.4767 9.728 17.6524L9.74853 17.7445H8.09777H6.4429L5.99531 15.3256C5.74482 13.9989 5.52307 12.7936 5.49433 12.6471L5.44505 12.3877H7.10403C8.21686 12.3877 8.763 12.4002 8.763 12.4295Z" fill="black" fill-opacity="0.6"/>
</svg>
