<svg width="18" height="19" viewBox="0 0 18 19" fill="none" xmlns="http://www.w3.org/2000/svg">
<path d="M11.509 17.7175L7.59591 13.8045L8.88491 12.5155L11.509 15.1395L16.711 9.93747L18 11.2265L11.509 17.7175ZM16.5729 8.57941H14.7315V3.97583H12.89V6.73798H3.68286V3.97583H1.84143V16.8659H7.36573V18.7073H1.84143C1.33504 18.7073 0.901534 18.527 0.540921 18.1664C0.180307 17.8057 0 17.3722 0 16.8659V3.97583C0 3.46944 0.180307 3.03593 0.540921 2.67532C0.901534 2.31471 1.33504 2.1344 1.84143 2.1344H5.68542C5.85422 1.59732 6.18414 1.15614 6.67519 0.810871C7.16624 0.465603 7.70332 0.292969 8.28644 0.292969C8.90026 0.292969 9.44885 0.465603 9.93222 0.810871C10.4156 1.15614 10.7417 1.59732 10.9105 2.1344H14.7315C15.2379 2.1344 15.6714 2.31471 16.032 2.67532C16.3926 3.03593 16.5729 3.46944 16.5729 3.97583V8.57941ZM8.28644 3.97583C8.54731 3.97583 8.76598 3.8876 8.94246 3.71113C9.11893 3.53466 9.20716 3.31599 9.20716 3.05512C9.20716 2.79425 9.11893 2.57558 8.94246 2.39911C8.76598 2.22264 8.54731 2.1344 8.28644 2.1344C8.02557 2.1344 7.80691 2.22264 7.63043 2.39911C7.45396 2.57558 7.36573 2.79425 7.36573 3.05512C7.36573 3.31599 7.45396 3.53466 7.63043 3.71113C7.80691 3.8876 8.02557 3.97583 8.28644 3.97583Z" fill="black" fill-opacity="0.6"/>
</svg>
