<svg width="80" height="42" viewBox="0 0 80 42" fill="none" xmlns="http://www.w3.org/2000/svg">
<path d="M6.5 30.875V27.625H9.75V16.25C9.75 14.0021 10.4271 12.0047 11.7812 10.2578C13.1354 8.51094 14.8958 7.36667 17.0625 6.825V5.6875C17.0625 5.01042 17.2995 4.4349 17.7734 3.96094C18.2474 3.48698 18.8229 3.25 19.5 3.25C20.1771 3.25 20.7526 3.48698 21.2266 3.96094C21.7005 4.4349 21.9375 5.01042 21.9375 5.6875V6.825C24.1042 7.36667 25.8646 8.51094 27.2188 10.2578C28.5729 12.0047 29.25 14.0021 29.25 16.25V27.625H32.5V30.875H6.5ZM19.5 35.75C18.6062 35.75 17.8411 35.4318 17.2047 34.7953C16.5682 34.1589 16.25 33.3937 16.25 32.5H22.75C22.75 33.3937 22.4318 34.1589 21.7953 34.7953C21.1589 35.4318 20.3937 35.75 19.5 35.75ZM13 27.625H26V16.25C26 14.4625 25.3635 12.9323 24.0906 11.6594C22.8177 10.3865 21.2875 9.75 19.5 9.75C17.7125 9.75 16.1823 10.3865 14.9094 11.6594C13.6365 12.9323 13 14.4625 13 16.25V27.625Z" fill="black"/>
<g filter="url(#filter0_d_3319_2)">
<rect x="42" y="3" width="34" height="33" rx="7" fill="#3798F2" shape-rendering="crispEdges"/>
<path d="M58.828 14.53C60.609 14.53 61.675 15.388 61.675 16.818C61.675 17.832 61.103 18.573 60.115 18.807V18.833C61.311 18.989 61.974 19.769 61.974 21.03C61.974 22.694 60.83 23.695 58.906 23.695C56.943 23.695 55.812 22.707 55.773 20.991H57.424C57.476 21.771 58.022 22.213 58.919 22.213C59.829 22.213 60.297 21.758 60.297 20.887C60.297 19.951 59.764 19.587 58.386 19.6H58.022V18.3H58.386C59.452 18.3 59.972 17.91 59.972 17.104C59.972 16.402 59.543 16.012 58.776 16.012C57.996 16.012 57.528 16.402 57.515 17.078H55.89C55.916 15.479 57.021 14.53 58.828 14.53Z" fill="white"/>
</g>
<defs>
<filter id="filter0_d_3319_2" x="38" y="1" width="42" height="41" filterUnits="userSpaceOnUse" color-interpolation-filters="sRGB">
<feFlood flood-opacity="0" result="BackgroundImageFix"/>
<feColorMatrix in="SourceAlpha" type="matrix" values="0 0 0 0 0 0 0 0 0 0 0 0 0 0 0 0 0 0 127 0" result="hardAlpha"/>
<feOffset dy="2"/>
<feGaussianBlur stdDeviation="2"/>
<feComposite in2="hardAlpha" operator="out"/>
<feColorMatrix type="matrix" values="0 0 0 0 0 0 0 0 0 0.518717 0 0 0 0 1 0 0 0 0.2 0"/>
<feBlend mode="normal" in2="BackgroundImageFix" result="effect1_dropShadow_3319_2"/>
<feBlend mode="normal" in="SourceGraphic" in2="effect1_dropShadow_3319_2" result="shape"/>
</filter>
</defs>
</svg>
